<svg xmlns="http://www.w3.org/2000/svg" width="183.241" height="183.241" viewBox="0 0 183.241 183.241">
  <g id="affordability" transform="translate(-8092.497 325.22)">
    <g id="Group_125" data-name="Group 125" transform="translate(8125.896 -272.194)">
      <path id="Path_277" data-name="Path 277" d="M-5207.616,3243.584h-37.971v-58.222h116.444v58.222h-27.846" transform="translate(5245.587 -3185.362)" fill="none" stroke="#27cc33" stroke-miterlimit="10" stroke-width="3.995"/>
      <path id="Path_278" data-name="Path 278" d="M-5159.532,3230.915h10.125a7.594,7.594,0,0,1,7.6-7.594v-22.783a7.594,7.594,0,0,1-7.6-7.594h-81c0,4.194-2.532,7.594-7.6,7.594v22.783a7.594,7.594,0,0,1,7.6,7.594h20.251" transform="translate(5248.13 -3182.818)" fill="none" stroke="#27cc33" stroke-miterlimit="10" stroke-width="3.995"/>
      <line id="Line_48" data-name="Line 48" x2="5.063" transform="translate(27.845 30.377)" fill="none" stroke="#27cc33" stroke-miterlimit="10" stroke-width="3.995"/>
      <line id="Line_49" data-name="Line 49" x2="5.063" transform="translate(81.004 30.377)" fill="none" stroke="#27cc33" stroke-miterlimit="10" stroke-width="3.995"/>
      <path id="Path_279" data-name="Path 279" d="M-5210.523,3216.344a13.815,13.815,0,0,1-.946-5.069c0-6.989,5.108-12.653,11.4-12.649s11.392,5.671,11.387,12.661a13.81,13.81,0,0,1-.951,5.063" transform="translate(5257.034 -3180.911)" fill="none" stroke="#27cc33" stroke-miterlimit="10" stroke-width="3.995"/>
      <path id="Path_280" data-name="Path 280" d="M-5197.892,3224.542a5.063,5.063,0,0,0-5.063-5.063,5.063,5.063,0,0,0-5.062,5.063v24.669c0,6.8-3.511,9.387-3.511,9.387s-1.574-.651-3.873-6.421c-3.706-9.307-11.417-7.708-13.16-5.775s-.423,4.86,3.984,11.786c3.006,4.722,4.678,15.354,9.465,19.559s7.1,6.319,7.1,8.98v12.462" transform="translate(5251.05 -3173.915)" fill="none" stroke="#7f7f7f" stroke-miterlimit="10" stroke-width="3.995"/>
      <path id="Path_281" data-name="Path 281" d="M-5195.658,3249.869v-32.908a5.062,5.062,0,0,0-5.063-5.063,5.063,5.063,0,0,0-5.063,5.063v32.908" transform="translate(5258.942 -3176.458)" fill="none" stroke="#7f7f7f" stroke-miterlimit="10" stroke-width="3.995"/>
      <path id="Path_282" data-name="Path 282" d="M-5188.077,3232.771v-10.125a5.063,5.063,0,0,0-5.062-5.063,5.063,5.063,0,0,0-5.063,5.063" transform="translate(5261.486 -3174.55)" fill="none" stroke="#7f7f7f" stroke-miterlimit="10" stroke-width="3.995"/>
      <path id="Path_283" data-name="Path 283" d="M-5185.558,3297.282v-13.074c0-3.855,5.063-5.788,5.063-13.545v-40.435a5.062,5.062,0,0,0-5.063-5.062,5.062,5.062,0,0,0-5.063,5.062v15.189" transform="translate(5264.03 -3172.006)" fill="none" stroke="#7f7f7f" stroke-miterlimit="10" stroke-width="3.995"/>
    </g>
    <circle id="Ellipse_14" data-name="Ellipse 14" cx="89.623" cy="89.623" r="89.623" transform="translate(8094.495 -323.223)" fill="none" stroke="#7f7f7f" stroke-miterlimit="10" stroke-width="3.995"/>
  </g>
</svg>
