<svg xmlns="http://www.w3.org/2000/svg" width="183.241" height="183.241" viewBox="0 0 183.241 183.241">
  <g id="convenience" transform="translate(-8092.497 -476.439)">
    <circle id="Ellipse_16" data-name="Ellipse 16" cx="89.623" cy="89.623" r="89.623" transform="translate(8094.495 478.437)" fill="none" stroke="#7f7f7f" stroke-miterlimit="10" stroke-width="3.995"/>
    <g id="Group_129" data-name="Group 129" transform="translate(8150.498 511.594)">
      <path id="Path_286" data-name="Path 286" d="M-5167.619,3854.106V3881.4a4.961,4.961,0,0,1-4.961,4.962H-5222.2a4.961,4.961,0,0,1-4.961-4.962V3777.192a4.962,4.962,0,0,1,4.961-4.963h49.624a4.962,4.962,0,0,1,4.961,4.963v4.961" transform="translate(5227.166 -3772.229)" fill="none" stroke="#7f7f7f" stroke-miterlimit="10" stroke-width="3.995"/>
      <line id="Line_56" data-name="Line 56" x2="59.547" transform="translate(0 99.245)" fill="none" stroke="#7f7f7f" stroke-miterlimit="10" stroke-width="3.995"/>
      <line id="Line_57" data-name="Line 57" x2="9.925" transform="translate(24.811 106.689)" fill="none" stroke="#7f7f7f" stroke-miterlimit="10" stroke-width="3.995"/>
      <path id="Path_287" data-name="Path 287" d="M-5146.56,3783.376h-57.066a4.963,4.963,0,0,0-4.963,4.962v49.622a4.963,4.963,0,0,0,4.963,4.963h4.961l7.445,12.406,7.442-12.406h37.218a4.962,4.962,0,0,0,4.962-4.963v-49.622A4.961,4.961,0,0,0-5146.56,3783.376Z" transform="translate(5233.4 -3768.489)" fill="none" stroke="#27cc33" stroke-miterlimit="10" stroke-width="3.995"/>
      <path id="Path_288" data-name="Path 288" d="M-5157.131,3800.1l-6.187-6.187-18.562,18.563-8.25-8.25-6.188,6.188,14.438,14.438Z" transform="translate(5237.518 -3764.951)" fill="none" stroke="#27cc33" stroke-miterlimit="10" stroke-width="3.995"/>
    </g>
  </g>
</svg>
