<svg xmlns="http://www.w3.org/2000/svg" viewBox="0 0 554.33 613.91"><defs><style>.cls-1,.cls-2{fill:none;stroke:#000;stroke-linecap:round;stroke-linejoin:round;}.cls-1{stroke-width:0.5px;}.cls-2{stroke-width:2px;}</style></defs><title>cubbys_3.0</title><g id="Layer_3" data-name="Layer 3"><path class="cls-1" d="M282.24,173c2-1.17,0-2.87-2-2.91s-4.43,1.35-2.43,2.78"/><path class="cls-1" d="M83.91,491.72l7.84-4.53"/><path class="cls-1" d="M84.42,492.73c-.4.23-.48.57-.06.83"/><path class="cls-1" d="M83.8,494.54a1.52,1.52,0,0,1,.06-2.78"/><path class="cls-1" d="M84.42,493.59,86.93,495"/><path class="cls-1" d="M86.37,496l-2.52-1.45"/><path class="cls-1" d="M87,495.08a3,3,0,0,0,2.62,0"/><path class="cls-1" d="M90.17,496.06a4.07,4.07,0,0,1-3.75,0"/><path class="cls-1" d="M89.67,495l7.84-4.52"/><path class="cls-1" d="M98.07,491.5,90.23,496"/><line class="cls-1" x1="446.36" y1="456.41" x2="446.36" y2="365.67"/><line class="cls-1" x1="446.36" y1="553.31" x2="446.36" y2="468.55"/><line class="cls-1" x1="450.86" y1="468.18" x2="450.86" y2="553.31"/><line class="cls-1" x1="450.86" y1="365.3" x2="450.86" y2="456.41"/><line class="cls-1" x1="296.8" y1="263.51" x2="296.8" y2="172.77"/><line class="cls-1" x1="296.8" y1="283.62" x2="296.8" y2="275.65"/><line class="cls-1" x1="301.3" y1="275.29" x2="301.3" y2="281.02"/><line class="cls-1" x1="301.3" y1="172.41" x2="301.3" y2="263.51"/><line class="cls-1" x1="287.26" y1="269.02" x2="287.26" y2="178.28"/><line class="cls-1" x1="287.26" y1="289.13" x2="287.26" y2="281.16"/><line class="cls-1" x1="291.76" y1="280.8" x2="291.76" y2="286.53"/><line class="cls-1" x1="291.76" y1="177.92" x2="291.76" y2="269.02"/><line class="cls-1" x1="277.71" y1="274.53" x2="277.71" y2="183.79"/><line class="cls-1" x1="277.71" y1="294.64" x2="277.71" y2="286.67"/><line class="cls-1" x1="282.21" y1="286.31" x2="282.21" y2="292.04"/><line class="cls-1" x1="282.21" y1="183.43" x2="282.21" y2="274.53"/><line class="cls-1" x1="200.53" y1="289.45" x2="205.12" y2="292.1"/><line class="cls-1" x1="212.81" y1="248.92" x2="210.2" y2="250.43"/><line class="cls-1" x1="211.74" y1="247.39" x2="211.88" y2="247.31"/><line class="cls-1" x1="213.75" y1="249.45" x2="213.94" y2="249.34"/><path class="cls-1" d="M213,246a2.39,2.39,0,0,1,1.55,2.19"/><path class="cls-1" d="M214.53,248.2a1.21,1.21,0,0,1-.41,1"/><path class="cls-1" d="M213.65,249.51a1.1,1.1,0,0,1-1.09,0"/><line class="cls-1" x1="215.23" y1="256.78" x2="215.23" y2="275.74"/><path class="cls-1" d="M215.23,275.74A4.77,4.77,0,0,1,213,279.6"/><line class="cls-1" x1="213" y1="279.6" x2="184.57" y2="296.02"/><path class="cls-1" d="M184.57,296a2.41,2.41,0,0,1-1.82.35"/><line class="cls-1" x1="175.88" y1="277.72" x2="175.88" y2="277.21"/><line class="cls-1" x1="271.76" y1="281.46" x2="271.76" y2="292.46"/><line class="cls-1" x1="273.39" y1="280.1" x2="273.39" y2="280.33"/><line class="cls-1" x1="273.55" y1="276.4" x2="273.55" y2="280.37"/><line class="cls-1" x1="270.81" y1="293.89" x2="270.81" y2="282.94"/><line class="cls-1" x1="272.47" y1="291.64" x2="272.47" y2="280.64"/><line class="cls-1" x1="275.67" y1="291.5" x2="275.67" y2="280.55"/><line class="cls-1" x1="281.31" y1="275.95" x2="281.31" y2="286.95"/><line class="cls-1" x1="282.93" y1="274.59" x2="282.93" y2="274.82"/><line class="cls-1" x1="283.09" y1="270.89" x2="283.09" y2="274.85"/><line class="cls-1" x1="280.36" y1="288.38" x2="280.36" y2="277.43"/><line class="cls-1" x1="282.02" y1="286.12" x2="282.02" y2="275.13"/><line class="cls-1" x1="285.21" y1="285.99" x2="285.21" y2="275.04"/><line class="cls-1" x1="290.86" y1="270.43" x2="290.86" y2="281.44"/><line class="cls-1" x1="292.48" y1="269.08" x2="292.48" y2="269.31"/><line class="cls-1" x1="292.64" y1="265.37" x2="292.64" y2="269.34"/><line class="cls-1" x1="289.9" y1="282.87" x2="289.9" y2="271.91"/><line class="cls-1" x1="291.56" y1="280.61" x2="291.56" y2="269.62"/><line class="cls-1" x1="294.76" y1="280.48" x2="294.76" y2="269.53"/><line class="cls-1" x1="300.4" y1="264.92" x2="300.4" y2="275.93"/><line class="cls-1" x1="302.02" y1="263.56" x2="302.02" y2="263.8"/><line class="cls-1" x1="302.18" y1="259.86" x2="302.18" y2="263.83"/><line class="cls-1" x1="299.45" y1="277.36" x2="299.45" y2="266.4"/><line class="cls-1" x1="301.11" y1="275.1" x2="301.11" y2="264.1"/><line class="cls-1" x1="304.31" y1="274.97" x2="304.31" y2="264.02"/><line class="cls-1" x1="309.95" y1="259.49" x2="309.95" y2="270.41"/><line class="cls-1" x1="311.57" y1="258.05" x2="311.57" y2="258.29"/><line class="cls-1" x1="311.73" y1="254.35" x2="311.73" y2="258.32"/><line class="cls-1" x1="308.99" y1="271.84" x2="308.99" y2="260.89"/><line class="cls-1" x1="310.66" y1="269.59" x2="310.66" y2="258.59"/><line class="cls-1" x1="313.85" y1="269.46" x2="313.85" y2="258.51"/><line class="cls-1" x1="319.49" y1="253.98" x2="319.49" y2="264.9"/><line class="cls-1" x1="321.12" y1="252.54" x2="321.12" y2="252.78"/><line class="cls-1" x1="321.28" y1="248.84" x2="321.28" y2="252.81"/><line class="cls-1" x1="318.54" y1="266.33" x2="318.54" y2="255.38"/><line class="cls-1" x1="320.2" y1="264.08" x2="320.2" y2="253.08"/><line class="cls-1" x1="323.4" y1="263.95" x2="323.4" y2="252.99"/><line class="cls-1" x1="329.04" y1="248.39" x2="329.04" y2="259.39"/><line class="cls-1" x1="330.66" y1="247.03" x2="330.66" y2="247.27"/><line class="cls-1" x1="330.82" y1="243.33" x2="330.82" y2="247.3"/><line class="cls-1" x1="328.09" y1="260.82" x2="328.09" y2="249.87"/><line class="cls-1" x1="329.75" y1="258.57" x2="329.75" y2="247.57"/><line class="cls-1" x1="332.94" y1="258.44" x2="332.94" y2="247.48"/><line class="cls-1" x1="338.59" y1="242.88" x2="338.59" y2="253.88"/><line class="cls-1" x1="340.21" y1="241.52" x2="340.21" y2="241.75"/><line class="cls-1" x1="340.37" y1="237.82" x2="340.37" y2="241.79"/><line class="cls-1" x1="337.63" y1="255.31" x2="337.63" y2="244.36"/><line class="cls-1" x1="339.29" y1="253.06" x2="339.29" y2="242.06"/><line class="cls-1" x1="342.49" y1="252.92" x2="342.49" y2="241.97"/><line class="cls-1" x1="338.59" y1="140" x2="338.59" y2="151"/><line class="cls-1" x1="340.21" y1="138.64" x2="340.21" y2="138.88"/><line class="cls-1" x1="340.37" y1="134.94" x2="340.37" y2="138.91"/><line class="cls-1" x1="337.63" y1="152.43" x2="337.63" y2="141.48"/><line class="cls-1" x1="339.29" y1="150.18" x2="339.29" y2="139.18"/><line class="cls-1" x1="342.49" y1="150.05" x2="342.49" y2="139.09"/><line class="cls-1" x1="329.04" y1="145.51" x2="329.04" y2="156.51"/><line class="cls-1" x1="330.66" y1="144.15" x2="330.66" y2="144.39"/><line class="cls-1" x1="330.82" y1="140.45" x2="330.82" y2="144.42"/><line class="cls-1" x1="328.09" y1="157.94" x2="328.09" y2="146.99"/><line class="cls-1" x1="329.75" y1="155.69" x2="329.75" y2="144.69"/><line class="cls-1" x1="332.94" y1="155.56" x2="332.94" y2="144.6"/><line class="cls-1" x1="319.49" y1="151.02" x2="319.49" y2="162.02"/><line class="cls-1" x1="321.12" y1="149.66" x2="321.12" y2="149.9"/><line class="cls-1" x1="321.28" y1="145.96" x2="321.28" y2="149.93"/><line class="cls-1" x1="318.54" y1="163.45" x2="318.54" y2="152.5"/><line class="cls-1" x1="320.2" y1="161.2" x2="320.2" y2="150.2"/><line class="cls-1" x1="323.4" y1="161.07" x2="323.4" y2="150.12"/><line class="cls-1" x1="309.95" y1="156.53" x2="309.95" y2="167.54"/><line class="cls-1" x1="311.57" y1="155.18" x2="311.57" y2="155.41"/><line class="cls-1" x1="311.73" y1="151.47" x2="311.73" y2="155.44"/><line class="cls-1" x1="308.99" y1="168.97" x2="308.99" y2="158.01"/><line class="cls-1" x1="310.66" y1="166.71" x2="310.66" y2="155.71"/><line class="cls-1" x1="313.85" y1="166.58" x2="313.85" y2="155.63"/><line class="cls-1" x1="300.4" y1="162.04" x2="300.4" y2="173.05"/><line class="cls-1" x1="302.02" y1="160.69" x2="302.02" y2="160.92"/><line class="cls-1" x1="302.18" y1="156.98" x2="302.18" y2="160.95"/><line class="cls-1" x1="299.45" y1="174.48" x2="299.45" y2="163.52"/><line class="cls-1" x1="301.11" y1="172.22" x2="301.11" y2="161.23"/><line class="cls-1" x1="304.31" y1="172.09" x2="304.31" y2="161.14"/><line class="cls-1" x1="290.86" y1="167.56" x2="290.86" y2="178.56"/><line class="cls-1" x1="292.48" y1="166.2" x2="292.48" y2="166.43"/><line class="cls-1" x1="292.64" y1="162.5" x2="292.64" y2="166.46"/><line class="cls-1" x1="289.9" y1="179.99" x2="289.9" y2="169.04"/><line class="cls-1" x1="291.56" y1="177.73" x2="291.56" y2="166.74"/><line class="cls-1" x1="294.76" y1="177.6" x2="294.76" y2="166.65"/><line class="cls-1" x1="281.31" y1="173.07" x2="281.31" y2="184.07"/><line class="cls-1" x1="282.93" y1="171.71" x2="282.93" y2="171.94"/><line class="cls-1" x1="283.09" y1="168.01" x2="283.09" y2="171.58"/><line class="cls-1" x1="280.36" y1="185.5" x2="280.36" y2="174.55"/><line class="cls-1" x1="282.02" y1="183.25" x2="282.02" y2="172.25"/><line class="cls-1" x1="285.21" y1="183.11" x2="285.21" y2="172.16"/><line class="cls-1" x1="271.76" y1="178.58" x2="271.76" y2="189.58"/><line class="cls-1" x1="273.39" y1="177.22" x2="273.39" y2="177.46"/><line class="cls-1" x1="273.55" y1="173.52" x2="273.55" y2="177.49"/><line class="cls-1" x1="270.81" y1="191.01" x2="270.81" y2="180.06"/><line class="cls-1" x1="272.47" y1="188.76" x2="272.47" y2="177.76"/><line class="cls-1" x1="275.67" y1="188.62" x2="275.67" y2="177.67"/><line class="cls-1" x1="271.78" y1="272.49" x2="272.66" y2="279.95"/><path class="cls-1" d="M271.79,272.09q0,.2,0,.41"/><line class="cls-1" x1="267.99" y1="262.05" x2="268.03" y2="261.61"/><line class="cls-1" x1="272.51" y1="261.96" x2="271.79" y2="272.01"/><path class="cls-1" d="M268,261.56c.09-1.25,0-3.09-1.71-2.72"/><path class="cls-1" d="M268.41,254.52c3.31,1,4.33,4.36,4.11,7.36"/><line class="cls-1" x1="207.77" y1="292.43" x2="204.83" y2="294.12"/><path class="cls-1" d="M204.71,294.19a7.58,7.58,0,0,1-4,1.17"/><path class="cls-1" d="M199.66,289.92c.47,1.46,1.48,1.09,2.56.5"/><line class="cls-1" x1="199.47" y1="287.41" x2="199.47" y2="288.19"/><line class="cls-1" x1="175.88" y1="417.34" x2="175.88" y2="416.84"/><line class="cls-1" x1="392.7" y1="481.93" x2="393.57" y2="489.34"/><path class="cls-1" d="M392.7,481.52q0,.2,0,.41"/><line class="cls-1" x1="388.91" y1="471.48" x2="388.94" y2="471.04"/><line class="cls-1" x1="393.43" y1="471.39" x2="392.71" y2="481.44"/><path class="cls-1" d="M388.94,471c.09-1.25,0-3.09-1.71-2.72"/><path class="cls-1" d="M389.33,463.95c3.31,1,4.32,4.36,4.11,7.36"/><line class="cls-1" x1="328.68" y1="501.86" x2="325.74" y2="503.55"/><path class="cls-1" d="M325.63,503.62a7.58,7.58,0,0,1-4,1.17"/><path class="cls-1" d="M320.58,499.35c.47,1.46,1.48,1.09,2.56.5"/><line class="cls-1" x1="320.39" y1="496.84" x2="320.39" y2="497.62"/><line class="cls-1" x1="392.68" y1="388.01" x2="392.68" y2="399.01"/><line class="cls-1" x1="394.3" y1="386.65" x2="394.3" y2="386.89"/><line class="cls-1" x1="394.46" y1="382.95" x2="394.46" y2="386.92"/><line class="cls-1" x1="391.72" y1="400.44" x2="391.72" y2="389.49"/><line class="cls-1" x1="393.39" y1="398.19" x2="393.39" y2="387.19"/><line class="cls-1" x1="396.58" y1="398.06" x2="396.58" y2="387.1"/><line class="cls-1" x1="402.23" y1="382.5" x2="402.23" y2="393.5"/><line class="cls-1" x1="403.85" y1="381.14" x2="403.85" y2="381.38"/><line class="cls-1" x1="404.01" y1="377.44" x2="404.01" y2="381.41"/><line class="cls-1" x1="401.27" y1="394.93" x2="401.27" y2="383.98"/><line class="cls-1" x1="402.93" y1="392.68" x2="402.93" y2="381.68"/><line class="cls-1" x1="406.13" y1="392.54" x2="406.13" y2="381.59"/><line class="cls-1" x1="411.77" y1="376.99" x2="411.77" y2="387.99"/><line class="cls-1" x1="413.39" y1="375.63" x2="413.39" y2="375.86"/><line class="cls-1" x1="413.55" y1="371.93" x2="413.55" y2="375.9"/><line class="cls-1" x1="410.82" y1="389.42" x2="410.82" y2="378.47"/><line class="cls-1" x1="412.48" y1="387.17" x2="412.48" y2="376.17"/><line class="cls-1" x1="415.68" y1="387.03" x2="415.68" y2="376.08"/><line class="cls-1" x1="421.32" y1="371.48" x2="421.32" y2="382.48"/><line class="cls-1" x1="422.94" y1="370.12" x2="422.94" y2="370.35"/><line class="cls-1" x1="423.1" y1="366.42" x2="423.1" y2="370.38"/><line class="cls-1" x1="420.36" y1="383.91" x2="420.36" y2="372.96"/><line class="cls-1" x1="422.02" y1="381.65" x2="422.02" y2="370.66"/><line class="cls-1" x1="425.22" y1="381.52" x2="425.22" y2="370.57"/><line class="cls-1" x1="430.86" y1="365.96" x2="430.86" y2="376.97"/><line class="cls-1" x1="432.49" y1="364.61" x2="432.49" y2="364.84"/><line class="cls-1" x1="432.64" y1="360.9" x2="432.64" y2="364.87"/><line class="cls-1" x1="429.91" y1="378.4" x2="429.91" y2="367.44"/><line class="cls-1" x1="431.57" y1="376.14" x2="431.57" y2="365.15"/><line class="cls-1" x1="434.77" y1="376.01" x2="434.77" y2="365.06"/><line class="cls-1" x1="440.41" y1="360.45" x2="440.41" y2="371.46"/><line class="cls-1" x1="442.03" y1="359.1" x2="442.03" y2="359.33"/><line class="cls-1" x1="442.19" y1="355.39" x2="442.19" y2="359.36"/><line class="cls-1" x1="439.45" y1="372.89" x2="439.45" y2="361.93"/><line class="cls-1" x1="441.12" y1="370.63" x2="441.12" y2="359.63"/><line class="cls-1" x1="444.31" y1="370.5" x2="444.31" y2="359.55"/><line class="cls-1" x1="449.95" y1="354.94" x2="449.95" y2="365.94"/><line class="cls-1" x1="451.58" y1="353.58" x2="451.58" y2="353.82"/><line class="cls-1" x1="451.74" y1="349.88" x2="451.74" y2="353.85"/><line class="cls-1" x1="449" y1="367.37" x2="449" y2="356.42"/><line class="cls-1" x1="450.66" y1="365.12" x2="450.66" y2="354.12"/><line class="cls-1" x1="453.86" y1="364.99" x2="453.86" y2="354.04"/><line class="cls-1" x1="459.5" y1="349.43" x2="459.5" y2="360.43"/><line class="cls-1" x1="461.12" y1="348.07" x2="461.12" y2="348.31"/><line class="cls-1" x1="461.28" y1="344.37" x2="461.28" y2="348.34"/><line class="cls-1" x1="458.55" y1="361.86" x2="458.55" y2="350.91"/><line class="cls-1" x1="460.21" y1="359.61" x2="460.21" y2="348.61"/><line class="cls-1" x1="463.4" y1="359.48" x2="463.4" y2="348.52"/><line class="cls-1" x1="459.5" y1="452.31" x2="459.5" y2="463.31"/><line class="cls-1" x1="461.12" y1="450.95" x2="461.12" y2="451.19"/><line class="cls-1" x1="461.28" y1="447.25" x2="461.28" y2="451.22"/><line class="cls-1" x1="458.55" y1="464.74" x2="458.55" y2="453.79"/><line class="cls-1" x1="460.21" y1="462.49" x2="460.21" y2="451.49"/><line class="cls-1" x1="463.4" y1="462.36" x2="463.4" y2="451.4"/><line class="cls-1" x1="449.95" y1="457.82" x2="449.95" y2="468.82"/><line class="cls-1" x1="451.58" y1="456.46" x2="451.58" y2="456.7"/><line class="cls-1" x1="451.74" y1="452.76" x2="451.74" y2="456.73"/><line class="cls-1" x1="449" y1="470.25" x2="449" y2="459.3"/><line class="cls-1" x1="450.66" y1="468" x2="450.66" y2="457"/><line class="cls-1" x1="453.86" y1="467.87" x2="453.86" y2="456.91"/><line class="cls-1" x1="440.41" y1="463.33" x2="440.41" y2="474.33"/><line class="cls-1" x1="442.03" y1="461.97" x2="442.03" y2="462.21"/><line class="cls-1" x1="442.19" y1="458.27" x2="442.19" y2="462.24"/><line class="cls-1" x1="439.45" y1="475.76" x2="439.45" y2="464.81"/><line class="cls-1" x1="441.12" y1="473.51" x2="441.12" y2="462.51"/><line class="cls-1" x1="444.31" y1="473.38" x2="444.31" y2="462.43"/><line class="cls-1" x1="430.86" y1="468.84" x2="430.86" y2="479.85"/><line class="cls-1" x1="432.49" y1="467.48" x2="432.49" y2="467.72"/><line class="cls-1" x1="432.64" y1="463.78" x2="432.64" y2="467.75"/><line class="cls-1" x1="429.91" y1="481.28" x2="429.91" y2="470.32"/><line class="cls-1" x1="431.57" y1="479.02" x2="431.57" y2="468.02"/><line class="cls-1" x1="434.77" y1="478.89" x2="434.77" y2="467.94"/><line class="cls-1" x1="421.32" y1="474.35" x2="421.32" y2="485.36"/><line class="cls-1" x1="422.94" y1="473" x2="422.94" y2="473.23"/><line class="cls-1" x1="423.1" y1="469.29" x2="423.1" y2="473.26"/><line class="cls-1" x1="420.36" y1="486.79" x2="420.36" y2="475.83"/><line class="cls-1" x1="422.02" y1="484.53" x2="422.02" y2="473.54"/><line class="cls-1" x1="425.22" y1="484.4" x2="425.22" y2="473.45"/><line class="cls-1" x1="411.77" y1="479.87" x2="411.77" y2="490.87"/><line class="cls-1" x1="413.39" y1="478.51" x2="413.39" y2="478.74"/><line class="cls-1" x1="413.55" y1="474.81" x2="413.55" y2="478.77"/><line class="cls-1" x1="410.82" y1="492.3" x2="410.82" y2="481.35"/><line class="cls-1" x1="412.48" y1="490.04" x2="412.48" y2="479.05"/><line class="cls-1" x1="415.68" y1="489.91" x2="415.68" y2="478.96"/><line class="cls-1" x1="402.23" y1="485.38" x2="402.23" y2="496.38"/><line class="cls-1" x1="403.85" y1="484.02" x2="403.85" y2="484.25"/><line class="cls-1" x1="404.01" y1="480.32" x2="404.01" y2="484.29"/><line class="cls-1" x1="401.27" y1="497.81" x2="401.27" y2="486.86"/><line class="cls-1" x1="402.93" y1="495.56" x2="402.93" y2="484.56"/><line class="cls-1" x1="406.13" y1="495.42" x2="406.13" y2="484.47"/><line class="cls-1" x1="392.68" y1="490.89" x2="392.68" y2="501.89"/><line class="cls-1" x1="394.3" y1="489.53" x2="394.3" y2="489.77"/><line class="cls-1" x1="394.46" y1="485.83" x2="394.46" y2="489.8"/><line class="cls-1" x1="391.72" y1="503.32" x2="391.72" y2="492.37"/><line class="cls-1" x1="393.39" y1="501.07" x2="393.39" y2="490.07"/><line class="cls-1" x1="396.58" y1="500.93" x2="396.58" y2="489.98"/><line class="cls-1" x1="336.14" y1="466.22" x2="336.14" y2="485.18"/><path class="cls-1" d="M336.14,485.18a4.77,4.77,0,0,1-2.23,3.86"/><line class="cls-1" x1="333.92" y1="489.03" x2="305.48" y2="505.45"/><path class="cls-1" d="M305.48,505.45a2.41,2.41,0,0,1-1.82.35"/><line class="cls-1" x1="333.73" y1="458.35" x2="331.12" y2="459.86"/><line class="cls-1" x1="332.7" y1="456.8" x2="332.79" y2="456.74"/><line class="cls-1" x1="334.66" y1="458.88" x2="334.85" y2="458.78"/><path class="cls-1" d="M333.89,455.45a2.4,2.4,0,0,1,1.55,2.19"/><path class="cls-1" d="M335.44,457.63a1.21,1.21,0,0,1-.41,1"/><path class="cls-1" d="M334.57,458.94a1.1,1.1,0,0,1-1.09,0"/><line class="cls-1" x1="321.45" y1="498.88" x2="326.03" y2="501.53"/><line class="cls-1" x1="455.79" y1="325.94" x2="459.95" y2="328.33"/><line class="cls-1" x1="457.69" y1="332.23" x2="454.55" y2="330.41"/><path class="cls-1" d="M460.06,328.4a5.23,5.23,0,0,1,2.36,5.22"/><path class="cls-1" d="M458,332.89a.66.66,0,0,0-.21-.62"/><line class="cls-1" x1="462.4" y1="333.74" x2="460.41" y2="345.88"/><line class="cls-1" x1="455.97" y1="345.15" x2="457.97" y2="332.97"/><path class="cls-1" d="M455.9,345.91a4.64,4.64,0,0,1,.05-.68"/><line class="cls-1" x1="460.37" y1="462.66" x2="460.37" y2="475.63"/><line class="cls-1" x1="460.4" y1="359.79" x2="460.37" y2="451.1"/><line class="cls-1" x1="460.4" y1="346.05" x2="460.4" y2="347.94"/><line class="cls-1" x1="455.9" y1="347.95" x2="455.9" y2="346.05"/><line class="cls-1" x1="455.87" y1="451.99" x2="455.9" y2="360.16"/><line class="cls-1" x1="455.87" y1="475.63" x2="455.87" y2="463.01"/><path class="cls-1" d="M278.06,173a4.62,4.62,0,0,0,4.18,0"/><path class="cls-1" d="M92.31,488.18l-7.84,4.52"/><line class="cls-1" x1="186.1" y1="297.23" x2="185.15" y2="296.68"/><line class="cls-1" x1="186.1" y1="264.1" x2="185.15" y2="263.55"/><path class="cls-1" d="M205.5,292.31a2.57,2.57,0,0,1-.37-.22"/><path class="cls-1" d="M326.41,501.74a2.59,2.59,0,0,1-.37-.22"/><line class="cls-1" x1="307.01" y1="473.53" x2="306.06" y2="472.98"/><line class="cls-1" x1="307.01" y1="506.66" x2="306.06" y2="506.11"/><path class="cls-1" d="M92.31,488.18c.37-.26,0-.77-.28-1"/><path class="cls-1" d="M92,487.22a.25.25,0,0,0-.28,0"/><line class="cls-1" x1="292.28" y1="550.77" x2="301.83" y2="556.28"/><line class="cls-1" x1="301.83" y1="559.96" x2="301.83" y2="556.28"/><line class="cls-1" x1="200.8" y1="482.34" x2="292.28" y2="429.52"/><line class="cls-1" x1="463.4" y1="458.52" x2="467.29" y2="460.76"/><line class="cls-1" x1="467.29" y1="464.43" x2="467.29" y2="460.76"/><line class="cls-1" x1="454.56" y1="464.43" x2="454.56" y2="462.16"/><line class="cls-1" x1="301.83" y1="556.28" x2="389.33" y2="505.77"/><line class="cls-1" x1="389.33" y1="509.44" x2="389.33" y2="505.77"/><line class="cls-1" x1="467.29" y1="460.76" x2="477.79" y2="454.69"/><line class="cls-1" x1="477.79" y1="458.37" x2="477.79" y2="454.69"/><line class="cls-1" x1="477.79" y1="458.37" x2="467.29" y2="464.43"/><line class="cls-1" x1="301.83" y1="559.96" x2="193.64" y2="497.5"/><line class="cls-1" x1="389.33" y1="509.44" x2="301.83" y2="559.96"/><line class="cls-1" x1="389.65" y1="501.91" x2="389.33" y2="502.09"/><line class="cls-1" x1="393.26" y1="499.83" x2="392.68" y2="500.16"/><line class="cls-1" x1="399.19" y1="496.4" x2="396.58" y2="497.91"/><line class="cls-1" x1="402.8" y1="494.31" x2="402.23" y2="494.65"/><line class="cls-1" x1="408.74" y1="490.89" x2="406.13" y2="492.39"/><line class="cls-1" x1="412.35" y1="488.8" x2="411.77" y2="489.14"/><line class="cls-1" x1="418.29" y1="485.38" x2="415.68" y2="486.88"/><line class="cls-1" x1="421.9" y1="483.29" x2="421.32" y2="483.63"/><line class="cls-1" x1="427.83" y1="479.86" x2="425.22" y2="481.37"/><line class="cls-1" x1="431.44" y1="477.78" x2="430.86" y2="478.11"/><line class="cls-1" x1="437.38" y1="474.35" x2="434.77" y2="475.86"/><line class="cls-1" x1="440.99" y1="472.27" x2="440.41" y2="472.6"/><line class="cls-1" x1="446.36" y1="469.17" x2="444.31" y2="470.35"/><line class="cls-1" x1="454.56" y1="464.43" x2="453.86" y2="464.84"/><line class="cls-1" x1="467.29" y1="464.43" x2="463.4" y2="462.19"/><path class="cls-1" d="M354.49,273.28a4.25,4.25,0,0,1,3.91-.27c1.61.56,2.23,1.95.61,2.88a4.25,4.25,0,0,1-3.91.27C353.49,275.6,352.87,274.21,354.49,273.28Z"/><path class="cls-1" d="M456,326.08a7.46,7.46,0,0,1,5.89,1.15l5.35,3.09"/><path class="cls-1" d="M385,367.31a6.16,6.16,0,0,1,4.35.67"/><line class="cls-1" x1="292.28" y1="420.34" x2="292.28" y2="425.85"/><line class="cls-1" x1="292.28" y1="420.34" x2="301.83" y2="425.85"/><line class="cls-1" x1="301.83" y1="420.34" x2="301.83" y2="425.85"/><line class="cls-1" x1="180.92" y1="356.04" x2="190.46" y2="361.55"/><line class="cls-1" x1="190.46" y1="361.55" x2="190.46" y2="367.06"/><line class="cls-1" x1="292.28" y1="425.85" x2="190.46" y2="367.06"/><line class="cls-1" x1="301.83" y1="425.85" x2="389.33" y2="375.33"/><line class="cls-1" x1="389.33" y1="369.82" x2="389.33" y2="375.33"/><line class="cls-1" x1="467.29" y1="330.32" x2="477.79" y2="324.26"/><line class="cls-1" x1="477.79" y1="318.75" x2="477.79" y2="324.26"/><line class="cls-1" x1="467.29" y1="324.81" x2="467.29" y2="330.32"/><line class="cls-1" x1="389.33" y1="367.99" x2="454.56" y2="330.32"/><line class="cls-1" x1="454.56" y1="324.81" x2="454.56" y2="330.32"/><line class="cls-1" x1="389.33" y1="362.47" x2="389.33" y2="367.99"/><line class="cls-1" x1="180.92" y1="350.53" x2="180.92" y2="356.04"/><path class="cls-1" d="M389.33,362.47a6.15,6.15,0,0,0-4.54-.64c-1.32.24-3.53,1-3.1,2.84.28,1.16,2.83,2.37,3.59,2.81l4,2.34"/><line class="cls-1" x1="454.56" y1="324.81" x2="389.33" y2="362.47"/><path class="cls-1" d="M467.29,324.81c-1.18-.68-6.78-4.07-8.25-4.32-3.59-.62-8.3,2.12-4.48,4.32"/><line class="cls-1" x1="477.79" y1="318.75" x2="467.29" y2="324.81"/><line class="cls-1" x1="356.88" y1="248.94" x2="477.79" y2="318.75"/><line class="cls-1" x1="180.92" y1="350.53" x2="356.88" y2="248.94"/><line class="cls-1" x1="301.83" y1="420.34" x2="180.92" y2="350.53"/><line class="cls-1" x1="389.33" y1="369.82" x2="301.83" y2="420.34"/><path class="cls-1" d="M455.87,475.63c0,.81,1.06,1.16,1.66,1.25a3.08,3.08,0,0,0,2.18-.33"/><path class="cls-1" d="M459.71,476.55c.38-.22.66-.41.66-.92"/><path class="cls-1" d="M98.07,491.5c.36-.26,0-.76-.28-.95"/><path class="cls-1" d="M97.79,490.55a.25.25,0,0,0-.28,0"/><line class="cls-1" x1="91.14" y1="478.73" x2="90.19" y2="479.28"/><line class="cls-1" x1="100.57" y1="484.18" x2="91.14" y2="478.73"/><line class="cls-1" x1="99.63" y1="484.72" x2="100.57" y2="484.18"/><line class="cls-1" x1="99.63" y1="499.42" x2="100.57" y2="498.87"/><line class="cls-1" x1="90.19" y1="488.1" x2="90.19" y2="479.28"/><line class="cls-1" x1="90.19" y1="493.97" x2="90.19" y2="489.4"/><line class="cls-1" x1="90.19" y1="479.28" x2="99.63" y2="484.72"/><line class="cls-1" x1="99.63" y1="499.42" x2="99.63" y2="484.72"/><line class="cls-1" x1="91.99" y1="495.01" x2="99.63" y2="499.42"/><line class="cls-1" x1="90.19" y1="493.97" x2="90.86" y2="494.36"/><line class="cls-1" x1="303.37" y1="486.11" x2="312.15" y2="481.04"/><line class="cls-1" x1="312.15" y1="482.99" x2="312.15" y2="481.04"/><line class="cls-1" x1="312.15" y1="485.84" x2="312.15" y2="483.9"/><line class="cls-1" x1="303.34" y1="490.93" x2="312.15" y2="485.84"/><line class="cls-1" x1="292.28" y1="486.42" x2="292.28" y2="481.62"/><line class="cls-1" x1="301.72" y1="491.86" x2="301.72" y2="487.07"/><path class="cls-1" d="M450.66,354.06a1.55,1.55,0,0,1-.46.38"/><path class="cls-1" d="M450.8,353.82l0,.1"/><path class="cls-1" d="M450.85,353.6a.78.78,0,0,1,0,.19"/><path class="cls-1" d="M450.84,353.37v0"/><path class="cls-1" d="M449.29,354.76c-.88.17-2.76.09-2.93-1.14"/><path class="cls-1" d="M450.2,354.45a2.65,2.65,0,0,1-.65.26"/><path class="cls-1" d="M446.36,553.31c0,.81,1.06,1.16,1.66,1.25a3.08,3.08,0,0,0,2.18-.34"/><path class="cls-1" d="M450.2,554.23c.38-.22.66-.41.66-.92"/><path class="cls-1" d="M301.1,161.16a1.55,1.55,0,0,1-.46.38"/><path class="cls-1" d="M301.25,160.92l0,.1"/><path class="cls-1" d="M301.3,160.7a.78.78,0,0,1,0,.19"/><path class="cls-1" d="M301.29,160.47v0"/><path class="cls-1" d="M299.74,161.87c-.88.17-2.76.09-2.93-1.14"/><path class="cls-1" d="M300.64,161.55a2.65,2.65,0,0,1-.65.26"/><path class="cls-1" d="M291.56,166.68a1.55,1.55,0,0,1-.46.38"/><path class="cls-1" d="M291.7,166.43l0,.1"/><path class="cls-1" d="M291.75,166.21a.78.78,0,0,1,0,.19"/><path class="cls-1" d="M291.74,166v0"/><path class="cls-1" d="M290.19,167.38c-.88.17-2.76.09-2.93-1.14"/><path class="cls-1" d="M291.1,167.06a2.65,2.65,0,0,1-.65.26"/><path class="cls-1" d="M282,172.19a1.55,1.55,0,0,1-.46.38"/><path class="cls-1" d="M282.15,171.94l0,.1"/><path class="cls-1" d="M282.21,171.72a.78.78,0,0,1,0,.19"/><path class="cls-1" d="M282.2,171.5v0"/><path class="cls-1" d="M280.64,172.89c-.88.17-2.76.09-2.93-1.14"/><path class="cls-1" d="M281.55,172.57a2.65,2.65,0,0,1-.65.26"/><line class="cls-1" x1="113.3" y1="431.82" x2="113.3" y2="536.54"/><line class="cls-1" x1="91.02" y1="495.56" x2="91.02" y2="538.37"/><line class="cls-1" x1="91.02" y1="433.66" x2="91.02" y2="478.8"/><line class="cls-1" x1="100.57" y1="543.88" x2="100.57" y2="439.17"/><line class="cls-1" x1="106.93" y1="540.21" x2="106.93" y2="435.49"/><line class="cls-1" x1="91.02" y1="426.31" x2="91.02" y2="433.66"/><line class="cls-1" x1="188.07" y1="388.65" x2="100.57" y2="439.17"/><line class="cls-1" x1="200.8" y1="373.95" x2="200.8" y2="381.3"/><line class="cls-1" x1="100.57" y1="439.17" x2="91.02" y2="433.66"/><line class="cls-1" x1="100.57" y1="431.82" x2="100.57" y2="439.17"/><line class="cls-1" x1="100.57" y1="431.82" x2="91.02" y2="426.31"/><line class="cls-1" x1="200.8" y1="373.95" x2="100.57" y2="431.82"/><line class="cls-1" x1="191.26" y1="368.44" x2="200.8" y2="373.95"/><line class="cls-1" x1="91.02" y1="426.31" x2="191.26" y2="368.44"/><line class="cls-1" x1="181.65" y1="489.65" x2="113.3" y2="529.11"/><line class="cls-1" x1="113.3" y1="532.94" x2="184.96" y2="491.56"/><line class="cls-1" x1="184.96" y1="490.5" x2="113.3" y2="531.87"/><line class="cls-1" x1="178.53" y1="487.85" x2="113.3" y2="525.51"/><line class="cls-1" x1="91.02" y1="538.37" x2="100.57" y2="543.88"/><line class="cls-1" x1="91.02" y1="545.72" x2="91.02" y2="538.37"/><line class="cls-1" x1="100.57" y1="543.88" x2="188.07" y2="493.36"/><line class="cls-1" x1="100.57" y1="551.23" x2="100.57" y2="543.88"/><line class="cls-1" x1="200.8" y1="493.36" x2="200.8" y2="486.02"/><line class="cls-1" x1="100.57" y1="551.23" x2="200.8" y2="493.36"/><line class="cls-1" x1="91.02" y1="545.72" x2="100.57" y2="551.23"/><line class="cls-1" x1="200.8" y1="486.02" x2="194.44" y2="489.69"/><line class="cls-1" x1="200.8" y1="381.3" x2="194.44" y2="384.97"/><line class="cls-1" x1="200.8" y1="486.02" x2="200.8" y2="381.3"/><line class="cls-1" x1="184.03" y1="390.98" x2="184.03" y2="488.27"/><line class="cls-1" x1="184.03" y1="488.27" x2="181.65" y2="489.65"/><line class="cls-1" x1="178.53" y1="487.85" x2="181.65" y2="489.65"/><line class="cls-1" x1="184.96" y1="491.56" x2="188.07" y2="493.36"/><line class="cls-1" x1="184.96" y1="488.81" x2="184.03" y2="488.27"/><line class="cls-1" x1="184.96" y1="491.56" x2="184.96" y2="390.45"/><line class="cls-1" x1="181.65" y1="392.36" x2="181.65" y2="489.65"/><line class="cls-1" x1="194.44" y1="384.97" x2="188.07" y2="388.65"/><line class="cls-1" x1="178.53" y1="394.16" x2="178.53" y2="487.85"/><line class="cls-1" x1="188.07" y1="493.36" x2="188.07" y2="388.65"/><line class="cls-1" x1="194.44" y1="489.69" x2="188.07" y2="493.36"/><line class="cls-1" x1="194.44" y1="489.69" x2="194.44" y2="384.97"/><path class="cls-1" d="M233.58,63.85a4.25,4.25,0,0,1,3.91-.27c1.61.56,2.23,1.95.61,2.88a4.25,4.25,0,0,1-3.91.27C232.58,66.17,232,64.78,233.58,63.85Z"/><line class="cls-1" x1="334.27" y1="120.8" x2="333.64" y2="120.43"/><line class="cls-1" x1="335.63" y1="116.99" x2="335.63" y2="119.27"/><line class="cls-1" x1="333.64" y1="118.14" x2="335.63" y2="116.99"/><path class="cls-1" d="M333.64,117.22a7,7,0,0,1,6.36,0"/><path class="cls-1" d="M264.06,157.88a6.16,6.16,0,0,1,4.35.67"/><line class="cls-1" x1="180.92" y1="210.91" x2="180.92" y2="216.42"/><line class="cls-1" x1="171.37" y1="216.42" x2="69.55" y2="157.63"/><line class="cls-1" x1="268.41" y1="160.39" x2="268.41" y2="165.9"/><line class="cls-1" x1="356.88" y1="109.31" x2="356.88" y2="114.83"/><line class="cls-1" x1="346.37" y1="115.38" x2="346.37" y2="120.89"/><line class="cls-1" x1="333.64" y1="115.38" x2="333.64" y2="120.89"/><line class="cls-1" x1="268.41" y1="153.04" x2="268.41" y2="158.55"/><line class="cls-1" x1="60" y1="141.1" x2="60" y2="146.61"/><path class="cls-1" d="M268.41,153a6.15,6.15,0,0,0-4.54-.64c-1.32.24-3.53,1-3.1,2.84.28,1.16,2.83,2.37,3.59,2.81l4,2.34"/><line class="cls-1" x1="333.64" y1="115.38" x2="268.41" y2="153.04"/><path class="cls-1" d="M346.37,115.38c-1.18-.68-6.78-4.07-8.25-4.32-3.59-.62-8.3,2.12-4.48,4.32"/><line class="cls-1" x1="356.88" y1="109.31" x2="346.37" y2="115.38"/><line class="cls-1" x1="235.96" y1="39.5" x2="356.88" y2="109.31"/><line class="cls-1" x1="60" y1="141.1" x2="235.96" y2="39.5"/><line class="cls-1" x1="180.92" y1="210.91" x2="60" y2="141.1"/><line class="cls-1" x1="268.41" y1="160.39" x2="180.92" y2="210.91"/><line class="cls-1" x1="171.37" y1="337.67" x2="69.55" y2="278.88"/><line class="cls-1" x1="180.92" y1="350.53" x2="180.92" y2="346.85"/><line class="cls-1" x1="92.62" y1="265.56" x2="157.85" y2="227.9"/><line class="cls-1" x1="69.55" y1="278.88" x2="70.34" y2="278.42"/><line class="cls-1" x1="60" y1="280.72" x2="60" y2="277.04"/><line class="cls-1" x1="346.37" y1="255" x2="346.37" y2="251.33"/><line class="cls-1" x1="333.64" y1="255" x2="333.64" y2="252.72"/><line class="cls-1" x1="268.41" y1="300.01" x2="268.41" y2="296.34"/><line class="cls-1" x1="356.88" y1="248.94" x2="356.88" y2="245.26"/><line class="cls-1" x1="268.73" y1="292.48" x2="268.41" y2="292.66"/><line class="cls-1" x1="272.34" y1="290.39" x2="271.76" y2="290.73"/><line class="cls-1" x1="277.71" y1="287.29" x2="275.67" y2="288.47"/><line class="cls-1" x1="287.26" y1="281.78" x2="285.21" y2="282.96"/><line class="cls-1" x1="296.8" y1="276.27" x2="294.76" y2="277.45"/><line class="cls-1" x1="306.92" y1="270.43" x2="304.31" y2="271.94"/><line class="cls-1" x1="310.52" y1="268.35" x2="309.95" y2="268.68"/><path class="cls-1" d="M255.59,288.12c-1.26.73-2-.23-1.71-1.54a3.31,3.31,0,0,1,1.71-2.54c1.26-.73,2,.23,1.71,1.54A3.31,3.31,0,0,1,255.59,288.12Z"/><path class="cls-1" d="M185.15,296.68c-1.57.91-2.7.26-2.7-1.56"/><path class="cls-1" d="M216.28,259.16v11c0,1.84,0,3.67,0,5.51a6,6,0,0,1-2.7,4.57"/><line class="cls-1" x1="341.6" y1="214.52" x2="346.37" y2="217.28"/><line class="cls-1" x1="356.88" y1="211.21" x2="352.84" y2="208.88"/><line class="cls-1" x1="342.49" y1="249.09" x2="346.37" y2="251.33"/><line class="cls-1" x1="171.37" y1="341.34" x2="180.92" y2="346.85"/><line class="cls-1" x1="180.92" y1="277.7" x2="180.92" y2="216.42"/><line class="cls-1" x1="346.37" y1="212.62" x2="346.37" y2="120.89"/><line class="cls-1" x1="356.88" y1="114.83" x2="356.88" y2="206.55"/><line class="cls-1" x1="346.37" y1="251.33" x2="346.37" y2="217.28"/><line class="cls-1" x1="356.88" y1="245.26" x2="346.37" y2="251.33"/><line class="cls-1" x1="356.88" y1="211.21" x2="356.88" y2="245.26"/><line class="cls-1" x1="346.37" y1="217.28" x2="356.88" y2="211.21"/><line class="cls-1" x1="180.92" y1="346.85" x2="180.92" y2="282.5"/><line class="cls-1" x1="268.41" y1="296.34" x2="180.92" y2="346.85"/><line class="cls-1" x1="180.92" y1="216.42" x2="268.41" y2="165.9"/><line class="cls-1" x1="171.37" y1="210.91" x2="180.92" y2="216.42"/><line class="cls-1" x1="171.37" y1="341.34" x2="171.37" y2="276.99"/><path class="cls-1" d="M333.63,121.24a7.07,7.07,0,0,0,3.12-4.78"/><line class="cls-1" x1="171.37" y1="272.19" x2="171.37" y2="210.91"/><path class="cls-1" d="M333.63,121.24q0-.18,0-.35"/><line class="cls-1" x1="346.37" y1="212.62" x2="341.6" y2="209.87"/><line class="cls-1" x1="356.88" y1="206.55" x2="346.37" y2="212.62"/><path class="cls-1" d="M199.66,288.3c0,3-.38,7.85,3.6,9.21a5.41,5.41,0,0,0,2.81.16c2.75-.49,4.72-2.12,7-3.42L231.5,283.6l36.91-21.31"/><line class="cls-1" x1="268.41" y1="262.3" x2="268.41" y2="296.34"/><line class="cls-1" x1="268.41" y1="262.29" x2="264.38" y2="259.96"/><line class="cls-1" x1="268.41" y1="165.9" x2="268.41" y2="257.63"/><line class="cls-1" x1="268.41" y1="257.63" x2="209.19" y2="291.82"/><line class="cls-1" x1="180.92" y1="277.7" x2="171.37" y2="272.19"/><line class="cls-1" x1="182.45" y1="276.91" x2="180.92" y2="277.7"/><line class="cls-1" x1="175.31" y1="274.46" x2="171.37" y2="276.99"/><line class="cls-1" x1="175.32" y1="277.4" x2="175.88" y2="277.04"/><line class="cls-1" x1="182.45" y1="281.51" x2="180.92" y2="282.5"/><line class="cls-1" x1="171.37" y1="276.99" x2="180.92" y2="282.5"/><line class="cls-1" x1="175.32" y1="277.4" x2="182.45" y2="281.51"/><line class="cls-1" x1="182.45" y1="295.12" x2="182.45" y2="281.51"/><path class="cls-1" d="M205.12,292.09c-1.86-1.29-1.43-4.47-1.43-6.12"/><path class="cls-1" d="M209.19,291.82c-1.23.71-2.24,1.17-3.7.49"/><path class="cls-1" d="M200.53,289.45a2.65,2.65,0,0,1-.87-.81"/><line class="cls-1" x1="341.6" y1="214.52" x2="345.63" y2="212.19"/><line class="cls-1" x1="341.6" y1="209.87" x2="341.6" y2="214.52"/><line class="cls-1" x1="340.01" y1="134.67" x2="340.01" y2="117.22"/><line class="cls-1" x1="340.01" y1="237.55" x2="340.01" y2="150.37"/><line class="cls-1" x1="333.64" y1="120.89" x2="266.82" y2="159.47"/><path class="cls-1" d="M340,117.23c.39,4.62-6.35,9.2-6.35,4"/><line class="cls-1" x1="346.37" y1="120.89" x2="356.88" y2="114.83"/><line class="cls-1" x1="346.37" y1="120.89" x2="340.01" y2="117.22"/><line class="cls-1" x1="340.01" y1="117.22" x2="339.98" y2="117.23"/><line class="cls-1" x1="339.56" y1="116.99" x2="339.98" y2="117.23"/><path class="cls-1" d="M182.45,276.91v-7.15a8.44,8.44,0,0,1,.44-3.51,5.21,5.21,0,0,1,2.25-2.7"/><path class="cls-1" d="M213.5,249.59a15.65,15.65,0,0,1-3,4.31"/><path class="cls-1" d="M214.9,244.45a12,12,0,0,1-.53,2.94"/><line class="cls-1" x1="215.23" y1="258.56" x2="216.28" y2="259.16"/><path class="cls-1" d="M216.28,259.16c3.36-2.52,6.67-8.35,5.55-12.83-.72-2.89-3.12-3.67-5.72-2.54a11.5,11.5,0,0,0-5.28,4.92"/><line class="cls-1" x1="210.83" y1="248.72" x2="185.15" y2="263.55"/><line class="cls-1" x1="202.83" y1="285.47" x2="203.7" y2="285.97"/><line class="cls-1" x1="199.66" y1="288.3" x2="198.8" y2="287.8"/><line class="cls-1" x1="185.15" y1="296.68" x2="199.66" y2="288.3"/><line class="cls-1" x1="203.7" y1="285.97" x2="213.58" y2="280.26"/><path class="cls-1" d="M144.22,224.4c-1.62.93-2.51-.3-2.19-2a4.25,4.25,0,0,1,2.19-3.25c1.62-.93,2.51.3,2.19,2A4.25,4.25,0,0,1,144.22,224.4Z"/><line class="cls-1" x1="60" y1="212.69" x2="69.55" y2="218.2"/><line class="cls-1" x1="69.55" y1="282.55" x2="69.55" y2="218.2"/><line class="cls-1" x1="60" y1="277.04" x2="69.55" y2="282.55"/><line class="cls-1" x1="69.55" y1="213.4" x2="60" y2="207.89"/><line class="cls-1" x1="69.55" y1="213.4" x2="69.55" y2="152.12"/><line class="cls-1" x1="60" y1="277.04" x2="60" y2="212.69"/><line class="cls-1" x1="60" y1="207.89" x2="60" y2="146.61"/><line class="cls-1" x1="69.55" y1="213.4" x2="70.34" y2="212.99"/><line class="cls-1" x1="70.34" y1="217.69" x2="69.55" y2="218.2"/><line class="cls-1" x1="63.94" y1="210.16" x2="60" y2="212.69"/><line class="cls-1" x1="60" y1="146.61" x2="69.55" y2="152.12"/><path class="cls-1" d="M211.75,247.45c.25-.48.58-.17.86.12a1.35,1.35,0,0,1,.4.92"/><path class="cls-1" d="M213,248.5c0,.28,0,.48-.38.47"/><path class="cls-1" d="M212.28,246.76a2,2,0,0,1,1.21,2"/><path class="cls-1" d="M213.49,248.77c0,.9-.68,1-1.34.53"/><path class="cls-1" d="M202.42,268.76c-.64.37-1-.12-.87-.78a1.69,1.69,0,0,1,.87-1.3C203.63,266,203.41,268.12,202.42,268.76Z"/><path class="cls-1" d="M185.45,288.81c-.64.37-1-.12-.87-.78a1.69,1.69,0,0,1,.87-1.3C186.65,286,186.44,288.16,185.45,288.81Z"/><path class="cls-1" d="M185.45,267.65c-.64.37-1-.12-.87-.78a1.69,1.69,0,0,1,.87-1.3C186.65,264.88,186.44,267,185.45,267.65Z"/><path class="cls-1" d="M214.84,256.79l-2.49-.45c-.6-.11-1.91-.11-2.11-1a11.3,11.3,0,0,1,0-2.53v-2.53"/><path class="cls-1" d="M183.29,276.65l4.12-2,2.06-1c.66-.32,1.76-1.07,1.76.11"/><path class="cls-1" d="M191.23,273.74a2.39,2.39,0,0,1-1.15,2.28l-2.26,1.51-4.53,3"/><line class="cls-1" x1="210.2" y1="254.03" x2="213.98" y2="256.22"/><line class="cls-1" x1="182.04" y1="280.06" x2="177.13" y2="277.23"/><line class="cls-1" x1="178.2" y1="276.13" x2="177.13" y2="276.85"/><path class="cls-1" d="M185.59,286.66a1.55,1.55,0,0,1-.89,1.72"/><path class="cls-1" d="M184.69,288.37l-.14.07"/><path class="cls-1" d="M185.59,265.5a1.55,1.55,0,0,1-.89,1.72"/><path class="cls-1" d="M184.69,267.22l-.14.07"/><path class="cls-1" d="M202.56,266.61a1.55,1.55,0,0,1-.89,1.72"/><path class="cls-1" d="M201.67,268.33l-.14.07"/><path class="cls-1" d="M190.47,273.15a1.06,1.06,0,0,1,0,.15"/><path class="cls-1" d="M190.48,273.3a2.37,2.37,0,0,1-1.13,2.26l-2.24,1.49-4.48,3"/><line class="cls-1" x1="213.98" y1="256.34" x2="210.38" y2="255.68"/><path class="cls-1" d="M182.64,280a.55.55,0,0,1-.6,0"/><path class="cls-1" d="M214,256.22l.09.06s0,0,0,0l0,0H214"/><path class="cls-1" d="M177.13,277.23c-.21-.09-.21-.28,0-.37"/><line class="cls-1" x1="177.45" y1="275.7" x2="176.28" y2="276.48"/><line class="cls-1" x1="181.39" y1="280.62" x2="176.28" y2="277.67"/><line class="cls-1" x1="214.84" y1="256.41" x2="210.2" y2="253.74"/><path class="cls-1" d="M209.88,249.27a1.88,1.88,0,0,1,.32,1"/><path class="cls-1" d="M183.29,276.65a1.89,1.89,0,0,1-.84.17"/><path class="cls-1" d="M181.39,280.62a1.75,1.75,0,0,0,1.9-.08"/><path class="cls-1" d="M214.84,256.79l.24,0h.08l.05,0h0a.06.06,0,0,0,0-.06.26.26,0,0,0-.07-.08,1.84,1.84,0,0,0-.32-.22"/><path class="cls-1" d="M176.28,276.48l-.17.13a.86.86,0,0,0-.13.15.61.61,0,0,0-.1.33.57.57,0,0,0,.1.32.9.9,0,0,0,.29.26"/><path class="cls-1" d="M183.53,276.54a7.45,7.45,0,0,0,.87,2.33"/><path class="cls-1" d="M187.48,274.61a1,1,0,0,1-.62.3"/><line class="cls-1" x1="184.83" y1="266.2" x2="184.98" y2="267"/><path class="cls-1" d="M181.8,277.25a4.93,4.93,0,0,0,2,2.05"/><path class="cls-1" d="M272.32,277.1l.65-.38.33-.19c.1-.06.4-.16.21-.22"/><path class="cls-1" d="M272.56,280.44c-.23.41.29.38.6.37l1-.05,1-.05c.41,0,.85-.31.33-.42a12,12,0,0,0-2,.09c-.26,0-.18-.74-.25-.87a1.8,1.8,0,0,0-.71-.67"/><path class="cls-1" d="M272.62,280.31v0"/><path class="cls-1" d="M272.66,280a.75.75,0,0,1,0,.16"/><path class="cls-1" d="M268.41,281.31a4,4,0,0,0,1.65.44c.29,0,.56-.11.86,0s0,.67-.06.82c-.05.33,0,.54.41.5s.3-.42.34-.69l.14-.85c.07-.45-.36-.3-.65-.25"/><line class="cls-1" x1="272.39" y1="275.67" x2="272.17" y2="275.8"/><path class="cls-1" d="M272.47,291.64c0,.49.47.2.75.19l.85,0,.85,0,.42,0c.16,0,.36,0,.32-.21"/><path class="cls-1" d="M271.76,290a1.7,1.7,0,0,1,.71.51"/><path class="cls-1" d="M270.81,293.89c-.05.34.27.24.49.2s.24-.26.27-.46a7.31,7.31,0,0,0,.19-1.17"/><path class="cls-1" d="M268.41,292.33a4.06,4.06,0,0,0,2.4.43"/><path class="cls-1" d="M282.21,271.39l.48-.28c.14-.08.67-.21.36-.31"/><path class="cls-1" d="M282.21,274.53c0,.27-.4.73.11.78a7,7,0,0,0,1,0l1-.05c.22,0,.93.13.86-.27s-.75-.15-.94-.14l-1,.05c-.47,0-.3-.43-.4-.68a1.53,1.53,0,0,0-.65-.75"/><path class="cls-1" d="M273.55,276.33c.23.06.32-.12.46-.2l.43-.25.85-.49.84-.49.42-.24c.15-.09.41-.33.44,0,.14,1.42,2.27,1.69,3.31,1.6.51,0,.15.48.11.76s.08.71.51.54c.22-.08.16-.26.19-.42l.07-.45c.05-.32.47-.77-.09-.92-.35-.1-.64.07-1,.09a3.69,3.69,0,0,1-1-.09c-.73-.17-1.37-.26-1.41-1.21"/><line class="cls-1" x1="272.39" y1="275.67" x2="273.51" y2="276.32"/><line class="cls-1" x1="277.71" y1="272.6" x2="272.39" y2="275.67"/><path class="cls-1" d="M282,286.12c0,.49.47.2.75.19l.85,0,.85,0,.42,0c.16,0,.36,0,.32-.21"/><path class="cls-1" d="M280.36,288.38c-.05.34.27.24.49.2s.24-.26.27-.46a7.3,7.3,0,0,0,.19-1.17"/><path class="cls-1" d="M275.67,286.2l.61-.35c.2-.12.32-.36.62-.29s.11.19.14.29a1.19,1.19,0,0,0,.15.31,1.77,1.77,0,0,0,.49.49,3.72,3.72,0,0,0,2.68.61"/><path class="cls-1" d="M291.76,265.88l.48-.28c.14-.08.67-.21.36-.31"/><path class="cls-1" d="M291.76,269c0,.27-.4.73.11.78a7,7,0,0,0,1,0l1-.05c.22,0,.93.13.86-.27s-.75-.15-.94-.14l-1,.05c-.47,0-.3-.43-.4-.68a1.53,1.53,0,0,0-.65-.75"/><path class="cls-1" d="M283.09,270.82c.23.06.32-.12.46-.2l.43-.25.85-.49.84-.49.42-.24c.15-.09.41-.33.44,0,.14,1.42,2.27,1.69,3.31,1.6.51,0,.15.48.11.76s.08.71.51.54c.22-.08.16-.26.19-.42l.07-.45c.05-.32.47-.77-.09-.92-.35-.1-.64.07-1,.09a3.69,3.69,0,0,1-1-.09c-.73-.17-1.37-.26-1.41-1.21"/><line class="cls-1" x1="282.21" y1="270.32" x2="283.05" y2="270.81"/><line class="cls-1" x1="287.26" y1="267.09" x2="282.21" y2="270"/><path class="cls-1" d="M291.56,280.61c0,.49.47.2.75.19l.85,0,.85,0,.42,0c.16,0,.36,0,.32-.21"/><path class="cls-1" d="M289.9,282.87c-.05.34.27.24.49.2s.24-.26.27-.46a7.31,7.31,0,0,0,.19-1.17"/><path class="cls-1" d="M285.21,280.68l.61-.35c.2-.12.32-.36.62-.29s.11.19.14.29a1.19,1.19,0,0,0,.15.31,1.77,1.77,0,0,0,.49.49,3.72,3.72,0,0,0,2.68.61"/><path class="cls-1" d="M301.3,260.37l.48-.28c.14-.08.67-.21.36-.31"/><path class="cls-1" d="M301.3,263.51c0,.27-.4.73.11.78a7,7,0,0,0,1,0l1-.05c.22,0,.93.13.86-.27s-.75-.15-.94-.14l-1,.05c-.47,0-.3-.43-.4-.68a1.53,1.53,0,0,0-.65-.75"/><path class="cls-1" d="M292.64,265.31c.23.06.32-.12.46-.2l.43-.25.85-.49.84-.49.42-.24c.15-.09.41-.33.44,0,.14,1.42,2.27,1.69,3.31,1.6.51,0,.15.48.11.76s.08.71.51.54c.22-.08.16-.26.19-.42l.07-.45c.05-.32.47-.77-.09-.92-.35-.1-.64.07-1,.09a3.69,3.69,0,0,1-1-.09c-.73-.17-1.37-.26-1.41-1.21"/><line class="cls-1" x1="291.76" y1="264.81" x2="292.6" y2="265.29"/><line class="cls-1" x1="296.8" y1="261.57" x2="291.76" y2="264.49"/><path class="cls-1" d="M301.11,275.1c0,.49.47.2.75.19l.85,0,.85,0,.42,0c.16,0,.36,0,.32-.21"/><path class="cls-1" d="M299.45,277.36c-.05.34.27.24.49.2s.24-.26.27-.46a7.3,7.3,0,0,0,.19-1.17"/><path class="cls-1" d="M294.76,275.17l.61-.35c.2-.12.32-.36.62-.29s.11.19.14.29a1.18,1.18,0,0,0,.15.31,1.77,1.77,0,0,0,.49.49,3.72,3.72,0,0,0,2.68.61"/><path class="cls-1" d="M302.19,259.8c.25.07.35-.14.52-.23l.48-.28,1-.55,1-.55c.17-.1.38-.45.53-.13a4.28,4.28,0,0,0,.17.5,2.49,2.49,0,0,0,2.15,1.11,4.59,4.59,0,0,0,.63,0h.31c.1,0,.26-.11.28.07a3.1,3.1,0,0,1-.12.73c-.07.45.27.79.62.43s.12-.57.17-.86c.25-1.52-.66-.72-1.57-.8-2.16-.19-2.71-2-.51-2.49a3,3,0,0,1,2.52.34,1,1,0,0,1,.56.74c0,.17-.35.69-.08.84.42.24.78,0,1.17,0l1.18-.06c.3,0,1.07,0,.71-.34-.14-.15-1-.06-1.12-.05l-.59,0c-.19,0-.57.3-.55-.07a1.31,1.31,0,0,0-.2-.89,2.62,2.62,0,0,0-2.05-1c-.22,0-.43.07-.65-.06s.21-.24.35-.32l.93-.54.93-.54.47-.27c.15-.08.68-.21.37-.32"/><line class="cls-1" x1="301.3" y1="259.3" x2="302.15" y2="259.78"/><line class="cls-1" x1="310.57" y1="253.62" x2="301.3" y2="258.98"/><path class="cls-1" d="M310.66,269.59c0,.49.47.2.75.19l.85,0,.85,0,.42,0c.16,0,.36,0,.32-.21"/><path class="cls-1" d="M309.95,268a1.7,1.7,0,0,1,.71.51"/><path class="cls-1" d="M309,271.84c-.05.34.27.24.49.2s.24-.26.27-.46a7.31,7.31,0,0,0,.19-1.17"/><path class="cls-1" d="M304.31,269.66l.61-.35c.2-.12.32-.36.62-.29s.11.19.14.29a1.19,1.19,0,0,0,.15.31,1.77,1.77,0,0,0,.49.49,3.72,3.72,0,0,0,2.68.61"/><path class="cls-1" d="M311.87,254.27l1.92-1.11,1-.55c.47-.27.48.3.66.55a2.73,2.73,0,0,0,2.25,1c.24,0,1.11-.28,1,.19l-.12.73c-.08.47.61.71.69.24l.14-.85c.05-.33.3-.79-.24-.82s-.95.14-1.44.09c-2.17-.24-2.55-2-.35-2.49a2.91,2.91,0,0,1,2.49.38,1,1,0,0,1,.53.75c0,.28-.51.62,0,.83s.78,0,1.17,0l1.17-.06c.29,0,1-.05.64-.36s-.75-.05-1.13,0l-.59,0c-.18,0-.59.25-.51-.09a1,1,0,0,0-.22-.89,2.66,2.66,0,0,0-2.06-1c-.22,0-.43.1-.65-.07s.23-.24.37-.32l.93-.54.93-.54.47-.27c.15-.08.68-.21.37-.32"/><path class="cls-1" d="M311.73,254.29a.18.18,0,0,0,.14,0"/><line class="cls-1" x1="310.57" y1="253.62" x2="311.69" y2="254.27"/><line class="cls-1" x1="320.12" y1="248.11" x2="310.57" y2="253.62"/><path class="cls-1" d="M320.2,264.08c0,.49.47.2.75.19l.85,0,.85,0,.42,0c.16,0,.36,0,.32-.21"/><path class="cls-1" d="M319.49,262.47a1.7,1.7,0,0,1,.71.51"/><path class="cls-1" d="M318.54,266.33c-.05.34.27.24.49.2s.24-.26.27-.46a7.31,7.31,0,0,0,.19-1.17"/><path class="cls-1" d="M313.85,264.15l.61-.35c.2-.12.32-.36.62-.29s.11.19.14.29a1.19,1.19,0,0,0,.15.31,1.77,1.77,0,0,0,.49.49,3.72,3.72,0,0,0,2.68.61"/><path class="cls-1" d="M328.09,249.81c0,.3.68.28.72,0l.11-.66c.13-.81.16-1-.73-.89s-2.73-.13-2.75-1.26,1.93-1.38,2.72-1.28a2,2,0,0,1,1.6.77.76.76,0,0,1,.16.64c0,.23-.33.56.07.64a6.85,6.85,0,0,0,1.77-.08c.41,0,1.7-.21,1-.44a4.48,4.48,0,0,0-1.78.06c-.14,0-.4.12-.35-.12a1,1,0,0,0,0-.34,1.18,1.18,0,0,0-.34-.66,2.77,2.77,0,0,0-1.48-.78,4,4,0,0,0-.85-.13c-.12,0-.47-.07-.27-.14a2,2,0,0,0,.3-.17l1.43-.82.71-.41.36-.21c.11-.06.49-.18.26-.25"/><path class="cls-1" d="M321.28,248.78c.26.07.36-.14.53-.24l.49-.28,1-.58,1-.58c.48-.28.48.34.67.58a2.73,2.73,0,0,0,2.05,1c.39.05.76-.11,1.16,0s0,.37,0,.56l-.09.55"/><line class="cls-1" x1="320.12" y1="248.11" x2="321.24" y2="248.76"/><line class="cls-1" x1="329.66" y1="242.6" x2="320.12" y2="248.11"/><path class="cls-1" d="M329.75,258.57c0,.49.47.2.75.19l.85,0,.85,0,.42,0c.16,0,.36,0,.32-.21"/><path class="cls-1" d="M329,257a1.7,1.7,0,0,1,.71.51"/><path class="cls-1" d="M328.09,260.82c-.05.34.27.24.49.2s.24-.26.27-.46a7.29,7.29,0,0,0,.19-1.17"/><path class="cls-1" d="M323.4,258.64l.61-.35c.2-.12.32-.36.62-.29s.11.19.14.29a1.19,1.19,0,0,0,.15.31,1.77,1.77,0,0,0,.49.49,3.72,3.72,0,0,0,2.68.61"/><path class="cls-1" d="M330.82,243.26c.26.07.36-.14.53-.24l.5-.29,1-.57,1-.57c.48-.28.5.32.69.57a2.83,2.83,0,0,0,2.43,1c.32,0,.9-.22.81.34l-.13.78c-.06.36.28.25.52.19s.21-.21.24-.38l.14-.85c.1-.64,0-.65-.63-.54a3.65,3.65,0,0,1-1.47,0c-2.3-.52-1.64-2.38.61-2.5a2.22,2.22,0,0,1,2.28.78.73.73,0,0,1,.11.82c-.23.54.39.46.77.44l1.22-.07c.16,0,1,.08,1.08-.2s-.13-.25-.31-.26-.4,0-.6,0l-1.22.07c-.31,0-.22-.72-.3-.86a1.89,1.89,0,0,0-.89-.75,4,4,0,0,0-1.19-.37,5.55,5.55,0,0,0-.62,0c-.24,0,.07-.23.19-.3l2-1.16c.28-.16,1.19-.32.67-.63l-1-.58"/><line class="cls-1" x1="329.66" y1="242.6" x2="330.78" y2="243.25"/><line class="cls-1" x1="339.21" y1="237.09" x2="329.66" y2="242.6"/><path class="cls-1" d="M339.29,253.06c0,.49.47.2.75.19l.85,0,.85,0,.42,0c.16,0,.36,0,.32-.21"/><path class="cls-1" d="M338.59,251.45a1.7,1.7,0,0,1,.71.51"/><path class="cls-1" d="M337.63,255.31c-.05.34.27.24.49.2s.24-.26.27-.46a7.31,7.31,0,0,0,.19-1.17"/><path class="cls-1" d="M332.94,253.13l.61-.35c.2-.12.32-.36.62-.29s.11.19.14.29a1.19,1.19,0,0,0,.15.31,1.77,1.77,0,0,0,.49.49,3.72,3.72,0,0,0,2.68.61"/><path class="cls-1" d="M330.81,140.38c.27.08.36-.14.54-.24l.5-.29,1-.57,1-.57c.48-.28.5.31.69.56a2.82,2.82,0,0,0,2.42,1c.32,0,.91-.23.82.33l-.13.78c-.06.35.27.25.51.2s.22-.21.25-.38l.14-.85c.1-.64,0-.66-.62-.55a3.65,3.65,0,0,1-1.47,0c-2.3-.51-1.66-2.38.6-2.51a2.22,2.22,0,0,1,2.28.78.73.73,0,0,1,.12.82c-.23.54.38.46.76.44l1.22-.07c.16,0,1,.07,1.09-.2s-.12-.25-.31-.26-.4,0-.6,0l-1.22.07c-.31,0-.22-.72-.3-.86a1.88,1.88,0,0,0-.89-.76,4,4,0,0,0-1.19-.37,5.07,5.07,0,0,0-.62,0c-.24,0,.07-.23.19-.3l2-1.16c.28-.16,1.2-.32.67-.63l-1-.58"/><line class="cls-1" x1="339.21" y1="134.21" x2="329.66" y2="139.72"/><path class="cls-1" d="M339.29,150.18c0,.49.47.2.75.19l.85,0,.85,0,.42,0c.16,0,.36,0,.32-.21"/><path class="cls-1" d="M338.59,148.57a1.7,1.7,0,0,1,.71.51"/><path class="cls-1" d="M337.63,152.43c-.05.34.27.24.49.2s.24-.26.27-.46a7.31,7.31,0,0,0,.19-1.17"/><path class="cls-1" d="M332.94,150.25l.61-.35c.2-.12.32-.36.62-.29s.11.19.14.29a1.19,1.19,0,0,0,.15.31,1.77,1.77,0,0,0,.49.49,3.72,3.72,0,0,0,2.68.61"/><path class="cls-1" d="M321.27,145.89c.27.08.36-.14.54-.24l.5-.29,1-.57,1-.57c.48-.28.5.31.69.56a2.82,2.82,0,0,0,2.42,1c.32,0,.91-.23.82.33l-.13.78c-.06.35.27.25.51.2s.22-.21.25-.38l.14-.85c.1-.64,0-.66-.62-.55a3.65,3.65,0,0,1-1.47,0c-2.3-.51-1.66-2.38.6-2.51a2.23,2.23,0,0,1,2.28.78.73.73,0,0,1,.12.82c-.23.54.38.46.76.44l1.22-.07c.16,0,1,.07,1.09-.2s-.12-.25-.31-.26-.4,0-.6,0l-1.22.07c-.31,0-.22-.72-.3-.86a1.88,1.88,0,0,0-.89-.76,4,4,0,0,0-1.19-.37,5.12,5.12,0,0,0-.62,0c-.24,0,.07-.23.19-.3l2-1.16c.28-.16,1.2-.32.67-.63l-1-.58"/><line class="cls-1" x1="329.66" y1="139.72" x2="320.12" y2="145.23"/><path class="cls-1" d="M329.75,155.69c0,.49.47.2.75.19l.85,0,.85,0,.42,0c.16,0,.36,0,.32-.21"/><path class="cls-1" d="M329,154.08a1.7,1.7,0,0,1,.71.51"/><path class="cls-1" d="M328.09,157.94c-.05.34.27.24.49.2s.24-.26.27-.46a7.29,7.29,0,0,0,.19-1.17"/><path class="cls-1" d="M323.4,155.76l.61-.35c.2-.12.32-.36.62-.29s.11.19.14.29a1.19,1.19,0,0,0,.15.31,1.77,1.77,0,0,0,.49.49,3.72,3.72,0,0,0,2.68.61"/><path class="cls-1" d="M311.72,151.41c.27.08.36-.14.54-.24l.5-.29,1-.57,1-.57c.48-.28.5.31.69.56a2.82,2.82,0,0,0,2.42,1c.32,0,.91-.23.82.33l-.13.78c-.06.35.27.25.51.2s.22-.21.25-.38l.14-.85c.1-.64,0-.66-.62-.55a3.65,3.65,0,0,1-1.47,0c-2.3-.51-1.66-2.38.6-2.51a2.23,2.23,0,0,1,2.28.78.73.73,0,0,1,.12.82c-.23.54.38.46.76.44l1.22-.07c.16,0,1,.07,1.09-.2s-.12-.25-.31-.26-.4,0-.6,0l-1.22.07c-.31,0-.22-.72-.3-.86a1.88,1.88,0,0,0-.89-.76,4,4,0,0,0-1.19-.37,5.07,5.07,0,0,0-.62,0c-.24,0,.07-.23.19-.3l2-1.16c.28-.16,1.2-.32.67-.63l-1-.58"/><line class="cls-1" x1="320.12" y1="145.23" x2="310.57" y2="150.75"/><path class="cls-1" d="M320.2,161.2c0,.49.47.2.75.19l.85,0,.85,0,.42,0c.16,0,.36,0,.32-.21"/><path class="cls-1" d="M319.49,159.59a1.7,1.7,0,0,1,.71.51"/><path class="cls-1" d="M318.54,163.45c-.05.34.27.24.49.2s.24-.26.27-.46a7.31,7.31,0,0,0,.19-1.17"/><path class="cls-1" d="M313.85,161.27l.61-.35c.2-.12.32-.36.62-.29s.11.19.14.29a1.19,1.19,0,0,0,.15.31,1.77,1.77,0,0,0,.49.49,3.72,3.72,0,0,0,2.68.61"/><path class="cls-1" d="M302.18,156.92c.27.08.36-.14.54-.24l.5-.29,1-.57,1-.57c.48-.28.5.31.69.56a2.82,2.82,0,0,0,2.42,1c.32,0,.91-.23.82.33l-.13.78c-.06.35.27.25.51.2s.22-.21.25-.38l.14-.85c.1-.64,0-.66-.62-.55a3.65,3.65,0,0,1-1.47,0c-2.3-.51-1.66-2.38.6-2.51a2.22,2.22,0,0,1,2.28.78.73.73,0,0,1,.12.82c-.23.54.38.46.76.44l1.22-.07c.16,0,1,.07,1.09-.2s-.12-.25-.31-.26-.4,0-.6,0l-1.22.07c-.31,0-.22-.72-.3-.86a1.88,1.88,0,0,0-.89-.76,4,4,0,0,0-1.19-.37,5.11,5.11,0,0,0-.62,0c-.24,0,.07-.23.19-.3l2-1.16c.28-.16,1.2-.32.67-.63l-1-.58"/><line class="cls-1" x1="310.57" y1="150.75" x2="301.03" y2="156.26"/><path class="cls-1" d="M310.66,166.71c0,.49.47.2.75.19l.85,0,.85,0,.42,0c.16,0,.36,0,.32-.21"/><path class="cls-1" d="M309.95,165.1a1.7,1.7,0,0,1,.71.51"/><path class="cls-1" d="M309,169c-.05.34.27.24.49.2s.24-.26.27-.46a7.31,7.31,0,0,0,.19-1.17"/><path class="cls-1" d="M304.31,166.78l.61-.35c.2-.12.32-.36.62-.29s.11.19.14.29a1.19,1.19,0,0,0,.15.31,1.77,1.77,0,0,0,.49.49,3.72,3.72,0,0,0,2.68.61"/><path class="cls-1" d="M301.2,161c-.44.79,1,.34,1.51.32s2.4.13,1.51-.42c-.33-.21-.62,0-.93,0l-1,.05c-.42,0-.28-.37-.36-.61a1.42,1.42,0,0,0-.58-.75,3.42,3.42,0,0,0-1.76-.64c-.18,0-.35,0-.53,0s.12-.21.24-.28l.76-.44,1.64-.95a4,4,0,0,1,.41-.23c.26-.11-.19-.21-.32-.28l-.81-.47"/><path class="cls-1" d="M301.26,160.9v0"/><path class="cls-1" d="M301.29,160.5a.74.74,0,0,1,0,.21"/><path class="cls-1" d="M296.81,160.73c-.24-1.76,4.12-2,4.48-.26"/><path class="cls-1" d="M292.63,162.43c.36.11.48-.2.7-.33l.66-.38,1.35-.78.33-.19c.12-.07.21-.23.38-.1s.13.48.3.69a2.42,2.42,0,0,0,1.31.8,4.53,4.53,0,0,0,1.53.21c.76,0,.22.75.26,1.14s.68.24.73,0l.1-.64.1-.61c.07-.45-.32-.39-.64-.33"/><line class="cls-1" x1="301.03" y1="156.26" x2="291.48" y2="161.77"/><path class="cls-1" d="M301.11,172.22c0,.49.47.2.75.19l.85,0,.85,0,.42,0c.16,0,.36,0,.32-.21"/><path class="cls-1" d="M299.45,174.48c-.05.34.27.24.49.2s.24-.26.27-.46a7.3,7.3,0,0,0,.19-1.17"/><path class="cls-1" d="M294.76,172.29l.61-.35c.2-.12.32-.36.62-.29s.11.19.14.29a1.18,1.18,0,0,0,.15.31,1.77,1.77,0,0,0,.49.49,3.72,3.72,0,0,0,2.68.61"/><path class="cls-1" d="M291.65,166.54c-.44.79,1,.34,1.51.32s2.4.13,1.51-.42c-.33-.21-.62,0-.93,0l-1,.05c-.42,0-.28-.37-.36-.61a1.42,1.42,0,0,0-.58-.75,3.42,3.42,0,0,0-1.76-.64c-.18,0-.35,0-.53,0s.12-.21.24-.28l.76-.44,1.64-.95a3.94,3.94,0,0,1,.4-.23c.26-.11-.19-.21-.32-.28l-.81-.47"/><path class="cls-1" d="M291.71,166.41v0"/><path class="cls-1" d="M291.75,166a.74.74,0,0,1,0,.21"/><path class="cls-1" d="M287.26,166.24c-.24-1.76,4.12-2,4.48-.26"/><path class="cls-1" d="M283.08,167.94c.36.11.48-.2.7-.33l.66-.38,1.35-.78.33-.19c.12-.07.21-.23.38-.1s.13.48.3.69a2.42,2.42,0,0,0,1.31.8,4.53,4.53,0,0,0,1.53.21c.76,0,.22.75.26,1.14s.68.24.73,0l.1-.64.1-.61c.07-.45-.32-.39-.64-.33"/><line class="cls-1" x1="291.48" y1="161.77" x2="281.93" y2="167.28"/><path class="cls-1" d="M291.56,177.73c0,.49.47.2.75.19l.85,0,.85,0,.42,0c.16,0,.36,0,.32-.21"/><path class="cls-1" d="M289.9,180c-.05.34.27.24.49.2s.24-.26.27-.46a7.31,7.31,0,0,0,.19-1.17"/><path class="cls-1" d="M285.21,177.81l.61-.35c.2-.12.32-.36.62-.29s.11.19.14.29a1.18,1.18,0,0,0,.15.31,1.77,1.77,0,0,0,.49.49,3.72,3.72,0,0,0,2.68.61"/><path class="cls-1" d="M282,170.42a4.13,4.13,0,0,0-1.73-.48c-.79,0,.49-.61.85-.82l1.57-.91c.13-.07.39,0,.37-.25s-.24-.17-.37-.24l-.78-.45"/><path class="cls-1" d="M282.11,172c-.45.81,1,.34,1.53.32s2.37,0,1.45-.44c-.34-.15-.63,0-.95,0l-1,.05c-.48,0-.23-.46-.33-.7a1.54,1.54,0,0,0-.62-.71"/><path class="cls-1" d="M282.16,171.92v0"/><path class="cls-1" d="M282.2,171.52a.74.74,0,0,1,0,.21"/><path class="cls-1" d="M277.72,171.75c-.24-1.76,4.12-2,4.48-.26"/><path class="cls-1" d="M278.3,173.07a4.68,4.68,0,0,0,1.59.3c.23,0,.68-.22.62.2l-.13.8c-.07.4.27.42.58.27s.18-.49.22-.75c.1-.64.37-1.17-.53-1"/><path class="cls-1" d="M273.54,173.45c.32.1.43-.17.63-.29l.61-.36,1.23-.71.62-.36c.26-.15.35.05.43.27a1.68,1.68,0,0,0,1,1"/><line class="cls-1" x1="281.93" y1="167.28" x2="272.39" y2="172.79"/><path class="cls-1" d="M282,183.25c0,.49.47.2.75.19l.85,0,.85,0,.42,0c.16,0,.36,0,.32-.21"/><path class="cls-1" d="M280.36,185.5c-.05.34.27.24.49.2s.24-.26.27-.46a7.3,7.3,0,0,0,.19-1.17"/><path class="cls-1" d="M275.67,183.32l.61-.35c.2-.12.32-.36.62-.29s.11.19.14.29a1.19,1.19,0,0,0,.15.31,1.77,1.77,0,0,0,.49.49,3.72,3.72,0,0,0,2.68.61"/><path class="cls-1" d="M268.41,176.57a2.45,2.45,0,0,1,2.39-.69c.66.07,2,.48,1.85,1.4a1.37,1.37,0,0,1-.17.39c-.18.36.3.27.54.26l1.42-.08c.25,0,1.22.24,1.22-.24s-.88-.2-1.15-.19-1.18.33-1.14-.2a1.13,1.13,0,0,0-.51-1,3,3,0,0,0-1.14-.58c-.42-.13-.85,0-1.27-.19s.24-.28.4-.37l.55-.32,1.1-.63.55-.32c.17-.1.74-.18.42-.37l-1.1-.64"/><path class="cls-1" d="M268.41,178.43a4.07,4.07,0,0,0,2.37.44c.56,0,.09.76,0,1-.08.5.67.34.74-.13a8,8,0,0,0,.19-1.2c0-.34-.27-.26-.51-.21a3.63,3.63,0,0,1-.59.09,2.38,2.38,0,0,1-2.26-.7"/><line class="cls-1" x1="272.39" y1="172.79" x2="268.41" y2="175.09"/><path class="cls-1" d="M272.47,188.76c0,.49.47.2.75.19l.85,0,.85,0,.42,0c.16,0,.36,0,.32-.21"/><path class="cls-1" d="M271.76,187.15a1.7,1.7,0,0,1,.71.51"/><path class="cls-1" d="M270.81,191c-.05.34.27.24.49.2s.24-.26.27-.46a7.31,7.31,0,0,0,.19-1.17"/><path class="cls-1" d="M268.41,189.45a4.07,4.07,0,0,0,2.4.43"/><path class="cls-1" d="M271.35,281.22A2.65,2.65,0,0,0,272,281"/><path class="cls-1" d="M268.41,280.63a3.15,3.15,0,0,0,2.69.65"/><path class="cls-1" d="M272.62,280.31a.78.78,0,0,0,0-.19"/><path class="cls-1" d="M272.56,280.44l0-.1"/><path class="cls-1" d="M272,281a1.55,1.55,0,0,0,.46-.38"/><path class="cls-1" d="M268.41,273.62a3,3,0,0,0,2.7-.21"/><path class="cls-1" d="M271.12,273.41c.38-.22.66-.41.66-.92"/><line class="cls-1" x1="157.85" y1="321.59" x2="157.85" y2="216.88"/><line class="cls-1" x1="170.57" y1="224.23" x2="170.57" y2="328.94"/><line class="cls-1" x1="164.21" y1="220.55" x2="164.21" y2="325.27"/><line class="cls-1" x1="170.57" y1="224.23" x2="83.07" y2="173.71"/><line class="cls-1" x1="170.57" y1="216.88" x2="170.57" y2="224.23"/><line class="cls-1" x1="70.34" y1="159.01" x2="70.34" y2="166.36"/><line class="cls-1" x1="171.37" y1="223.77" x2="170.57" y2="224.23"/><line class="cls-1" x1="171.37" y1="216.42" x2="170.57" y2="216.88"/><line class="cls-1" x1="70.34" y1="159.01" x2="71.14" y2="158.55"/><line class="cls-1" x1="170.57" y1="216.88" x2="70.34" y2="159.01"/><line class="cls-1" x1="86.19" y1="276.62" x2="157.85" y2="317.99"/><line class="cls-1" x1="157.85" y1="314.17" x2="89.5" y2="274.71"/><line class="cls-1" x1="157.85" y1="316.93" x2="86.19" y2="275.56"/><line class="cls-1" x1="83.07" y1="278.42" x2="170.57" y2="328.94"/><line class="cls-1" x1="70.34" y1="278.42" x2="70.34" y2="271.07"/><line class="cls-1" x1="170.57" y1="328.94" x2="171.37" y2="328.48"/><line class="cls-1" x1="170.57" y1="336.29" x2="170.57" y2="328.94"/><line class="cls-1" x1="157.85" y1="310.57" x2="92.62" y2="272.91"/><line class="cls-1" x1="170.57" y1="336.29" x2="171.37" y2="335.83"/><line class="cls-1" x1="70.34" y1="278.42" x2="170.57" y2="336.29"/><line class="cls-1" x1="70.34" y1="166.36" x2="76.71" y2="170.03"/><line class="cls-1" x1="70.34" y1="271.07" x2="76.71" y2="274.75"/><line class="cls-1" x1="70.34" y1="166.36" x2="70.34" y2="271.07"/><line class="cls-1" x1="87.11" y1="273.33" x2="87.11" y2="176.04"/><line class="cls-1" x1="83.07" y1="278.42" x2="86.19" y2="276.62"/><line class="cls-1" x1="76.71" y1="274.75" x2="83.07" y2="278.42"/><line class="cls-1" x1="89.5" y1="274.71" x2="92.62" y2="272.91"/><line class="cls-1" x1="89.5" y1="274.71" x2="87.11" y2="273.33"/><line class="cls-1" x1="87.11" y1="273.33" x2="86.19" y2="273.86"/><line class="cls-1" x1="89.5" y1="274.71" x2="89.5" y2="177.42"/><line class="cls-1" x1="86.19" y1="175.51" x2="86.19" y2="276.62"/><line class="cls-1" x1="83.07" y1="173.71" x2="83.07" y2="278.42"/><line class="cls-1" x1="76.71" y1="170.03" x2="83.07" y2="173.71"/><line class="cls-1" x1="92.62" y1="272.91" x2="92.62" y2="179.22"/><line class="cls-1" x1="76.71" y1="170.03" x2="76.71" y2="274.75"/><line class="cls-1" x1="334.27" y1="260.42" x2="333.64" y2="260.05"/><line class="cls-1" x1="335.63" y1="256.61" x2="335.63" y2="258.89"/><line class="cls-1" x1="333.64" y1="257.76" x2="335.63" y2="256.61"/><path class="cls-1" d="M333.64,256.84a7,7,0,0,1,6.36,0"/><line class="cls-1" x1="171.37" y1="356.04" x2="69.55" y2="297.25"/><line class="cls-1" x1="333.64" y1="255" x2="333.64" y2="260.51"/><line class="cls-1" x1="60" y1="280.72" x2="60" y2="286.23"/><line class="cls-1" x1="316.46" y1="264.92" x2="313.85" y2="266.43"/><line class="cls-1" x1="320.07" y1="262.84" x2="319.49" y2="263.17"/><line class="cls-1" x1="326.01" y1="259.41" x2="323.4" y2="260.91"/><line class="cls-1" x1="329.62" y1="257.33" x2="329.04" y2="257.66"/><line class="cls-1" x1="333.64" y1="255" x2="332.94" y2="255.41"/><line class="cls-1" x1="346.37" y1="255" x2="342.49" y2="252.76"/><line class="cls-1" x1="180.92" y1="350.53" x2="60" y2="280.72"/><line class="cls-1" x1="91.02" y1="430.9" x2="69.55" y2="418.5"/><line class="cls-1" x1="171.37" y1="477.29" x2="113.3" y2="443.76"/><line class="cls-1" x1="92.62" y1="405.18" x2="157.85" y2="367.52"/><line class="cls-1" x1="69.55" y1="418.5" x2="70.34" y2="418.04"/><line class="cls-1" x1="60" y1="420.34" x2="60" y2="416.66"/><line class="cls-1" x1="91.02" y1="438.25" x2="60" y2="420.34"/><line class="cls-1" x1="177.73" y1="488.31" x2="113.3" y2="451.11"/><line class="cls-1" x1="171.37" y1="480.96" x2="178.53" y2="485.1"/><line class="cls-1" x1="171.37" y1="350.53" x2="180.92" y2="356.04"/><line class="cls-1" x1="171.37" y1="480.96" x2="171.37" y2="416.61"/><path class="cls-1" d="M333.63,260.86a7.07,7.07,0,0,0,3.12-4.78"/><line class="cls-1" x1="171.37" y1="379.92" x2="171.37" y2="350.53"/><line class="cls-1" x1="171.37" y1="411.81" x2="171.37" y2="398.29"/><path class="cls-1" d="M333.63,260.86q0-.18,0-.35"/><line class="cls-1" x1="178.53" y1="415.94" x2="171.37" y2="411.81"/><line class="cls-1" x1="175.31" y1="414.08" x2="171.37" y2="416.61"/><line class="cls-1" x1="175.32" y1="417.02" x2="175.88" y2="416.66"/><line class="cls-1" x1="171.37" y1="416.61" x2="178.53" y2="420.74"/><line class="cls-1" x1="175.32" y1="417.02" x2="178.53" y2="418.87"/><line class="cls-1" x1="340.01" y1="258.68" x2="340.01" y2="256.84"/><line class="cls-1" x1="277.71" y1="292.81" x2="268.41" y2="298.17"/><line class="cls-1" x1="287.26" y1="287.29" x2="282.21" y2="290.21"/><line class="cls-1" x1="296.8" y1="281.78" x2="291.76" y2="284.7"/><line class="cls-1" x1="333.64" y1="260.51" x2="301.3" y2="279.18"/><path class="cls-1" d="M333.9,262.2a2.92,2.92,0,0,1-.28-1.34"/><path class="cls-1" d="M340,256.86a4.89,4.89,0,0,1-.26,2"/><line class="cls-1" x1="341.6" y1="257.76" x2="340.01" y2="256.84"/><line class="cls-1" x1="340.01" y1="256.84" x2="339.98" y2="256.86"/><line class="cls-1" x1="339.56" y1="256.61" x2="339.98" y2="256.86"/><path class="cls-1" d="M144.22,364c-1.62.93-2.51-.3-2.19-2a4.25,4.25,0,0,1,2.19-3.25c1.62-.93,2.51.3,2.19,2A4.25,4.25,0,0,1,144.22,364Z"/><line class="cls-1" x1="60" y1="352.31" x2="69.55" y2="357.82"/><line class="cls-1" x1="69.55" y1="422.18" x2="69.55" y2="357.82"/><line class="cls-1" x1="60" y1="416.66" x2="69.55" y2="422.18"/><line class="cls-1" x1="69.55" y1="353.02" x2="60" y2="347.51"/><line class="cls-1" x1="69.55" y1="353.02" x2="69.55" y2="291.74"/><line class="cls-1" x1="60" y1="416.66" x2="60" y2="352.31"/><line class="cls-1" x1="60" y1="347.51" x2="60" y2="286.23"/><line class="cls-1" x1="69.55" y1="353.02" x2="70.34" y2="352.61"/><line class="cls-1" x1="70.34" y1="357.31" x2="69.55" y2="357.82"/><line class="cls-1" x1="63.94" y1="349.78" x2="60" y2="352.31"/><line class="cls-1" x1="60" y1="286.23" x2="69.55" y2="291.74"/><line class="cls-1" x1="178.53" y1="417.66" x2="177.13" y2="416.85"/><line class="cls-1" x1="178.2" y1="415.76" x2="177.13" y2="416.47"/><path class="cls-1" d="M177.13,416.85c-.21-.09-.21-.29,0-.37"/><line class="cls-1" x1="177.45" y1="415.32" x2="176.28" y2="416.11"/><line class="cls-1" x1="178.53" y1="418.59" x2="176.28" y2="417.29"/><path class="cls-1" d="M176.28,416.11l-.17.13a.87.87,0,0,0-.13.15.61.61,0,0,0-.1.33.57.57,0,0,0,.1.32.9.9,0,0,0,.29.26"/><line class="cls-1" x1="157.85" y1="387.73" x2="157.85" y2="356.5"/><line class="cls-1" x1="157.85" y1="461.21" x2="157.85" y2="406.1"/><line class="cls-1" x1="170.57" y1="398.75" x2="170.57" y2="468.56"/><line class="cls-1" x1="170.57" y1="363.85" x2="170.57" y2="380.38"/><line class="cls-1" x1="164.21" y1="402.43" x2="164.21" y2="464.89"/><line class="cls-1" x1="164.21" y1="360.17" x2="164.21" y2="384.06"/><line class="cls-1" x1="170.57" y1="363.85" x2="83.07" y2="313.33"/><line class="cls-1" x1="170.57" y1="356.5" x2="170.57" y2="363.85"/><line class="cls-1" x1="70.34" y1="298.63" x2="70.34" y2="305.98"/><line class="cls-1" x1="171.37" y1="363.39" x2="170.57" y2="363.85"/><line class="cls-1" x1="171.37" y1="356.04" x2="170.57" y2="356.5"/><line class="cls-1" x1="70.34" y1="298.63" x2="71.14" y2="298.17"/><line class="cls-1" x1="170.57" y1="356.5" x2="70.34" y2="298.63"/><line class="cls-1" x1="113.3" y1="431.89" x2="157.85" y2="457.61"/><line class="cls-1" x1="86.19" y1="416.24" x2="97.32" y2="422.67"/><line class="cls-1" x1="100.63" y1="420.76" x2="89.5" y2="414.33"/><line class="cls-1" x1="157.85" y1="453.79" x2="116.54" y2="429.95"/><line class="cls-1" x1="98.25" y1="422.14" x2="86.19" y2="415.18"/><line class="cls-1" x1="157.85" y1="456.55" x2="114.16" y2="431.32"/><line class="cls-1" x1="113.3" y1="435.49" x2="170.57" y2="468.56"/><line class="cls-1" x1="83.07" y1="418.04" x2="94.21" y2="424.47"/><line class="cls-1" x1="70.34" y1="418.04" x2="70.34" y2="410.69"/><line class="cls-1" x1="170.57" y1="468.56" x2="171.37" y2="468.1"/><line class="cls-1" x1="170.57" y1="475.91" x2="170.57" y2="468.56"/><line class="cls-1" x1="103.75" y1="418.96" x2="92.62" y2="412.53"/><line class="cls-1" x1="157.85" y1="450.19" x2="119.66" y2="428.15"/><line class="cls-1" x1="170.57" y1="475.91" x2="171.37" y2="475.45"/><line class="cls-1" x1="113.3" y1="442.84" x2="170.57" y2="475.91"/><line class="cls-1" x1="70.34" y1="418.04" x2="91.02" y2="429.98"/><line class="cls-1" x1="70.34" y1="305.98" x2="76.71" y2="309.65"/><line class="cls-1" x1="70.34" y1="410.69" x2="76.71" y2="414.37"/><line class="cls-1" x1="70.34" y1="305.98" x2="70.34" y2="410.69"/><line class="cls-1" x1="87.11" y1="412.95" x2="87.11" y2="315.66"/><line class="cls-1" x1="83.07" y1="418.04" x2="86.19" y2="416.24"/><line class="cls-1" x1="76.71" y1="414.37" x2="83.07" y2="418.04"/><line class="cls-1" x1="89.5" y1="414.33" x2="92.62" y2="412.53"/><line class="cls-1" x1="89.5" y1="414.33" x2="87.11" y2="412.95"/><line class="cls-1" x1="87.11" y1="412.95" x2="86.19" y2="413.49"/><line class="cls-1" x1="89.5" y1="414.33" x2="89.5" y2="317.04"/><line class="cls-1" x1="86.19" y1="315.13" x2="86.19" y2="416.24"/><line class="cls-1" x1="83.07" y1="313.33" x2="83.07" y2="418.04"/><line class="cls-1" x1="76.71" y1="309.65" x2="83.07" y2="313.33"/><line class="cls-1" x1="92.62" y1="412.53" x2="92.62" y2="318.84"/><line class="cls-1" x1="76.71" y1="309.65" x2="76.71" y2="414.37"/><path class="cls-1" d="M392.27,490.65a2.65,2.65,0,0,0,.65-.26"/><path class="cls-1" d="M389.33,490.06a3.15,3.15,0,0,0,2.69.65"/><path class="cls-1" d="M393.53,489.74a.78.78,0,0,0,0-.19"/><path class="cls-1" d="M393.44,489.93a.94.94,0,0,0,.09-.17"/><path class="cls-1" d="M392.92,490.39a1.55,1.55,0,0,0,.46-.38"/><path class="cls-1" d="M389.33,483.06a3,3,0,0,0,2.7-.21"/><path class="cls-1" d="M392,482.85c.38-.22.66-.41.66-.92"/><path class="cls-1" d="M389.33,386a2.42,2.42,0,0,1,2.23-.7c.63,0,1.79.31,2,1.09a.73.73,0,0,1,0,.42c0,.15-.34.3-.1.46.51.35,1,.05,1.43,0l1.32-.07c.19,0,.42,0,.38-.24s-.3-.18-.49-.17l-1.28.07c-.19,0-.58.22-.51-.12a1,1,0,0,0,0-.49c-.32-1-1-1.12-1.91-1.31-.3-.07-1.37,0-.84-.32l1-.55,1-.6.52-.3c.16-.09.76-.23.42-.35"/><path class="cls-1" d="M389.33,387.86a4.07,4.07,0,0,0,2.37.44c.56,0,.09.76,0,1-.08.5.67.34.74-.13a8,8,0,0,0,.19-1.2c0-.34-.27-.26-.51-.21a3.63,3.63,0,0,1-.59.08,2.38,2.38,0,0,1-2.26-.7"/><line class="cls-1" x1="393.3" y1="382.22" x2="389.33" y2="384.52"/><path class="cls-1" d="M393.39,398.19c0,.49.47.2.75.19l.85,0,.85,0,.42,0c.16,0,.36,0,.32-.21"/><path class="cls-1" d="M392.68,396.58a1.7,1.7,0,0,1,.71.51"/><path class="cls-1" d="M391.73,400.44c-.05.34.27.24.49.2s.24-.26.27-.46a7.31,7.31,0,0,0,.19-1.17"/><path class="cls-1" d="M389.33,398.88a4.06,4.06,0,0,0,2.4.43"/><path class="cls-1" d="M394.46,382.88c.25.07.35-.14.52-.23l.48-.28,1-.55,1-.55c.17-.1.38-.45.53-.13a4.26,4.26,0,0,0,.17.5,2.49,2.49,0,0,0,2.15,1.11,4.6,4.6,0,0,0,.63,0h.31c.1,0,.26-.11.28.07a3.1,3.1,0,0,1-.12.73c-.07.45.27.79.62.43s.12-.57.17-.86c.25-1.52-.66-.72-1.57-.8-2.16-.19-2.71-2-.51-2.49a3,3,0,0,1,2.52.34,1,1,0,0,1,.56.74c0,.17-.35.69-.08.84.42.24.78,0,1.17,0l1.18-.06c.3,0,1.07,0,.71-.34-.14-.15-1-.06-1.12-.05l-.59,0c-.19,0-.57.3-.55-.07a1.31,1.31,0,0,0-.2-.89,2.62,2.62,0,0,0-2.05-1c-.22,0-.43.07-.65-.06s.21-.24.35-.32l.93-.54.93-.54.47-.27c.15-.08.68-.21.37-.32"/><line class="cls-1" x1="393.3" y1="382.22" x2="394.42" y2="382.87"/><line class="cls-1" x1="402.85" y1="376.71" x2="393.3" y2="382.22"/><path class="cls-1" d="M402.93,392.68c0,.49.47.2.75.19l.85,0,.85,0,.42,0c.16,0,.36,0,.32-.21"/><path class="cls-1" d="M402.23,391.07a1.7,1.7,0,0,1,.71.51"/><path class="cls-1" d="M401.27,394.93c-.05.34.27.24.49.2s.24-.26.27-.46a7.31,7.31,0,0,0,.19-1.17"/><path class="cls-1" d="M396.58,392.75l.61-.35c.2-.12.32-.36.62-.29s.11.19.14.29a1.19,1.19,0,0,0,.15.31,1.77,1.77,0,0,0,.49.49,3.72,3.72,0,0,0,2.68.61"/><path class="cls-1" d="M404,377.37c.25.07.35-.14.52-.23l.48-.28,1-.55,1-.55c.17-.1.38-.45.53-.13a4.24,4.24,0,0,0,.17.5,2.49,2.49,0,0,0,2.15,1.11,4.59,4.59,0,0,0,.63,0h.31c.1,0,.26-.11.28.07a3.09,3.09,0,0,1-.12.73c-.07.45.27.79.62.43s.12-.57.17-.86c.25-1.52-.66-.72-1.57-.8-2.16-.19-2.71-2-.51-2.49a3,3,0,0,1,2.52.34,1,1,0,0,1,.56.74c0,.18-.35.69-.08.84.42.24.78,0,1.17,0l1.18-.06c.3,0,1.07,0,.71-.34-.14-.15-1-.06-1.12-.05l-.59,0c-.19,0-.57.3-.55-.07a1.3,1.3,0,0,0-.2-.89,2.62,2.62,0,0,0-2.06-1c-.22,0-.43.07-.65-.06s.21-.24.35-.32l.93-.54.93-.54.47-.27c.15-.08.68-.21.37-.32"/><line class="cls-1" x1="402.85" y1="376.71" x2="403.97" y2="377.36"/><line class="cls-1" x1="412.4" y1="371.2" x2="402.85" y2="376.71"/><path class="cls-1" d="M412.48,387.17c0,.49.47.2.75.19l.85,0,.85,0,.42,0c.16,0,.36,0,.32-.21"/><path class="cls-1" d="M411.77,385.56a1.7,1.7,0,0,1,.71.51"/><path class="cls-1" d="M410.82,389.42c-.05.34.27.24.49.2s.24-.26.27-.46a7.3,7.3,0,0,0,.19-1.17"/><path class="cls-1" d="M406.13,387.24l.61-.35c.2-.12.32-.36.62-.29s.11.19.14.29a1.19,1.19,0,0,0,.15.31,1.77,1.77,0,0,0,.49.49,3.72,3.72,0,0,0,2.68.61"/><path class="cls-1" d="M413.56,371.86c.25.07.35-.14.52-.23l.48-.28,1-.55,1-.55c.17-.1.38-.45.53-.13a4.28,4.28,0,0,0,.17.5,2.49,2.49,0,0,0,2.15,1.11,4.6,4.6,0,0,0,.63,0h.31c.1,0,.26-.11.28.07a3.1,3.1,0,0,1-.12.73c-.07.45.27.79.62.43s.12-.57.17-.86c.25-1.52-.66-.72-1.57-.8-2.16-.19-2.71-2-.51-2.49a3,3,0,0,1,2.52.34,1,1,0,0,1,.56.74c0,.17-.35.69-.08.84.42.24.78,0,1.17,0l1.18-.06c.3,0,1.07,0,.71-.34-.14-.15-1-.06-1.12-.05l-.59,0c-.19,0-.57.3-.55-.07a1.31,1.31,0,0,0-.2-.89,2.62,2.62,0,0,0-2.05-1c-.22,0-.43.07-.65-.06s.21-.24.35-.32l.93-.54.93-.54.47-.27c.15-.08.68-.21.37-.32"/><line class="cls-1" x1="412.4" y1="371.2" x2="413.52" y2="371.85"/><line class="cls-1" x1="421.94" y1="365.69" x2="412.4" y2="371.2"/><path class="cls-1" d="M422,381.65c0,.49.47.2.75.19l.85,0,.85,0,.42,0c.16,0,.36,0,.32-.21"/><path class="cls-1" d="M421.32,380a1.7,1.7,0,0,1,.71.51"/><path class="cls-1" d="M420.36,383.91c-.05.34.27.24.49.2s.24-.26.27-.46a7.31,7.31,0,0,0,.19-1.17"/><path class="cls-1" d="M415.68,381.73l.61-.35c.2-.12.32-.36.62-.29s.11.19.14.29a1.19,1.19,0,0,0,.15.31,1.77,1.77,0,0,0,.49.49,3.72,3.72,0,0,0,2.68.61"/><path class="cls-1" d="M423.1,366.35c.25.07.35-.14.52-.23l.48-.28,1-.55,1-.55c.17-.1.38-.45.53-.13a4.24,4.24,0,0,0,.17.5,2.49,2.49,0,0,0,2.15,1.11,4.59,4.59,0,0,0,.63,0h.31c.1,0,.26-.11.28.07a3.1,3.1,0,0,1-.12.73c-.07.45.27.79.62.43s.12-.57.17-.86c.25-1.52-.66-.72-1.57-.8-2.16-.19-2.71-2-.51-2.49a3,3,0,0,1,2.52.34,1,1,0,0,1,.56.74c0,.17-.35.69-.08.84.42.24.78,0,1.17,0l1.18-.06c.3,0,1.07,0,.71-.34-.14-.15-1-.06-1.12-.05l-.59,0c-.19,0-.57.3-.55-.07a1.3,1.3,0,0,0-.2-.89,2.62,2.62,0,0,0-2.06-1c-.22,0-.43.07-.65-.06s.21-.24.35-.32l.93-.54.93-.54.47-.27c.15-.08.68-.21.37-.32"/><line class="cls-1" x1="421.94" y1="365.69" x2="423.06" y2="366.34"/><line class="cls-1" x1="431.49" y1="360.18" x2="421.94" y2="365.69"/><path class="cls-1" d="M431.57,376.14c0,.49.47.2.75.19l.85,0,.85,0,.42,0c.16,0,.36,0,.32-.21"/><path class="cls-1" d="M430.86,374.53a1.7,1.7,0,0,1,.71.51"/><path class="cls-1" d="M429.91,378.4c-.05.34.27.24.49.2s.24-.26.27-.46a7.3,7.3,0,0,0,.19-1.17"/><path class="cls-1" d="M425.22,376.21l.61-.35c.2-.12.32-.36.62-.29s.11.19.14.29a1.19,1.19,0,0,0,.15.31,1.77,1.77,0,0,0,.49.49,3.72,3.72,0,0,0,2.68.61"/><path class="cls-1" d="M432.65,360.84c.25.07.35-.14.52-.23l.48-.28,1-.55,1-.55c.17-.1.38-.45.53-.13a4.28,4.28,0,0,0,.17.5,2.49,2.49,0,0,0,2.15,1.11,4.6,4.6,0,0,0,.63,0h.31c.1,0,.26-.11.28.07a3.1,3.1,0,0,1-.12.73c-.07.45.27.79.62.43s.12-.57.17-.86c.25-1.52-.66-.72-1.57-.8-2.16-.19-2.71-2-.51-2.49a3,3,0,0,1,2.52.34,1,1,0,0,1,.56.74c0,.18-.35.69-.08.84.42.24.78,0,1.17,0l1.18-.06c.3,0,1.07,0,.71-.34-.14-.15-1-.06-1.12-.05l-.59,0c-.19,0-.57.3-.55-.07a1.31,1.31,0,0,0-.2-.89,2.62,2.62,0,0,0-2.05-1c-.22,0-.43.07-.65-.06s.21-.24.35-.32l.93-.54.93-.54.47-.27c.15-.08.68-.21.37-.32"/><line class="cls-1" x1="431.49" y1="360.18" x2="432.61" y2="360.82"/><line class="cls-1" x1="441.03" y1="354.67" x2="431.49" y2="360.18"/><path class="cls-1" d="M441.12,370.63c0,.49.47.2.75.19l.85,0,.85,0,.42,0c.16,0,.36,0,.32-.21"/><path class="cls-1" d="M440.41,369a1.7,1.7,0,0,1,.71.51"/><path class="cls-1" d="M439.46,372.89c-.05.34.27.24.49.2s.24-.26.27-.46a7.31,7.31,0,0,0,.19-1.17"/><path class="cls-1" d="M434.77,370.7l.61-.35c.2-.12.32-.36.62-.29s.11.19.14.29a1.19,1.19,0,0,0,.15.31,1.77,1.77,0,0,0,.49.49,3.72,3.72,0,0,0,2.68.61"/><path class="cls-1" d="M450.75,353.92c-.45.81.85.35,1.35.33l.88,0c.28,0,.56.12.83-.11s-.21-.34-.47-.32l-1,.05-.49,0c-.15,0-.35.06-.32-.16a1,1,0,0,0-.17-.74A2.28,2.28,0,0,0,450,352c-.39-.13-1.87,0-1.16-.44l1.5-.86.74-.43.37-.21c.12-.07.51-.18.27-.26"/><path class="cls-1" d="M450.81,353.79v0"/><path class="cls-1" d="M450.84,353.39a.74.74,0,0,1,0,.21"/><path class="cls-1" d="M446.36,353.63c-.24-1.76,4.12-2,4.48-.26"/><path class="cls-1" d="M442.19,355.33c.36.09.47-.21.7-.34l.66-.38,1.35-.78.33-.19c.12-.07.22-.23.38-.09s.13.48.29.69a2.43,2.43,0,0,0,1.31.8,4.53,4.53,0,0,0,1.53.21c.77,0,.2.75.26,1.14s.68.24.73,0l.1-.64.1-.61c.07-.45-.32-.38-.64-.33"/><line class="cls-1" x1="441.03" y1="354.67" x2="442.15" y2="355.31"/><line class="cls-1" x1="450.58" y1="349.15" x2="441.03" y2="354.67"/><path class="cls-1" d="M450.66,365.12c0,.49.47.2.75.19l.85,0,.85,0,.42,0c.16,0,.36,0,.32-.21"/><path class="cls-1" d="M449,367.37c-.05.34.27.24.49.2s.24-.26.27-.46a7.31,7.31,0,0,0,.19-1.17"/><path class="cls-1" d="M444.31,365.19l.61-.35c.2-.12.32-.36.62-.29s.11.19.14.29a1.19,1.19,0,0,0,.15.31,1.77,1.77,0,0,0,.49.49,3.72,3.72,0,0,0,2.68.61"/><path class="cls-1" d="M460.59,344.77l.65-.38c.17-.1-.1-.17-.2-.22l-.32-.19"/><path class="cls-1" d="M460.4,347.94c0,.28-.48.73.06.84a3.76,3.76,0,0,0,1,0l1-.06c.22,0,1,.15.89-.26s-.75-.16-.95-.15l-1,.06c-.49,0-.28-.46-.39-.72a1.59,1.59,0,0,0-.68-.75"/><path class="cls-1" d="M460.36,347.75l0,.11"/><path class="cls-1" d="M451.74,349.82c.23.06.32-.12.47-.2l.43-.25.86-.49.85-.49.42-.24c.15-.09.4-.29.43,0,.17,1.42,2.3,1.67,3.34,1.59.52,0,.12.51.07.78s.14.72.55.5c.2-.1.13-.28.16-.43l.07-.45c.05-.33.43-.8-.14-.91s-1.31.17-2,0a2.43,2.43,0,0,1-.87-.38.94.94,0,0,1-.49-.87"/><line class="cls-1" x1="450.58" y1="349.15" x2="451.7" y2="349.8"/><line class="cls-1" x1="455.92" y1="346.07" x2="450.58" y2="349.15"/><path class="cls-1" d="M460.21,359.61c0,.49.47.2.75.19l.85,0,.85,0,.42,0c.16,0,.36,0,.32-.21"/><path class="cls-1" d="M458.55,361.86c-.05.34.27.24.49.2s.24-.26.27-.46a7.29,7.29,0,0,0,.19-1.17"/><path class="cls-1" d="M453.86,359.68l.61-.35c.2-.12.32-.36.62-.29s.11.19.14.29a1.19,1.19,0,0,0,.15.31,1.77,1.77,0,0,0,.49.49,3.72,3.72,0,0,0,2.68.61"/><path class="cls-1" d="M460.37,447.77l.47-.27c.15-.09.44,0,.44-.29s-.29-.2-.44-.29l-.46-.27"/><path class="cls-1" d="M460.37,450.68c0,.13-.24.84,0,.94.37.18.69,0,1,0l1-.06c.14,0,.91,0,1-.19s-.11-.25-.29-.26a4.85,4.85,0,0,0-.6,0l-1,.06c-.47,0-.32-.42-.42-.68a1.55,1.55,0,0,0-.68-.77"/><path class="cls-1" d="M451.73,452.69c.42.13.54-.24.8-.39l.76-.44,1.55-.89c.35-.2.36.22.47.43a1.72,1.72,0,0,0,.66.66,3.78,3.78,0,0,0,1.69.53,4.6,4.6,0,0,0,.57,0c.17,0,.53-.22.47.1l-.11.66c-.06.35,0,.62.42.55s.28-.43.32-.7l.11-.71c.08-.5-.35-.43-.71-.37A3.59,3.59,0,0,1,457,452"/><line class="cls-1" x1="455.87" y1="448.98" x2="450.86" y2="451.87"/><path class="cls-1" d="M460.21,462.49c0,.49.47.2.75.19l.85,0,.85,0,.42,0c.16,0,.36,0,.32-.21"/><path class="cls-1" d="M458.55,464.74c-.05.34.27.24.49.2s.24-.26.27-.46a7.29,7.29,0,0,0,.19-1.17"/><path class="cls-1" d="M453.86,462.56l.61-.35c.2-.12.32-.36.62-.29s.11.19.14.29a1.19,1.19,0,0,0,.15.31,1.77,1.77,0,0,0,.49.49,3.72,3.72,0,0,0,2.68.61"/><path class="cls-1" d="M450.86,453.27l.45-.26c.15-.09.43,0,.43-.28s-.28-.19-.43-.28l-.45-.26"/><path class="cls-1" d="M450.86,456.41c0,.27-.4.73.11.78a7,7,0,0,0,1,0l1-.05c.22,0,.93.13.86-.27s-.75-.15-.94-.14l-1,.05c-.47,0-.3-.43-.4-.68a1.53,1.53,0,0,0-.65-.75"/><path class="cls-1" d="M442.18,458.2c.23.07.32-.11.47-.2l.43-.25.85-.49.84-.49.42-.24c.15-.09.42-.34.45,0,.13,1.43,2.27,1.69,3.31,1.61.51,0,.16.48.11.75s.08.7.51.54c.22-.08.17-.26.19-.42l.07-.45.07-.45c0-.2.11-.4-.16-.47s-.64.07-1,.09a3.69,3.69,0,0,1-1-.09c-.73-.17-1.37-.26-1.41-1.21"/><line class="cls-1" x1="446.36" y1="454.47" x2="441.03" y2="457.54"/><path class="cls-1" d="M450.66,468c0,.49.47.2.75.19l.85,0,.85,0,.42,0c.16,0,.36,0,.32-.21"/><path class="cls-1" d="M449,470.25c-.05.34.27.24.49.2s.24-.26.27-.46a7.31,7.31,0,0,0,.19-1.17"/><path class="cls-1" d="M444.31,468.07l.61-.35c.2-.12.32-.36.62-.29s.11.19.14.29a1.19,1.19,0,0,0,.15.31,1.77,1.77,0,0,0,.49.49,3.72,3.72,0,0,0,2.68.61"/><path class="cls-1" d="M432.64,463.72c.27.08.36-.14.54-.24l.5-.29,1-.57,1-.57c.48-.28.5.31.69.56a2.82,2.82,0,0,0,2.42,1c.32,0,.91-.23.82.33l-.13.78c-.06.35.27.25.51.2s.22-.21.25-.38l.14-.85c.1-.64,0-.66-.62-.55a3.65,3.65,0,0,1-1.47,0c-2.3-.51-1.66-2.38.6-2.51a2.22,2.22,0,0,1,2.28.78.73.73,0,0,1,.12.82c-.23.54.38.46.76.44l1.22-.07c.16,0,1,.07,1.09-.2s-.12-.25-.31-.26-.4,0-.6,0l-1.22.07c-.31,0-.22-.72-.3-.86a1.88,1.88,0,0,0-.89-.76,4,4,0,0,0-1.19-.37,5.11,5.11,0,0,0-.62,0c-.24,0,.07-.23.19-.3l2-1.16c.28-.16,1.2-.32.67-.63l-1-.58"/><line class="cls-1" x1="441.03" y1="457.54" x2="431.49" y2="463.06"/><path class="cls-1" d="M441.12,473.51c0,.49.47.2.75.19l.85,0,.85,0,.42,0c.16,0,.36,0,.32-.21"/><path class="cls-1" d="M440.41,471.9a1.7,1.7,0,0,1,.71.51"/><path class="cls-1" d="M439.46,475.76c-.05.34.27.24.49.2s.24-.26.27-.46a7.31,7.31,0,0,0,.19-1.17"/><path class="cls-1" d="M434.77,473.58l.61-.35c.2-.12.32-.36.62-.29s.11.19.14.29a1.19,1.19,0,0,0,.15.31,1.77,1.77,0,0,0,.49.49,3.72,3.72,0,0,0,2.68.61"/><path class="cls-1" d="M423.09,469.23c.27.08.36-.14.54-.24l.5-.29,1-.57,1-.57c.48-.28.5.31.69.56a2.82,2.82,0,0,0,2.42,1c.32,0,.91-.23.82.33l-.13.78c-.06.35.27.25.51.2s.22-.21.25-.38l.14-.85c.1-.64,0-.66-.62-.55a3.65,3.65,0,0,1-1.47,0c-2.3-.51-1.66-2.38.6-2.51a2.23,2.23,0,0,1,2.28.78.73.73,0,0,1,.12.82c-.23.54.38.46.76.44l1.22-.07c.16,0,1,.07,1.09-.2s-.12-.25-.31-.26-.4,0-.6,0l-1.22.07c-.31,0-.22-.72-.3-.86a1.88,1.88,0,0,0-.89-.76,4,4,0,0,0-1.19-.37,5.08,5.08,0,0,0-.62,0c-.24,0,.07-.23.19-.3l2-1.16c.28-.16,1.2-.32.67-.63l-1-.58"/><line class="cls-1" x1="431.49" y1="463.06" x2="421.94" y2="468.57"/><path class="cls-1" d="M431.57,479c0,.49.47.2.75.19l.85,0,.85,0,.42,0c.16,0,.36,0,.32-.21"/><path class="cls-1" d="M430.86,477.41a1.7,1.7,0,0,1,.71.51"/><path class="cls-1" d="M429.91,481.28c-.05.34.27.24.49.2s.24-.26.27-.46a7.3,7.3,0,0,0,.19-1.17"/><path class="cls-1" d="M425.22,479.09l.61-.35c.2-.12.32-.36.62-.29s.11.19.14.29a1.19,1.19,0,0,0,.15.31,1.77,1.77,0,0,0,.49.49,3.72,3.72,0,0,0,2.68.61"/><path class="cls-1" d="M413.55,474.74c.27.08.36-.14.54-.24l.5-.29,1-.57,1-.57c.48-.28.5.31.69.56a2.82,2.82,0,0,0,2.42,1c.32,0,.91-.23.82.33l-.13.78c-.06.35.27.25.51.2s.22-.21.25-.38l.14-.85c.1-.64,0-.66-.62-.55a3.65,3.65,0,0,1-1.47,0c-2.3-.51-1.66-2.38.6-2.51a2.22,2.22,0,0,1,2.28.78.73.73,0,0,1,.12.82c-.23.54.38.46.76.44l1.22-.07c.16,0,1,.07,1.09-.2s-.12-.25-.31-.26-.4,0-.6,0l-1.22.07c-.31,0-.22-.72-.3-.86a1.88,1.88,0,0,0-.89-.76,4,4,0,0,0-1.19-.37,5.11,5.11,0,0,0-.62,0c-.24,0,.07-.23.19-.3l2-1.16c.28-.16,1.2-.32.67-.63l-1-.58"/><line class="cls-1" x1="421.94" y1="468.57" x2="412.4" y2="474.08"/><path class="cls-1" d="M422,484.53c0,.49.47.2.75.19l.85,0,.85,0,.42,0c.16,0,.36,0,.32-.21"/><path class="cls-1" d="M421.32,482.92a1.7,1.7,0,0,1,.71.51"/><path class="cls-1" d="M420.36,486.79c-.05.34.27.24.49.2s.24-.26.27-.46a7.31,7.31,0,0,0,.19-1.17"/><path class="cls-1" d="M415.68,484.6l.61-.35c.2-.12.32-.36.62-.29s.11.19.14.29a1.18,1.18,0,0,0,.15.31,1.77,1.77,0,0,0,.49.49,3.72,3.72,0,0,0,2.68.61"/><path class="cls-1" d="M404,480.25c.27.08.36-.14.54-.24l.5-.29,1-.57,1-.57c.48-.28.5.31.69.56a2.82,2.82,0,0,0,2.42,1c.32,0,.91-.23.82.33l-.13.78c-.06.35.27.25.51.2s.22-.21.25-.38l.14-.85c.1-.64,0-.66-.62-.55a3.65,3.65,0,0,1-1.47,0c-2.3-.51-1.66-2.38.6-2.51a2.23,2.23,0,0,1,2.28.78.73.73,0,0,1,.12.82c-.23.54.38.46.76.44l1.22-.07c.16,0,1,.07,1.09-.2s-.12-.25-.31-.26-.4,0-.6,0l-1.22.07c-.31,0-.22-.72-.3-.86a1.88,1.88,0,0,0-.89-.76,4,4,0,0,0-1.19-.37,5.08,5.08,0,0,0-.62,0c-.24,0,.07-.23.19-.3l2-1.16c.28-.16,1.2-.32.67-.63l-1-.58"/><line class="cls-1" x1="412.4" y1="474.08" x2="402.85" y2="479.59"/><path class="cls-1" d="M412.48,490c0,.49.47.2.75.19l.85,0,.85,0,.42,0c.16,0,.36,0,.32-.21"/><path class="cls-1" d="M411.77,488.43a1.7,1.7,0,0,1,.71.51"/><path class="cls-1" d="M410.82,492.3c-.05.34.27.24.49.2s.24-.26.27-.46a7.3,7.3,0,0,0,.19-1.17"/><path class="cls-1" d="M406.13,490.12l.61-.35c.2-.12.32-.36.62-.29s.11.19.14.29a1.19,1.19,0,0,0,.15.31,1.77,1.77,0,0,0,.49.49,3.72,3.72,0,0,0,2.68.61"/><path class="cls-1" d="M394.45,485.76c.27.08.36-.14.54-.24l.5-.29,1-.57,1-.57c.48-.28.5.31.69.56a2.82,2.82,0,0,0,2.42,1c.32,0,.91-.23.82.33l-.13.78c-.06.35.27.25.51.2s.22-.21.25-.38l.14-.85c.1-.64,0-.66-.62-.55a3.65,3.65,0,0,1-1.47,0c-2.3-.51-1.66-2.38.6-2.51a2.23,2.23,0,0,1,2.28.78.73.73,0,0,1,.12.82c-.23.54.38.46.76.44l1.22-.07c.16,0,1,.07,1.09-.2s-.12-.25-.31-.26-.4,0-.6,0l-1.22.07c-.31,0-.22-.72-.3-.86a1.88,1.88,0,0,0-.89-.76,4,4,0,0,0-1.19-.37,5.11,5.11,0,0,0-.62,0c-.24,0,.07-.23.19-.3l2-1.16c.28-.16,1.2-.32.67-.63l-1-.58"/><line class="cls-1" x1="402.85" y1="479.59" x2="393.3" y2="485.1"/><path class="cls-1" d="M402.93,495.56c0,.49.47.2.75.19l.85,0,.85,0,.42,0c.16,0,.36,0,.32-.21"/><path class="cls-1" d="M402.23,493.94a1.7,1.7,0,0,1,.71.51"/><path class="cls-1" d="M401.27,497.81c-.05.34.27.24.49.2s.24-.26.27-.46a7.31,7.31,0,0,0,.19-1.17"/><path class="cls-1" d="M396.58,495.63l.61-.35c.2-.12.32-.36.62-.29s.11.19.14.29a1.18,1.18,0,0,0,.15.31,1.77,1.77,0,0,0,.49.49,3.72,3.72,0,0,0,2.68.61"/><path class="cls-1" d="M393.24,486.53c.4-.23.88-.29,1.21-.7.13-.16-.14-.15-.24-.21l-.3-.17-.61-.35"/><path class="cls-1" d="M393.44,489.93c-.28.43.39.32.7.3l1-.05,1-.05c.18,0,.38.09.5-.15s-.07-.25-.25-.28c-.66-.09-1.28.18-1.94.09-.2,0-.18-.77-.24-.87a1.81,1.81,0,0,0-.7-.66"/><path class="cls-1" d="M393.53,489.74v0"/><path class="cls-1" d="M393.57,489.34a.74.74,0,0,1,0,.21"/><path class="cls-1" d="M389.33,490.74a4,4,0,0,0,1.65.44c.29,0,.56-.11.86,0s0,.67-.06.82c-.05.33,0,.54.41.5s.3-.42.34-.69l.14-.85c.07-.45-.36-.3-.65-.25"/><line class="cls-1" x1="393.3" y1="485.1" x2="393.09" y2="485.23"/><path class="cls-1" d="M393.39,501.07c0,.49.47.2.75.19l.85,0,.85,0,.42,0c.16,0,.36,0,.32-.21"/><path class="cls-1" d="M392.68,499.46a1.7,1.7,0,0,1,.71.51"/><path class="cls-1" d="M391.73,503.32c-.05.34.27.24.49.2s.24-.26.27-.46a7.31,7.31,0,0,0,.19-1.17"/><path class="cls-1" d="M389.33,501.76a4.07,4.07,0,0,0,2.4.43"/><line class="cls-1" x1="305.75" y1="475.63" x2="305.9" y2="476.43"/><path class="cls-1" d="M323.34,478.19c-.64.37-1-.12-.87-.78a1.69,1.69,0,0,1,.87-1.3C324.54,475.42,324.33,477.55,323.34,478.19Z"/><path class="cls-1" d="M306.36,498.24c-.64.37-1-.12-.87-.78a1.69,1.69,0,0,1,.87-1.3C307.56,495.46,307.35,497.59,306.36,498.24Z"/><path class="cls-1" d="M306.36,477.08c-.64.37-1-.12-.87-.78a1.69,1.69,0,0,1,.87-1.3C307.56,474.31,307.35,476.44,306.36,477.08Z"/><path class="cls-1" d="M331.85,465.51c-1.13-.21-.73-2.06-.73-2.74V459.7"/><line class="cls-1" x1="335.75" y1="466.22" x2="331.85" y2="465.51"/><path class="cls-1" d="M304.21,486.08l4.12-2,2.06-1c.66-.32,1.76-1.07,1.76.11"/><path class="cls-1" d="M312.15,483.17a2.39,2.39,0,0,1-1.15,2.28L308.73,487l-4.53,3"/><line class="cls-1" x1="331.12" y1="463.47" x2="334.9" y2="465.65"/><path class="cls-1" d="M306.5,496.09a1.55,1.55,0,0,1-.89,1.72"/><path class="cls-1" d="M305.61,497.8l-.14.07"/><path class="cls-1" d="M306.5,474.93a1.55,1.55,0,0,1-.89,1.72"/><path class="cls-1" d="M305.61,476.65l-.14.07"/><path class="cls-1" d="M323.48,476a1.55,1.55,0,0,1-.89,1.72"/><path class="cls-1" d="M322.59,477.76l-.14.07"/><line class="cls-1" x1="334.9" y1="465.77" x2="331.29" y2="465.11"/><path class="cls-1" d="M334.9,465.65l.09.06s0,0,0,0l0,0h-.09"/><line class="cls-1" x1="335.75" y1="465.84" x2="331.12" y2="463.17"/><path class="cls-1" d="M330.8,458.7a1.88,1.88,0,0,1,.32,1"/><path class="cls-1" d="M335.75,466.22l.24,0h.08l.05,0h0a.06.06,0,0,0,0-.06.26.26,0,0,0-.07-.08,1.84,1.84,0,0,0-.32-.22"/><path class="cls-1" d="M332.79,456.74c.68-.3,1.09.63,1.12,1.19"/><path class="cls-1" d="M333.92,457.93c0,.28,0,.48-.38.47"/><path class="cls-1" d="M333.2,456.19a2,2,0,0,1,1.21,2"/><path class="cls-1" d="M334.4,458.21c0,.9-.68,1-1.34.53"/><path class="cls-1" d="M265.14,433.83c-1.62.93-2.51-.3-2.19-2a4.25,4.25,0,0,1,2.19-3.25c1.62-.93,2.51.3,2.19,2A4.25,4.25,0,0,1,265.14,433.83Z"/><path class="cls-1" d="M200.8,418.65a2,2,0,0,1,0,1.26"/><line class="cls-1" x1="190.46" y1="368.9" x2="190.46" y2="367.06"/><line class="cls-1" x1="180.92" y1="374.41" x2="180.92" y2="356.04"/><path class="cls-1" d="M376.5,497.56c-1.26.73-2-.23-1.71-1.54a3.31,3.31,0,0,1,1.71-2.54c1.26-.73,2,.23,1.71,1.54A3.31,3.31,0,0,1,376.5,497.56Z"/><path class="cls-1" d="M306.06,506.11c-1.57.91-2.7.26-2.7-1.56"/><path class="cls-1" d="M337.2,468.59v11c0,1.84,0,3.67,0,5.51a6,6,0,0,1-2.7,4.57"/><line class="cls-1" x1="462.51" y1="423.96" x2="467.29" y2="426.71"/><line class="cls-1" x1="477.79" y1="420.64" x2="473.76" y2="418.31"/><line class="cls-1" x1="301.83" y1="487.13" x2="301.83" y2="425.85"/><line class="cls-1" x1="467.29" y1="422.05" x2="467.29" y2="330.32"/><line class="cls-1" x1="477.79" y1="324.26" x2="477.79" y2="415.99"/><line class="cls-1" x1="467.29" y1="460.76" x2="467.29" y2="426.71"/><line class="cls-1" x1="477.79" y1="420.64" x2="477.79" y2="454.69"/><line class="cls-1" x1="467.29" y1="426.71" x2="477.79" y2="420.64"/><line class="cls-1" x1="301.83" y1="556.28" x2="301.83" y2="491.93"/><line class="cls-1" x1="292.28" y1="547.1" x2="292.28" y2="486.42"/><path class="cls-1" d="M457.43,326.88a6.18,6.18,0,0,0,.24-1"/><path class="cls-1" d="M454.54,330.67l.22-.14"/><line class="cls-1" x1="292.28" y1="481.62" x2="292.28" y2="425.85"/><path class="cls-1" d="M454.54,330.67c0-.12,0-.23,0-.35"/><line class="cls-1" x1="467.29" y1="422.05" x2="462.51" y2="419.3"/><line class="cls-1" x1="477.79" y1="415.99" x2="467.29" y2="422.05"/><path class="cls-1" d="M320.58,497.73c0,3-.38,7.85,3.6,9.21a5.41,5.41,0,0,0,2.81.16c2.75-.49,4.72-2.12,7-3.42L352.42,493l36.91-21.31"/><line class="cls-1" x1="389.33" y1="471.72" x2="389.33" y2="505.77"/><line class="cls-1" x1="389.33" y1="471.72" x2="385.29" y2="469.39"/><line class="cls-1" x1="389.33" y1="375.33" x2="389.33" y2="467.06"/><line class="cls-1" x1="389.33" y1="467.06" x2="330.11" y2="501.25"/><line class="cls-1" x1="301.83" y1="487.13" x2="292.28" y2="481.62"/><line class="cls-1" x1="303.37" y1="486.34" x2="301.83" y2="487.13"/><line class="cls-1" x1="303.37" y1="490.94" x2="301.83" y2="491.93"/><line class="cls-1" x1="292.28" y1="486.42" x2="301.83" y2="491.93"/><line class="cls-1" x1="303.34" y1="490.93" x2="303.37" y2="490.94"/><line class="cls-1" x1="303.37" y1="504.55" x2="303.37" y2="490.94"/><path class="cls-1" d="M326,501.52c-1.86-1.29-1.43-4.47-1.43-6.12"/><path class="cls-1" d="M330.11,501.25c-1.23.71-2.24,1.17-3.7.49"/><path class="cls-1" d="M321.45,498.88a2.65,2.65,0,0,1-.87-.81"/><line class="cls-1" x1="462.51" y1="423.96" x2="466.55" y2="421.63"/><line class="cls-1" x1="462.51" y1="419.3" x2="462.51" y2="423.96"/><line class="cls-1" x1="460.92" y1="329.06" x2="460.92" y2="326.65"/><line class="cls-1" x1="460.92" y1="344.1" x2="460.92" y2="342.75"/><line class="cls-1" x1="460.92" y1="446.98" x2="460.92" y2="359.8"/><line class="cls-1" x1="389.33" y1="367.99" x2="387.74" y2="368.9"/><path class="cls-1" d="M457.87,332.42c-1.85,1.17-3.33.49-3.33-1.75"/><path class="cls-1" d="M460.89,326.67a4.94,4.94,0,0,1-.3,2.1"/><line class="cls-1" x1="460.92" y1="326.65" x2="460.89" y2="326.67"/><line class="cls-1" x1="460.48" y1="326.42" x2="460.89" y2="326.67"/><path class="cls-1" d="M303.37,486.34v-7.15a8.44,8.44,0,0,1,.44-3.51,5.21,5.21,0,0,1,2.25-2.7"/><path class="cls-1" d="M334.42,459a15.65,15.65,0,0,1-3,4.31"/><path class="cls-1" d="M335.81,453.88a12,12,0,0,1-.53,2.94"/><line class="cls-1" x1="336.14" y1="467.99" x2="337.2" y2="468.59"/><path class="cls-1" d="M337.2,468.59c3.36-2.52,6.67-8.35,5.55-12.82-.72-2.89-3.12-3.67-5.72-2.54a11.5,11.5,0,0,0-5.28,4.92"/><line class="cls-1" x1="331.74" y1="458.15" x2="306.06" y2="472.98"/><line class="cls-1" x1="323.75" y1="494.9" x2="324.61" y2="495.4"/><line class="cls-1" x1="320.58" y1="497.73" x2="319.71" y2="497.23"/><line class="cls-1" x1="306.06" y1="506.11" x2="320.58" y2="497.73"/><line class="cls-1" x1="324.61" y1="495.4" x2="334.5" y2="489.69"/><line class="cls-1" x1="292.28" y1="547.1" x2="200.01" y2="493.82"/><line class="cls-1" x1="292.28" y1="550.77" x2="292.28" y2="547.1"/><line class="cls-1" x1="181.39" y1="280.62" x2="181.39" y2="280.9"/><path class="cls-1" d="M84.14,491.78a.25.25,0,0,0-.28,0"/><path class="cls-1" d="M84.42,493.59a.25.25,0,0,0-.28,0"/><path class="cls-1" d="M84.14,493.62c-.28.18-.65.69-.28.95"/><path class="cls-1" d="M87,495.08a.25.25,0,0,0-.28,0"/><path class="cls-1" d="M86.71,495.11c-.28.18-.65.69-.28.95"/><path class="cls-1" d="M325.63,503.62c.44-.25.47-.59.47-1"/><path class="cls-1" d="M183.29,280.54v12.35c0,1.2-.39,3.41,1.4,2.6.57-.26,1.07-.61,1.61-.92l15.56-9,7.78-4.49,2.54-1.46c1.42-.82,2.66-1.42,2.66-3.41V256.79"/><path class="cls-1" d="M89.61,495.08a.25.25,0,0,1,.28,0"/><path class="cls-1" d="M89.89,495.11c.28.18.65.69.28.95"/><path class="cls-1" d="M326.09,502.59a2.93,2.93,0,0,0-.27-1.19"/><line class="cls-1" x1="176.28" y1="277.95" x2="176.28" y2="277.67"/><path class="cls-1" d="M213.94,249.34c.36-.21.39-.49.39-.85"/><path class="cls-1" d="M214.32,248.49a2.86,2.86,0,0,0-1.47-2.35"/><path class="cls-1" d="M213.65,249.51c.36-.21.39-.49.39-.85"/><path class="cls-1" d="M213.49,249.57h0"/><path class="cls-1" d="M214,248.66a2.39,2.39,0,0,0-1.38-2.31"/><line class="cls-1" x1="306.18" y1="497.25" x2="305.46" y2="497.66"/><path class="cls-1" d="M460.41,345.88c-.06.39-.32.45-.63.55"/><path class="cls-1" d="M459.78,346.44a3.63,3.63,0,0,1-2.18,0c-.5-.13-1.76-.48-1.63-1.27"/><path class="cls-1" d="M268.41,272.81a3.22,3.22,0,0,0,2.73,0"/><path class="cls-1" d="M271.14,272.77c.35-.17.62-.31.65-.76"/><path class="cls-1" d="M268,261.56c-.06.8,1.08,1.16,1.64,1.27a3.26,3.26,0,0,0,2.19-.19"/><path class="cls-1" d="M271.86,262.64c.35-.17.62-.31.65-.76"/><path class="cls-1" d="M204.71,294.19c.44-.25.47-.59.47-1"/><path class="cls-1" d="M205.18,293.16a2.93,2.93,0,0,0-.27-1.19"/><line class="cls-1" x1="191.23" y1="273.74" x2="190.48" y2="273.3"/><path class="cls-1" d="M331.12,459.7l-18,10.39-4.5,2.6c-1,.59-3.47,1.78-4.09,3.06-.43.89-.33,4.27-.33,5.14v5.2"/><path class="cls-1" d="M460.4,345.91c0,.51-.27.71-.66.93"/><path class="cls-1" d="M304.21,490v12.35c0,1.2-.39,3.41,1.4,2.6.57-.26,1.07-.61,1.61-.92l15.56-9,7.78-4.49,2.54-1.46c1.42-.82,2.66-1.42,2.66-3.41V466.22"/><path class="cls-1" d="M334.85,458.78c.36-.21.39-.49.39-.85"/><path class="cls-1" d="M335.24,457.92a2.86,2.86,0,0,0-1.47-2.35"/><path class="cls-1" d="M334.57,458.94c.36-.21.39-.49.39-.85"/><path class="cls-1" d="M334.4,459h0"/><path class="cls-1" d="M335,458.09a2.39,2.39,0,0,0-1.38-2.31"/><line class="cls-1" x1="305.18" y1="505.6" x2="306.06" y2="506.11"/><line class="cls-1" x1="334.5" y1="489.69" x2="333.64" y2="489.19"/><path class="cls-1" d="M459.74,346.83a3.08,3.08,0,0,1-2.18.33c-.6-.09-1.66-.44-1.66-1.25"/><line class="cls-1" x1="177.13" y1="416.85" x2="177.13" y2="416.47"/><path class="cls-1" d="M460.06,328.4a.87.87,0,0,0-.8,0"/><path class="cls-1" d="M459.26,328.36a2.64,2.64,0,0,0-1.63,1.68c-.26.58-.58,1.76.14,2.23"/><line class="cls-1" x1="213.98" y1="256.34" x2="213.98" y2="256.22"/><path class="cls-1" d="M462.42,333.62c-.06.39-.32.45-.63.55"/><line class="cls-1" x1="177.13" y1="277.23" x2="177.13" y2="276.85"/><line class="cls-1" x1="185.26" y1="287.81" x2="184.55" y2="288.23"/><line class="cls-1" x1="184.27" y1="296.17" x2="185.15" y2="296.68"/><line class="cls-1" x1="213.58" y1="280.26" x2="212.72" y2="279.76"/><line class="cls-1" x1="334.9" y1="465.77" x2="334.9" y2="465.65"/><line class="cls-1" x1="176.28" y1="417.57" x2="176.28" y2="417.29"/><path class="cls-1" d="M461.79,334.17a3.63,3.63,0,0,1-2.18,0c-.5-.13-1.76-.48-1.63-1.27"/><path class="cls-1" d="M389.33,482.25a3.22,3.22,0,0,0,2.73,0"/><path class="cls-1" d="M392.05,482.2c.35-.17.62-.31.65-.76"/><path class="cls-1" d="M388.94,471c-.06.8,1.08,1.16,1.64,1.27a3.26,3.26,0,0,0,2.19-.19"/><path class="cls-1" d="M210.2,250.27l-18,10.39-4.5,2.6c-1,.59-3.47,1.78-4.09,3.06-.43.89-.33,4.27-.33,5.14v5.19"/><path class="cls-1" d="M392.78,472.07c.35-.17.62-.31.65-.76"/><path class="cls-1" d="M84.42,492.73c.36-.26,0-.77-.28-.95"/><polyline class="cls-2" points="389.33 509.44 301.83 559.96 193.64 497.5 100.57 551.23 91.02 545.72 91.02 438.25 60 420.34 60 141.1 235.96 39.5 356.88 109.31 356.88 248.94 477.79 318.75 477.79 458.37 467.29 464.43 463.08 462.56 460.37 462.66 460.37 475.63"/></g></svg>