<svg xmlns="http://www.w3.org/2000/svg" width="278.786" height="213.553" viewBox="0 0 278.786 213.553">
  <g id="Group_39" data-name="Group 39" transform="translate(3497.73 -279.881)">
    <g id="Group_1" data-name="Group 1">
      <path id="Path_1" data-name="Path 1" d="M-3356.9,493.406c76.131-1.222,137.214-41.646,136.434-90.292l-.079-8.33-275.641,6.068.029,6.684C-3495.374,456.18-3433.027,494.626-3356.9,493.406Z" fill="#cdd0d5"/>
      <ellipse id="Ellipse_1" data-name="Ellipse 1" cx="137.864" cy="88.092" rx="137.864" ry="88.092" transform="translate(-3497.596 312.101) rotate(-0.919)" fill="#fcfcfc" stroke="#cdd0d5" stroke-miterlimit="10" stroke-width="0.265"/>
    </g>
    <g id="Group_2" data-name="Group 2" opacity="0.2">
      <ellipse id="Ellipse_2" data-name="Ellipse 2" cx="51.446" cy="31.441" rx="51.446" ry="31.441" transform="translate(-3451.183 371.28)" fill="#b3b3b3"/>
    </g>
    <path id="Path_2" data-name="Path 2" d="M-3336.56,412.082l69.946-40.383L-3365,314.561l-69.946,40.383Z" fill="#b3b3b3" opacity="0.2"/>
    <g id="Group_14" data-name="Group 14">
      <g id="Group_9" data-name="Group 9">
        <g id="Group_4" data-name="Group 4">
          <g id="Group_3" data-name="Group 3">
            <path id="Path_3" data-name="Path 3" d="M-3306.521,334.825l9.645,48.872a1.5,1.5,0,0,0,1.764,1.183,1.51,1.51,0,0,0,1.205-1.611l-4.578-49.6a4.064,4.064,0,0,0-4.421-3.675,4.065,4.065,0,0,0-3.674,4.422A3.944,3.944,0,0,0-3306.521,334.825Z" fill="#999"/>
          </g>
        </g>
        <g id="Group_5" data-name="Group 5">
          <path id="Path_4" data-name="Path 4" d="M-3343.01,370.762a1.5,1.5,0,0,1-1.3-.75,1.5,1.5,0,0,1,.549-2.049l40.95-23.642a1.5,1.5,0,0,1,2.048.549,1.5,1.5,0,0,1-.549,2.048l-40.95,23.643A1.5,1.5,0,0,1-3343.01,370.762Z" fill="#999"/>
        </g>
        <g id="Group_6" data-name="Group 6">
          <path id="Path_5" data-name="Path 5" d="M-3350.222,357.464l9.645,48.872a1.5,1.5,0,0,0,1.764,1.182,1.508,1.508,0,0,0,1.2-1.611l-4.577-49.6a4.065,4.065,0,0,0-4.421-3.674,4.065,4.065,0,0,0-3.675,4.421C-3350.269,357.189-3350.248,357.33-3350.222,357.464Z" fill="#999"/>
        </g>
        <g id="Group_8" data-name="Group 8">
          <g id="Group_7" data-name="Group 7">
            <path id="Path_6" data-name="Path 6" d="M-3367.425,299.193l9.645,48.872a1.5,1.5,0,0,0,1.764,1.183,1.509,1.509,0,0,0,1.205-1.611l-4.578-49.6a4.065,4.065,0,0,0-4.421-3.675,4.065,4.065,0,0,0-3.674,4.422A4.008,4.008,0,0,0-3367.425,299.193Z" fill="#d7582f"/>
          </g>
        </g>
      </g>
      <g id="Group_13" data-name="Group 13">
        <g id="Group_10" data-name="Group 10">
          <path id="Path_7" data-name="Path 7" d="M-3344.2,363.133l57.293-33.078v-2.333l-79.534-43.31-57.293,30.744v2.333Z" fill="#7f7f7f"/>
        </g>
        <g id="Group_11" data-name="Group 11">
          <path id="Path_8" data-name="Path 8" d="M-3423.738,315.207l3.7.146,52.908,28.991,22.928,15.139v3.65l-79.534-45.643Z" fill="#7f7f7f"/>
        </g>
        <g id="Group_12" data-name="Group 12">
          <path id="Path_9" data-name="Path 9" d="M-3344.2,360.8l57.293-33.078-79.534-45.643-57.293,33.078Z" fill="#eff0f2"/>
        </g>
      </g>
    </g>
    <g id="Group_24" data-name="Group 24">
      <g id="Group_22" data-name="Group 22">
        <g id="Group_21" data-name="Group 21">
          <g id="Group_20" data-name="Group 20">
            <g id="Group_19" data-name="Group 19">
              <path id="Path_10" data-name="Path 10" d="M-3332.155,298.181l-25.151-14.408a2.23,2.23,0,0,0-1.546-.265c-.713.164-1.381.388-1.38,1.012l-.038,23.378,2.213,1.307c-.724.353-22.8,11.1-22.838,11.125l-.053.9a1.09,1.09,0,0,0,.542.943c3.758,2.176,25.773,14.9,25.773,14.9a2.342,2.342,0,0,0,2.341,0l20.924-12.1a.7.7,0,0,0,.353-.61l.036-24.168A2.338,2.338,0,0,0-3332.155,298.181Z" fill="#7f7f7f"/>
              <g id="Group_15" data-name="Group 15">
                <path id="Path_11" data-name="Path 11" d="M-3331.72,324.293l-28.572-16.3-.059-23.326a.876.876,0,0,1,1.311-.762L-3332.692,299a1.848,1.848,0,0,1,.93,1.6Z" fill="#7f7f7f"/>
                <path id="Path_12" data-name="Path 12" d="M-3359.175,285.257l26.157,15.014.054,21.96-26.212-15.047Z" fill="#27cc33"/>
              </g>
              <g id="Group_16" data-name="Group 16">
                <path id="Path_13" data-name="Path 13" d="M-3331.736,324.291l-28.557-16.469-20.2,11.673a.876.876,0,0,0,0,1.516L-3354.2,336.2a1.848,1.848,0,0,0,1.85,0Z" fill="#fff"/>
              </g>
              <g id="Group_18" data-name="Group 18">
                <g id="Group_17" data-name="Group 17">
                  <path id="Path_14" data-name="Path 14" d="M-3339.64,324.8l1.422.816,1.438-.812-1.422-.817Z" fill="#cdd0d5"/>
                  <path id="Path_15" data-name="Path 15" d="M-3341.738,323.593l1.421.816,1.438-.812-1.422-.817Z" fill="#cdd0d5"/>
                  <path id="Path_16" data-name="Path 16" d="M-3343.837,322.388l1.422.816,1.437-.812-1.422-.817Z" fill="#cdd0d5"/>
                  <path id="Path_17" data-name="Path 17" d="M-3345.936,321.182l1.422.817,1.437-.813-1.421-.816Z" fill="#cdd0d5"/>
                  <path id="Path_18" data-name="Path 18" d="M-3348.035,319.977l1.422.817,1.438-.813-1.422-.816Z" fill="#cdd0d5"/>
                  <path id="Path_19" data-name="Path 19" d="M-3350.134,318.772l1.422.816,1.438-.812-1.422-.817Z" fill="#cdd0d5"/>
                  <path id="Path_20" data-name="Path 20" d="M-3352.233,317.567l1.422.816,1.438-.812-1.422-.817Z" fill="#cdd0d5"/>
                  <path id="Path_21" data-name="Path 21" d="M-3354.331,316.361l1.422.817,1.437-.813-1.422-.816Z" fill="#cdd0d5"/>
                  <path id="Path_22" data-name="Path 22" d="M-3356.43,315.156l1.422.817,1.437-.813-1.422-.816Z" fill="#cdd0d5"/>
                  <path id="Path_23" data-name="Path 23" d="M-3358.529,313.951l1.422.817,1.437-.813-1.421-.817Z" fill="#cdd0d5"/>
                  <path id="Path_24" data-name="Path 24" d="M-3360.628,312.746l1.422.816,1.438-.812-1.422-.817Z" fill="#cdd0d5"/>
                  <path id="Path_25" data-name="Path 25" d="M-3362.726,311.541l1.422.816,1.437-.812-1.422-.817Z" fill="#cdd0d5"/>
                  <path id="Path_26" data-name="Path 26" d="M-3341.657,325.939l1.421.816,1.438-.813-1.422-.816Z" fill="#cdd0d5"/>
                  <path id="Path_27" data-name="Path 27" d="M-3343.756,324.733l1.422.817,1.437-.813-1.421-.816Z" fill="#cdd0d5"/>
                  <path id="Path_28" data-name="Path 28" d="M-3345.855,323.528l1.422.817,1.438-.813-1.422-.816Z" fill="#cdd0d5"/>
                  <path id="Path_29" data-name="Path 29" d="M-3347.954,322.323l1.422.817,1.438-.813-1.422-.817Z" fill="#cdd0d5"/>
                  <path id="Path_30" data-name="Path 30" d="M-3350.052,321.118l1.421.816,1.438-.812-1.422-.817Z" fill="#cdd0d5"/>
                  <path id="Path_31" data-name="Path 31" d="M-3352.151,319.913l1.422.816,1.437-.813-1.422-.816Z" fill="#cdd0d5"/>
                  <path id="Path_32" data-name="Path 32" d="M-3354.25,318.707l1.422.817,1.437-.813-1.422-.816Z" fill="#cdd0d5"/>
                  <path id="Path_33" data-name="Path 33" d="M-3356.349,317.5l1.422.817,1.438-.813-1.422-.817Z" fill="#cdd0d5"/>
                  <path id="Path_34" data-name="Path 34" d="M-3358.448,316.3l1.422.816,1.438-.812-1.422-.817Z" fill="#cdd0d5"/>
                  <path id="Path_35" data-name="Path 35" d="M-3360.547,315.092l1.422.816,1.438-.813-1.422-.816Z" fill="#cdd0d5"/>
                  <path id="Path_36" data-name="Path 36" d="M-3362.645,313.886l1.421.817,1.438-.813-1.422-.816Z" fill="#cdd0d5"/>
                  <path id="Path_37" data-name="Path 37" d="M-3364.744,312.681l2.384,1.369,1.438-.812-2.384-1.369Z" fill="#cdd0d5"/>
                  <path id="Path_38" data-name="Path 38" d="M-3344.615,326.54l2.362,1.356,1.437-.813-2.361-1.356Z" fill="#cdd0d5"/>
                  <path id="Path_39" data-name="Path 39" d="M-3345.774,325.874l1.422.816,1.438-.812-1.422-.817Z" fill="#cdd0d5"/>
                  <path id="Path_40" data-name="Path 40" d="M-3347.873,324.669l1.422.816,1.438-.812-1.422-.817Z" fill="#cdd0d5"/>
                  <path id="Path_41" data-name="Path 41" d="M-3349.971,323.464l1.422.816,1.437-.813-1.422-.816Z" fill="#cdd0d5"/>
                  <path id="Path_42" data-name="Path 42" d="M-3352.07,322.258l1.422.817,1.437-.813-1.422-.816Z" fill="#cdd0d5"/>
                  <path id="Path_43" data-name="Path 43" d="M-3354.169,321.053l1.422.817,1.438-.813-1.422-.817Z" fill="#cdd0d5"/>
                  <path id="Path_44" data-name="Path 44" d="M-3356.268,319.848l1.422.816,1.438-.812-1.422-.817Z" fill="#cdd0d5"/>
                  <path id="Path_45" data-name="Path 45" d="M-3358.367,318.643l1.422.816,1.438-.813-1.422-.816Z" fill="#cdd0d5"/>
                  <path id="Path_46" data-name="Path 46" d="M-3360.466,317.437l1.422.817,1.438-.813-1.422-.816Z" fill="#cdd0d5"/>
                  <path id="Path_47" data-name="Path 47" d="M-3362.564,316.232l1.422.817,1.437-.813-1.422-.816Z" fill="#cdd0d5"/>
                  <path id="Path_48" data-name="Path 48" d="M-3364.663,315.027l1.422.817,1.437-.813-1.421-.817Z" fill="#cdd0d5"/>
                  <path id="Path_49" data-name="Path 49" d="M-3366.762,313.822l1.422.816,1.438-.812-1.422-.817Z" fill="#cdd0d5"/>
                  <path id="Path_50" data-name="Path 50" d="M-3345.693,328.22l1.422.816,1.438-.812-1.422-.817Z" fill="#cdd0d5"/>
                  <path id="Path_51" data-name="Path 51" d="M-3347.792,327.015l1.422.816,1.438-.813-1.422-.816Z" fill="#cdd0d5"/>
                  <path id="Path_52" data-name="Path 52" d="M-3349.89,325.809l1.422.817,1.437-.813-1.422-.816Z" fill="#cdd0d5"/>
                  <path id="Path_53" data-name="Path 53" d="M-3351.989,324.6l1.422.817,1.437-.813-1.421-.816Z" fill="#cdd0d5"/>
                  <path id="Path_54" data-name="Path 54" d="M-3354.088,323.4l1.422.817,1.438-.813-1.422-.817Z" fill="#cdd0d5"/>
                  <path id="Path_55" data-name="Path 55" d="M-3356.187,322.194l1.422.816,1.438-.812-1.422-.817Z" fill="#cdd0d5"/>
                  <path id="Path_56" data-name="Path 56" d="M-3358.286,320.988l1.422.817,1.438-.813-1.422-.816Z" fill="#cdd0d5"/>
                  <path id="Path_57" data-name="Path 57" d="M-3360.385,319.783l1.422.817,1.438-.813-1.422-.816Z" fill="#cdd0d5"/>
                  <path id="Path_58" data-name="Path 58" d="M-3362.483,318.578l1.422.817,1.437-.813-1.422-.817Z" fill="#cdd0d5"/>
                  <path id="Path_59" data-name="Path 59" d="M-3364.582,317.373l1.422.816,1.437-.812-1.421-.817Z" fill="#cdd0d5"/>
                  <path id="Path_60" data-name="Path 60" d="M-3367.587,315.647l2.328,1.337,1.438-.813-2.329-1.337Z" fill="#cdd0d5"/>
                  <path id="Path_61" data-name="Path 61" d="M-3368.779,314.963l1.421.816,1.438-.813-1.422-.816Z" fill="#cdd0d5"/>
                  <path id="Path_62" data-name="Path 62" d="M-3347.989,329.518l1.421.816,1.438-.812-1.422-.817Z" fill="#cdd0d5"/>
                  <path id="Path_63" data-name="Path 63" d="M-3350.088,328.313l1.422.816,1.437-.812-1.422-.817Z" fill="#cdd0d5"/>
                  <path id="Path_64" data-name="Path 64" d="M-3352.187,327.108l1.422.816,1.438-.812-1.422-.817Z" fill="#cdd0d5"/>
                  <path id="Path_65" data-name="Path 65" d="M-3364.78,319.876l11.916,6.843,1.438-.813-11.916-6.842Z" fill="#cdd0d5"/>
                  <path id="Path_66" data-name="Path 66" d="M-3366.879,318.671l1.422.817,1.438-.813-1.422-.817Z" fill="#cdd0d5"/>
                  <path id="Path_67" data-name="Path 67" d="M-3368.977,317.466c.568.327.853.49,1.422.816l1.437-.812-1.422-.817Z" fill="#cdd0d5"/>
                  <path id="Path_68" data-name="Path 68" d="M-3371.076,316.261l1.422.816,1.437-.812-1.421-.817Z" fill="#cdd0d5"/>
                </g>
              </g>
              <path id="Path_69" data-name="Path 69" d="M-3355.043,327.3l-9.8-5.657-5.6,3.449,9.8,5.659Z" fill="#cdd0d5"/>
            </g>
            <path id="Path_70" data-name="Path 70" d="M-3359.04,283.9-3332.692,299a1.848,1.848,0,0,1,.93,1.6l.042,23.7-.859-.49c-5.124-7.572-24.43-36.115-26.962-40.013A.862.862,0,0,1-3359.04,283.9Z" fill="#fff9ff" opacity="0.2"/>
          </g>
        </g>
      </g>
      <g id="Group_23" data-name="Group 23">
        <path id="Path_71" data-name="Path 71" d="M-3355.658,297.107a.617.617,0,0,1,.34.187.144.144,0,0,0,.119.044.072.072,0,0,0,.063-.075.277.277,0,0,1,.2-.293.5.5,0,0,1,.4.15.8.8,0,0,1,.257.408.317.317,0,0,1-.077.345.1.1,0,0,0-.027.1.241.241,0,0,0,.052.114l.2.239a.21.21,0,0,0,.111.076.091.091,0,0,0,.093-.022c.033-.036.036-.109-.032-.192l-.094-.112a.518.518,0,0,0,.061-.421,1.494,1.494,0,0,0-.439-.739.765.765,0,0,0-.62-.257.4.4,0,0,0-.323.3.85.85,0,0,0-.384-.151c-.081-.01-.094.062-.072.133A.249.249,0,0,0-3355.658,297.107Z" fill="#fff"/>
        <path id="Path_72" data-name="Path 72" d="M-3352.067,300.3a2.845,2.845,0,0,1,.944.884c.049.077.127.12.177.1l.562-.276c.058-.026.059-.113,0-.2a4.657,4.657,0,0,0-1.731-1.61c-1.081-.576-2.065-.411-2.388.47-.01.028-.02.056-.029.085l-.637-.781a.211.211,0,0,0-.1-.071.079.079,0,0,0-.083.021.253.253,0,0,1-.306.058.762.762,0,0,1-.332-.306.667.667,0,0,1-.117-.439.261.261,0,0,1,.257-.241.079.079,0,0,0,.074-.073.2.2,0,0,0-.029-.127.541.541,0,0,1-.055-.605c.046-.057.011-.157-.045-.222s-.124-.1-.17-.042a.759.759,0,0,0-.023.777.392.392,0,0,0-.26.317,1.134,1.134,0,0,0,.175.747,1.2,1.2,0,0,0,.526.513.451.451,0,0,0,.446-.011l.612.751c-.258,1.462.905,3.468,2.43,4.327a2.016,2.016,0,0,0,1.732.271c.051-.022.059-.112.01-.19l-.545-.907a.2.2,0,0,0-.184-.11,1.3,1.3,0,0,1-.951-.184,2.74,2.74,0,0,1-1.352-2.21C-3353.446,300.214-3352.857,299.865-3352.067,300.3Z" fill="#fff"/>
        <path id="Path_73" data-name="Path 73" d="M-3348.14,303.534a1.6,1.6,0,0,0-.673-.2l.029-2.121a.269.269,0,0,0-.135-.211l-.794-.432c-.075-.04-.137-.012-.138.063l-.07,4.764a.274.274,0,0,0,.133.214l.777.437c.123.069.159.046.161-.048l.018-1.328c.006-.442.26-.432.492-.3a1.04,1.04,0,0,1,.522.868l-.018,1.334a.278.278,0,0,0,.137.216l.775.436c.076.043.14.016.141-.06l.015-1.325A2.682,2.682,0,0,0-3348.14,303.534Z" fill="#fff"/>
        <path id="Path_74" data-name="Path 74" d="M-3343.431,306.2l-.764-.421c-.074-.041-.156-.064-.157.053l-.014,1.41c0,.256-.168.444-.469.265a.985.985,0,0,1-.454-.762l.015-1.422a.279.279,0,0,0-.139-.217l-.789-.435c-.073-.04-.141-.019-.142.062l-.015,1.324a2.585,2.585,0,0,0,1.285,2.274.963.963,0,0,0,1.012.115l.11.338a.353.353,0,0,0,.141.184l.354.2c.078.045.143.017.144-.06l.024-2.687A.286.286,0,0,0-3343.431,306.2Z" fill="#fff"/>
        <path id="Path_75" data-name="Path 75" d="M-3341,307.47c-.672-.37-1.025-.094-1.025-.094l-.089-.3a.4.4,0,0,0-.158-.236l-.356-.2c-.079-.044-.144-.016-.145.061l-.041,4.935a.3.3,0,0,0,.143.225l.845.483c.08.045.146.018.147-.06l.015-2.178a3.023,3.023,0,0,0,.635.5c.823.463,1.538.343,1.543-.722A3.05,3.05,0,0,0-3341,307.47Zm-.168,2.093a1.186,1.186,0,0,1-.607-.94c0-.346.268-.47.624-.268a1.292,1.292,0,0,1,.6.865C-3340.5,309.627-3340.789,309.777-3341.171,309.563Z" fill="#fff"/>
        <path id="Path_76" data-name="Path 76" d="M-3336.841,312.631l-.172-.732a.28.28,0,0,0-.173-.2,1.841,1.841,0,0,1-.308-.119.342.342,0,0,1-.212-.3l0-.951.582.324c.087.048.15.015.151-.062l0-.677a.3.3,0,0,0-.15-.227l-.581-.321,0-.849a.276.276,0,0,0-.141-.213l-.835-.458c-.081-.044-.148-.016-.148.062l0,.837-.378-.208c-.077-.043-.139-.017-.14.066l0,.678a.274.274,0,0,0,.138.213l.379.21-.006,1.09a1.751,1.751,0,0,0,.935,1.583,4.826,4.826,0,0,0,.954.369C-3336.865,312.771-3336.825,312.709-3336.841,312.631Z" fill="#fff"/>
      </g>
    </g>
    <path id="Path_77" data-name="Path 77" d="M-3368.909,319.022c-.307-.029-.886-.141-.886-.141l-.821-.123-.391-.632a7.178,7.178,0,0,1-.894-1.009c-.313-.646-2.932-2.061-3.923-1.828-.535.167-2.352,2.047-4.156,2.85-1.246.442-4.493.523-6.2.638-3.616.244-8.29-.616-11.27-.73-.3,1.406-.628,2.806-.792,4.231a11.481,11.481,0,0,1,.239,2.472c1.316.011,2.725-.058,4.13-.186a123.665,123.665,0,0,0,12.524-1.84l3.274-.447,4.467,1.439s.807.257.607-.506c-.131-.5-1.67-1.334-2.706-1.837a.22.22,0,0,1,.03-.409s-.056-.084.837-.5c1.793-.834,5.507-.391,6.28-.538S-3368.136,319.093-3368.909,319.022Z" fill="#d3baa9"/>
    <g id="Group_26" data-name="Group 26">
      <g id="Group_25" data-name="Group 25">
        <path id="Path_78" data-name="Path 78" d="M-3396.333,393.769a4.145,4.145,0,0,0,.394,2.187,2.23,2.23,0,0,0,1.779.9c1.069.187,13.263-2.61,13.262-5.869a1.239,1.239,0,0,0-.539-.935c-1.793-1.076-4.193-.887-6.521-.428-1.046.211-1.286-1.072-1.286-1.072l-1.458.488-4.39.222v.007l-.543.024s-.049.132-.126.38A15.819,15.819,0,0,0-3396.333,393.769Z" fill="#7f7f7f"/>
        <path id="Path_79" data-name="Path 79" d="M-3385.3,390.887a2.371,2.371,0,0,0,.29.034,10.169,10.169,0,0,0-.434,1.608,22.509,22.509,0,0,1-.6,2.253,12.427,12.427,0,0,1-1.36.322c.136-.378.29-.845.459-1.39a12.859,12.859,0,0,0,.716-2.692,2.875,2.875,0,0,0,.467-.071c.266-.041.419-.064.465-.064Z" fill="#bcbfc5"/>
      </g>
      <path id="Path_80" data-name="Path 80" d="M-3382.919,363.266l-.292-2.129-.039-.265c-.041-.275-.078-.531-.117-.791-.231.053-.466.105-.7.158q-.726.163-1.489.32a38.747,38.747,0,0,1-4.716.705c-.046,0-.094.006-.14.009a27.447,27.447,0,0,1-4.538-.019c-.078.579-.108.819-.108.856-.016.228-1.115,5.25-2.551,11.793-.5,2.247.874,15.166,1.162,15.941,1.125,3.028,3.571,2.172,4.729,1.986a4.728,4.728,0,0,0,2.331-.613c.987-.774.27-.417,1.156-1.31.145-.147,1.2-11.784,1.554-19.075,0-1.306,3.685-4.24,3.706-5.362C-3382.961,364.694-3382.948,363.939-3382.919,363.266Z" fill="#7f7f7f"/>
    </g>
    <g id="Group_27" data-name="Group 27">
      <path id="Path_81" data-name="Path 81" d="M-3402.086,379.774l-2.411,46.06a.973.973,0,0,1-1.022.921.976.976,0,0,1-.921-.922l-2.352-46.063a3.358,3.358,0,0,1,3.182-3.524,3.358,3.358,0,0,1,3.524,3.182C-3402.08,379.543-3402.081,379.661-3402.086,379.774Z" fill="#999"/>
      <path id="Path_82" data-name="Path 82" d="M-3406.136,420.314a.689.689,0,0,0-.69.725l.237,4.653a1.126,1.126,0,0,0,1.062,1.062,1.122,1.122,0,0,0,1.179-1.061l.243-4.652a.691.691,0,0,0-.689-.727Z" fill="#fff"/>
    </g>
    <g id="Group_28" data-name="Group 28">
      <path id="Path_83" data-name="Path 83" d="M-3416.578,368.245-3442,406.734a.974.974,0,0,1-1.349.276.978.978,0,0,1-.326-1.262l21.321-40.9a3.356,3.356,0,0,1,4.528-1.425,3.357,3.357,0,0,1,1.426,4.529C-3416.456,368.049-3416.516,368.151-3416.578,368.245Z" fill="#999"/>
      <path id="Path_84" data-name="Path 84" d="M-3440.618,401.144a.691.691,0,0,0-.962.276l-2.154,4.132a1.127,1.127,0,0,0,.377,1.454,1.122,1.122,0,0,0,1.554-.318l2.568-3.887a.691.691,0,0,0-.226-.976Z" fill="#fff"/>
    </g>
    <path id="Path_85" data-name="Path 85" d="M-3404.85,374.8c-.419.587-2.094,2.47-2.094,2.47l2.681,3.229,2.43,2.85,4.61.754,9.471-1.844s11.941-5.869,13.383-10.979" fill="#999"/>
    <path id="Path_86" data-name="Path 86" d="M-3398.024,384.739s13.932,1.795,23.655-12.621c0,0-12.806,14.578-28.307,9.412-.693,1.259.76,2.479.76,2.479Z" fill="#fff"/>
    <path id="Path_87" data-name="Path 87" d="M-3375.825,370.762a25.454,25.454,0,0,1-4.887-4.512c-3.547-3.971-4.628-1.694-9.87-6.7-5.995-5.727-14.363-3.936-20.96,0s.311,15.812,4.6,17.723C-3394.953,382.615-3377.02,372.408-3375.825,370.762Z" fill="#999"/>
    <g id="Group_31" data-name="Group 31">
      <path id="Path_88" data-name="Path 88" d="M-3407.482,305.927l-.927,6.785,8.172.223.374-5.387Z" fill="#eac9b2"/>
      <g id="Group_30" data-name="Group 30">
        <path id="Path_89" data-name="Path 89" d="M-3415.761,350.669s-7.667,16.881,6.66,24.207c12.2,5.738,15.992-3.059,29.987-5.125.1,6.366,12.308-2.335,11.023-9.146-3.041-8.173-24.767-5.068-24.767-5.068Z" fill="#bcbfc5"/>
        <path id="Path_90" data-name="Path 90" d="M-3413.215,316.949c2.107-3.92,5.509-4.756,9.079-4.541,5.268.236,6.671-.051,12.429,5.666,2.367,2.35-2.355,5.784.848,12.19-1.047,13.007.2,17.736,2.208,23.33,1.178,3.287,1.993,4.77,2.523,5.362.255.285-.436.237-.8.365-4.536,1.614-22.746,7.164-30.736-4.441,0,0,3.435-12.171,3.211-16.836S-3416.486,323.029-3413.215,316.949Z" fill="#7f7f7f"/>
        <path id="Path_91" data-name="Path 91" d="M-3355.116,328.187c-.856.08-5.331,1.138-5.359,1.145h0l-2.381-.668c.85-.727,2.1-1.912,2.085-2.575-.021-.861-.79-.347-.79-.347l-4.251,2.863-3.57.525-.043.081c-4.668.386-11.363,1.019-13.9.651-.828-.119-5.547-10.392-11.306-14.539-4.955-3.568-8.857,2.679-4.581,7.04l.145.146a129.859,129.859,0,0,1,9.663,10.667c1.922,2.288,2.375,2.54,7.762,2.324,4.5-.18,9.645-2.032,15.784-1.119.206.04.413.083.62.131.229.053,3.853.731,3.912.742l0,.005.132-.077,2.539-1.528.009,0,.814-.492-.021-.364-.019-.471-.025-.44-.039-.022-.008,0h0l.009,0,.451-.158.083-.213.009,0,.256-.67.278-.69-.059-.092.824-.378.887-.416S-3354.258,328.107-3355.116,328.187Z" fill="#eac9b2"/>
        <g id="Group_29" data-name="Group 29">
          <path id="Path_92" data-name="Path 92" d="M-3379.353,403.085a4.744,4.744,0,0,0,.449,2.5,2.547,2.547,0,0,0,2.032,1.031c1.221.214,15.147-2.98,15.146-6.7a1.415,1.415,0,0,0-.616-1.068c-2.048-1.228-4.788-1.013-7.448-.489-1.194.241-1.468-1.224-1.468-1.224l-1.664.558-5.015.252v.009l-.619.028s-.056.15-.144.434A18.02,18.02,0,0,0-3379.353,403.085Z" fill="#7f7f7f"/>
          <path id="Path_93" data-name="Path 93" d="M-3366.671,399.521a2.55,2.55,0,0,0,.325.029,14.8,14.8,0,0,0-.581,2.034c-.236.994-.5,1.936-.808,2.842a13.5,13.5,0,0,1-1.537.452c.174-.476.371-1.064.591-1.75a18.629,18.629,0,0,0,.956-3.394,3.055,3.055,0,0,0,.528-.111c.3-.064.474-.1.526-.1Z" fill="#bcbfc5"/>
        </g>
        <path id="Path_94" data-name="Path 94" d="M-3367.669,365.719c.688-5.122-1.119-6.526-1.123-6.48,0-.046.006-.087.01-.133a11.228,11.228,0,0,0-3.322-2.1h0c-.041-.009-.085-.014-.127-.022a6.283,6.283,0,0,0-2.044-.033,28.316,28.316,0,0,0-5.4,1.67c.025.281.042.559.068.841l.024.278.174,2.236c-.056.734-.1,1.522-.15,2.366-.106,1.37,1.1,3,.715,4.188-2.709,8.257-1.977,17.24-.122,30.8.168,1.221,5.159.4,6.2-.148.907-.477,2.464-.838,2.42-1.942C-3370.986,381.311-3367.75,369.117-3367.669,365.719Z" fill="#bcbfc5"/>
      </g>
      <path id="Path_95" data-name="Path 95" d="M-3393.174,293.118s2.094,12.8-6.1,14.754-7.546-9.517-7.546-9.517l4.492-7Z" fill="#eac9b2"/>
      <path id="Path_96" data-name="Path 96" d="M-3392.571,291.843s.641-8.927-9.591-11.485c-8.013-2-16.231,2.235-16.591,14-.307,10.016,7.982,16.166,15.659,14.185,3.273-.845,3.24-1.182,4.2-2.132,1.97-1.946,1.16-2.3-.052-1.059-.962.985-2.923-1.574-1.71-5.81.948-3.311,3.022-4.814,3.417.353a8.148,8.148,0,0,1,1.507-3.309A16.9,16.9,0,0,0-3392.571,291.843Z" fill="#7f7f7f"/>
      <path id="Path_97" data-name="Path 97" d="M-3414.722,285.813a10.758,10.758,0,0,0-5.5-5.292c-3.824-1.429-9.23-.858-9.857,5.8s-1.856,22.923-8.041,25.456c0,0,4.381-.514,5.874-2.852a11.429,11.429,0,0,1-4.2,7.495c5.052-2.775,9.624-5.925,11.082-11.831a25.017,25.017,0,0,0,.776-7.171c-.126-2.645-.307-5.642,1.306-7.92.736-1.04,2.436-2.177,3.359-.584,1.706,2.945,4.865-1.2,4.865-1.2Z" fill="#7f7f7f"/>
    </g>
    <path id="Path_98" data-name="Path 98" d="M-3398.024,384.739s-2.332.725-9.815-1.334c-10.5-2.888-19-9.38-24.363-13.072s-7.512-16.4-7.823-28.277c-.257-9.834.224-14.975,8.494-10.505s15.552,10.813,17.787,18.412S-3406.752,383.141-3398.024,384.739Z" fill="#eff0f2"/>
    <path id="Path_99" data-name="Path 99" d="M-3399.737,384.812s-2.946,1.246-10.282-1.407c-10.237-3.7-19-9.38-24.362-13.072s-7.512-16.4-7.823-28.277c-.257-9.834.224-14.975,8.494-10.505s16.092,10.729,18.327,18.328S-3408.134,384.034-3399.737,384.812Z" fill="#dfe1e5"/>
    <g id="Group_32" data-name="Group 32">
      <path id="Path_100" data-name="Path 100" d="M-3368.207,411.613l-13.065-32.1a25.961,25.961,0,0,1-4.9,3.011l16,30.009a1.088,1.088,0,0,0,1.472.448A1.093,1.093,0,0,0-3368.207,411.613Z" fill="#999"/>
      <path id="Path_101" data-name="Path 101" d="M-3371.129,406.169a.773.773,0,0,1,1.043.408l1.963,4.823a1.26,1.26,0,0,1-.572,1.579,1.254,1.254,0,0,1-1.7-.516l-2.45-4.6a.772.772,0,0,1,.354-1.062Z" fill="#fff"/>
    </g>
    <path id="Path_102" data-name="Path 102" d="M-3414.947,283.64c-.23-.12-.535.175-.676.322-.2.212-.053.1.02.4a2.691,2.691,0,0,1,.282,3.47c-.712.929-1.908,2.274-3.257,2.079-.394-.057-.681-.407-.652-.059.017.209.212.944.434,1.033,1.591.637,3.883-1.3,4.692-2.868C-3413.368,286.593-3413.414,284.437-3414.947,283.64Z" fill="#333"/>
    <g id="Group_38" data-name="Group 38">
      <g id="Group_33" data-name="Group 33">
        <path id="Path_103" data-name="Path 103" d="M-3327.132,389.43c-.69,1.82-1.379,2.886-2.007,2.572s-1.967-.3-.764-3.381" fill="#ef7a6b"/>
        <path id="Path_104" data-name="Path 104" d="M-3328.637,389.252a3.409,3.409,0,0,0-.585,1.442l-.115-.007a1.926,1.926,0,0,1,.667-1.469Z" fill="#a85852"/>
      </g>
      <g id="Group_37" data-name="Group 37">
        <g id="Group_34" data-name="Group 34" opacity="0.2">
          <ellipse id="Ellipse_3" data-name="Ellipse 3" cx="21.364" cy="34.958" rx="21.364" ry="34.958" transform="translate(-3329.292 438.983) rotate(-87.542)" fill="#b3b3b3"/>
        </g>
        <path id="Path_105" data-name="Path 105" d="M-3289.775,413.624l2.88,2.085c-1.116,2.221-3.077,3.5-4.259,5.46-2.816.152-5.627.408-8.43.409a4.412,4.412,0,0,1-3.436-1.826,4.762,4.762,0,0,1,.352-3.9,6.576,6.576,0,0,1,4.84-4.144c1.782-.326,4.553,4.213,6.42,3.913Z" fill="#999"/>
        <path id="Path_106" data-name="Path 106" d="M-3286.369,405.176a18.049,18.049,0,0,0,2.567,5.779c1.37,2.154,1.913,4.33,3.785,5.743a9.31,9.31,0,0,0,.405-4.474c3.292.449,9.519.15,12.249-1.468,1.932-1.145,4.529-2.486,5.271-4.569a7.183,7.183,0,0,0,.069-1.788c-.928.558-1.47.932-2.044,1.236-6.411,3.4-12.643,3.126-17,.5C-3281.047,406.217-3286.394,405.087-3286.369,405.176Z" fill="#999"/>
        <path id="Path_107" data-name="Path 107" d="M-3280.343,416.752c4.782-17.076-22.1-32.68-24.268-32.325a3.839,3.839,0,0,1-3.695-1.036c.032-.911.076-1.931.1-2.953a7.381,7.381,0,0,0-.7-3.449c-.4.735-1.044.7-1.518,1.583-2.1-1.825-3.1-2.645-3.37-5.347.5-.42.54-1.118.967-1.477l-2.742-1.767c-.365.706-1.049.39-1.574.332a4.225,4.225,0,0,0-3.75,1.076c-.183.185-.586.171-.888.249a18.192,18.192,0,0,1-1.508,1.864,6.412,6.412,0,0,0-1.85,2.91c.536.152,1.267.075,1.2,1.135h-1.484c.013-.456.022-.747.03-1.038-.227.074-.542.082-.669.234a32.741,32.741,0,0,0-3.088,3.924c-.644,1.079-1.845,1.9-1.81,3.338,1.413.309,2.793.677,3.58,2.033-.318,1.372-2.033-.119-2.748.563-.568-.7-.7-.534-1.168-1.111-.582,2.688,3.052,5.124,5.586,4.547,1.776-.4,3.548-.845,5.427-1.3-.056,1.815,0,3.527-.186,5.2a15.64,15.64,0,0,0,1.412,7.7c.839.947,1.644,1.925,2.531,2.833a16.862,16.862,0,0,0,2.232,1.942,13.96,13.96,0,0,0,2.083,1.074c.708.341,1.563.49,1.866,1.342l1.022.083a8.869,8.869,0,0,1,.487,1.289c.905,4.367,1.922,8.721,2.624,13.1a13.084,13.084,0,0,1-.551,7.257l-2.156,1.423.583,1.825,2.268,1.27,3.008-1.634c1.409-7.332,2.767-11.231,3.627-17.528a.589.589,0,0,1,1.1-.208c1.924,3.4,6.393,5.712,8.115,4.616C-3290.715,418.581-3279.468,422.457-3280.343,416.752Z" fill="#bcbfc5"/>
        <path id="Path_108" data-name="Path 108" d="M-3319.057,401.643c.839.947,1.644,1.925,2.531,2.833a16.862,16.862,0,0,0,2.232,1.942,13.96,13.96,0,0,0,2.083,1.074c.708.341,1.563.49,1.866,1.342-.349,2.14-.7,4.276-1.043,6.411a6.809,6.809,0,0,0-.06.939,46.7,46.7,0,0,1-1.086,9.007,11.326,11.326,0,0,0-.075,1.829l-2.788,1.724a3.954,3.954,0,0,1-3.234-2.077c.03-1.163.827-1.594,1.79-1.861,1.561-2.5,1.314-5.279.764-8.076-.964-4.9-1.991-9.8-2.988-14.71A1.627,1.627,0,0,1-3319.057,401.643Z" fill="#999"/>
        <path id="Path_109" data-name="Path 109" d="M-3309.045,377.239l-.482.895a1.062,1.062,0,0,1-1.673.261,9.175,9.175,0,0,1-2.9-4.916,1.05,1.05,0,0,1,.372-.976l.717-.6a1.03,1.03,0,0,1,.408-.212c.781-.206,1.993-1.1,2.822-1.313.55-.145.96-.234.936.334a56.9,56.9,0,0,0-.083,6A1.049,1.049,0,0,1-3309.045,377.239Z" fill="#999"/>
        <path id="Path_110" data-name="Path 110" d="M-3315.573,369.981c-.365.706-1.049.39-1.574.332a4.225,4.225,0,0,0-3.75,1.076c-.183.185-.586.171-.888.249.148-1.551.733-4.856,1.063-6.655a.632.632,0,0,1,1.087-.317A28.262,28.262,0,0,1-3315.573,369.981Z" fill="#999"/>
        <path id="Path_111" data-name="Path 111" d="M-3331.059,383.907c1.02-.214,4.1,1.049,4.053,2.1-.337,1.457-2.371.223-3.02,1.172l-1.39-1.7C-3331.827,385.033-3331.777,384-3331.059,383.907Z" fill="#333"/>
        <path id="Path_112" data-name="Path 112" d="M-3325.143,376.412c.536.152,1.267.075,1.2,1.135-.09.255-.9.342-1.484,0-.1-.622-.1-.917.03-1.038C-3325.289,376.4-3325.2,376.377-3325.143,376.412Z" fill="#333"/>
        <path id="Path_113" data-name="Path 113" d="M-3317.926,380.857c-1.464.436-2.18.292-2.242-1.148C-3319.117,379.436-3318.568,379.843-3317.926,380.857Z" fill="#333"/>
        <g id="Group_35" data-name="Group 35">
          <path id="Path_114" data-name="Path 114" d="M-3318.2,392.432c-4.97-.2-3.328-3.388-2.083-3.627l-.033,2.014c.221.037.507-1.417.486-1.461.025.052.92,1.614,5.267.163,3.838-1.281,6.533-4.624,6.573-5.783,0,.024-.314-.347-.314-.347a1.027,1.027,0,0,1,1.484-.326c.434.228,1.019.216.986,1.156-.088,2.517-4.036,5.6-7.729,7.214A10.1,10.1,0,0,1-3318.2,392.432Z" fill="#333"/>
        </g>
        <g id="Group_36" data-name="Group 36">
          <path id="Path_115" data-name="Path 115" d="M-3320.2,392.5l-.715-.345a1.076,1.076,0,0,1-.625-.987l.038-1.236a1.044,1.044,0,0,1,1.539-.842l.716.345a1.077,1.077,0,0,1,.628.989l-.039,1.238A1.044,1.044,0,0,1-3320.2,392.5Z" fill="#108c16"/>
          <path id="Path_116" data-name="Path 116" d="M-3320.677,392.55l-.714-.345a1.076,1.076,0,0,1-.625-.987l.038-1.235a1.043,1.043,0,0,1,1.538-.841l.716.344a1.078,1.078,0,0,1,.627.989l-.039,1.237A1.043,1.043,0,0,1-3320.677,392.55Z" fill="#27cc33"/>
        </g>
        <path id="Path_117" data-name="Path 117" d="M-3289.72,419.34s-3.422,3.25-4.306,3.431a23.094,23.094,0,0,1-2.366.284l-1.407.926-.612,1.507-.03.71,3.335,1.4,13.513-7.531s1.691-.067,1.638-5.114-4.4-4.8-4.4-4.8Z" fill="#bcbfc5"/>
      </g>
    </g>
  </g>
</svg>
