<svg xmlns="http://www.w3.org/2000/svg" width="278.507" height="297.008" viewBox="0 0 278.507 297.008">
  <g id="Group_113" data-name="Group 113" transform="translate(1962.731 -196.954)">
    <g id="Group_55" data-name="Group 55">
      <path id="Path_160" data-name="Path 160" d="M-1822.038,493.934c76.055-1.22,137.076-41.6,136.3-90.2l-.079-8.321-275.365,5.392.029,7.346C-1960.376,456.746-1898.092,495.153-1822.038,493.934Z" fill="#cdd0d5"/>
      <ellipse id="Ellipse_7" data-name="Ellipse 7" cx="137.726" cy="88.004" rx="137.726" ry="88.004" transform="translate(-1962.596 312.811) rotate(-0.919)" fill="#fcfcfc" stroke="#cdd0d5" stroke-miterlimit="10" stroke-width="0.265"/>
    </g>
    <g id="Group_99" data-name="Group 99">
      <g id="Group_97" data-name="Group 97">
        <path id="Path_161" data-name="Path 161" d="M-1943.306,394.537l88.225,50.937,124.59-71.953-88.053-50.837Z" fill="#b3b3b3" opacity="0.2"/>
        <path id="Path_162" data-name="Path 162" d="M-1868.311,427.377l97.049-57.844V273.7l-97.049,54.185Z" fill="#bcbfc5"/>
        <path id="Path_163" data-name="Path 163" d="M-1781.49,305.486v-11.65l-.1.059v-.125l-.1.059V293.7l-.1.059v-.125l-.1.059v-.125l-.1.059V293.5l-.1.059v-.125l-.1.059v-.125l-.1.059v-.125l-.1.059v-.125l-.1.059v-.125l-.1.059v-.125l-.1.059v-.125l-.1.059v-.125l-.1.059v-.125l-.1.059v-.125l-.1.059v-.125l-.1.059v-.125l-11.8,7.032v.84l-.006,0v-.125l-.1.059V300.4l-.1.059v-.125l-.1.059v-.125l-.1.059V300.2l-.1.059v-.125l-.1.059v-.125l-11.8,7.032v.84l-.006,0v-.125l-.1.059v-.125l-.1.059v-.125l-.1.059v-.125l-.1.059v-.125l-.1.059v-.125l-.1.059v-.125l-11.8,7.032v.84l-.006,0v-.125l-.1.059V315.1l-.1.059v-.125l-.1.059v-.125l-.1.059v-.125l-.1.059v-.125l-.1.059v-.125l-11.8,7.032v.84l-.006,0v-.125l-.1.059v-.125l-.1.059v-.125l-.1.059v-.125l-.1.059v-.125l-.1.059v-.125l-.1.059v-.125l-11.8,7.032V330l-.006,0v-.125l-.1.059v-.125l-.1.059v-.125l-.1.059v-.125l-.1.059v-.125l-.1.059v-.125l-.1.059v-.125l-11.8,7.032v11.65l.1-.059v.125l.1-.059v.125l.1-.059v.125l.1-.059v.125l.1-.059v.125l.1-.059v.054l-.595.355v11.65l.1-.059v.125l.1-.059v.125l.1-.059v.125l.1-.059v.125l.1-.059v.125l.1-.059v.054l-.595.355v11.65l.1-.059v.125l.1-.059v.125l.1-.059v.125l.1-.059v.125l.1-.059v.125l.1-.059v.054l-.595.355v11.65l.1-.059v.125l.1-.059v.125l.1-.059v.125l.1-.059v.125l.1-.059v.125l.1-.059v.125l.1-.059v.125l.1-.059v.125l.1-.059v.125l.1-.059v.125l.1-.059v.125l.1-.059v.125l.1-.059v.125l.1-.059v.125l.1-.059v.125l.1-.059v.125l.1-.059v.125l11.8-7.032v-.84l.006,0v.125l.1-.059v.125l.1-.059v.125l.1-.059v.125l.1-.059v.125l.1-.059v.125l.1-.059v.125l11.8-7.032v-.84l.006,0v.125l.1-.059v.125l.1-.059v.125l.1-.059v.125l.1-.059v.125l.1-.059v.125l.1-.059v.125l11.8-7.032v-.84l.006,0v.125l.1-.059v.125l.1-.059v.125l.1-.059v.125l.1-.059v.125l.1-.059v.125l.1-.059v.125l11.8-7.032v-.84l.006,0v.125l.1-.059v.125l.1-.059v.125l.1-.059v.125l.1-.059v.125l.1-.059v.125l.1-.059v.125l11.8-7.032v-.84l.006,0v.125l.1-.059v.125l.1-.059v.125l.1-.059v.125l.1-.059v.125l.1-.059v.125l.1-.059v.125l11.8-7.032v-11.65l-.1.059v-.125l-.1.059v-.125l-.1.059v-.125l-.1.059v-.125l-.1.059V330.5l-.1.059V330.5l.595-.355V318.5l-.1.059v-.125l-.1.059v-.125l-.1.059V318.3l-.1.059v-.125l-.1.059v-.125l-.1.059v-.054l.595-.355v-11.65l-.1.059V306.1l-.1.059v-.125l-.1.059v-.125l-.1.059V305.9l-.1.059v-.125l-.1.059v-.054Z" fill="#7f7f7f"/>
        <g id="Group_81" data-name="Group 81">
          <g id="Group_80" data-name="Group 80">
            <g id="Group_56" data-name="Group 56">
              <path id="Path_164" data-name="Path 164" d="M-1854.48,348.52c-.407,0-.67-.325-.67-.828v-9.4a2.352,2.352,0,0,1,1.035-1.822l9.865-5.88a1,1,0,0,1,.51-.158c.407,0,.669.325.669.828v9.4a2.348,2.348,0,0,1-1.035,1.821l-9.865,5.881A1,1,0,0,1-1854.48,348.52Z" fill="#3993f3"/>
              <path id="Path_165" data-name="Path 165" d="M-1843.74,330.573c.313,0,.529.251.529.687v9.4a2.2,2.2,0,0,1-.966,1.7l-9.866,5.88a.865.865,0,0,1-.437.138c-.314,0-.529-.251-.529-.687v-9.4a2.2,2.2,0,0,1,.966-1.7l9.866-5.88a.865.865,0,0,1,.437-.138m0-.282a1.135,1.135,0,0,0-.581.178l-9.866,5.88a2.471,2.471,0,0,0-1.1,1.943v9.4c0,.669.407.968.811.968a1.135,1.135,0,0,0,.581-.177l9.866-5.88a2.473,2.473,0,0,0,1.1-1.943v-9.4c0-.669-.407-.969-.81-.969Z" fill="#fff"/>
            </g>
            <g id="Group_57" data-name="Group 57">
              <path id="Path_166" data-name="Path 166" d="M-1854.48,360.85c-.407,0-.67-.325-.67-.828v-9.4a2.351,2.351,0,0,1,1.035-1.821l9.865-5.881a1,1,0,0,1,.51-.158c.407,0,.669.325.669.828v9.4a2.351,2.351,0,0,1-1.035,1.821l-9.865,5.88a1,1,0,0,1-.509.158Z" fill="#3993f3"/>
              <path id="Path_167" data-name="Path 167" d="M-1843.74,342.9c.313,0,.529.251.529.687v9.4a2.2,2.2,0,0,1-.966,1.7l-9.866,5.88a.875.875,0,0,1-.437.138c-.314,0-.529-.252-.529-.687v-9.4a2.2,2.2,0,0,1,.966-1.7l9.866-5.88a.865.865,0,0,1,.437-.138m0-.281a1.135,1.135,0,0,0-.581.178l-9.866,5.88a2.469,2.469,0,0,0-1.1,1.942v9.4c0,.669.407.968.811.968a1.137,1.137,0,0,0,.581-.178l9.866-5.88a2.473,2.473,0,0,0,1.1-1.942v-9.4c0-.669-.407-.968-.81-.968Z" fill="#fff"/>
            </g>
            <g id="Group_58" data-name="Group 58">
              <path id="Path_168" data-name="Path 168" d="M-1854.48,373.181c-.407,0-.67-.325-.67-.828v-9.4a2.351,2.351,0,0,1,1.035-1.822l9.865-5.88a1,1,0,0,1,.51-.158c.407,0,.669.324.669.827v9.4a2.353,2.353,0,0,1-1.035,1.822l-9.865,5.88A1,1,0,0,1-1854.48,373.181Z" fill="#3993f3"/>
              <path id="Path_169" data-name="Path 169" d="M-1843.74,355.233c.313,0,.529.252.529.688v9.4a2.2,2.2,0,0,1-.966,1.7l-9.866,5.88a.865.865,0,0,1-.437.138c-.314,0-.529-.251-.529-.687v-9.4a2.2,2.2,0,0,1,.966-1.7l9.866-5.88a.867.867,0,0,1,.437-.139m0-.281a1.135,1.135,0,0,0-.581.178l-9.866,5.88a2.471,2.471,0,0,0-1.1,1.943v9.4c0,.669.407.968.811.968a1.136,1.136,0,0,0,.581-.177l9.866-5.88a2.473,2.473,0,0,0,1.1-1.943v-9.4c0-.669-.407-.969-.81-.969Z" fill="#fff"/>
            </g>
            <g id="Group_59" data-name="Group 59">
              <path id="Path_170" data-name="Path 170" d="M-1854.481,385.512c-.406,0-.669-.325-.669-.828v-9.4a2.354,2.354,0,0,1,1.035-1.822l9.865-5.879a1,1,0,0,1,.51-.159c.407,0,.669.325.669.828v9.4a2.351,2.351,0,0,1-1.035,1.822l-9.865,5.881a1.007,1.007,0,0,1-.51.158Z" fill="#3993f3"/>
              <path id="Path_171" data-name="Path 171" d="M-1843.74,367.564c.313,0,.529.251.529.687v9.4a2.2,2.2,0,0,1-.966,1.7l-9.866,5.881a.875.875,0,0,1-.437.138c-.314,0-.529-.252-.529-.687v-9.4a2.2,2.2,0,0,1,.966-1.7l9.866-5.88a.865.865,0,0,1,.437-.138m0-.281a1.143,1.143,0,0,0-.581.177l-9.866,5.881a2.469,2.469,0,0,0-1.1,1.942v9.4c0,.668.407.968.811.968a1.137,1.137,0,0,0,.581-.178l9.866-5.88a2.473,2.473,0,0,0,1.1-1.942v-9.4c0-.669-.407-.968-.81-.968Z" fill="#fff"/>
            </g>
            <g id="Group_60" data-name="Group 60">
              <path id="Path_172" data-name="Path 172" d="M-1842.082,341.166c-.406,0-.669-.325-.669-.828v-9.4a2.352,2.352,0,0,1,1.035-1.822l9.866-5.88a1,1,0,0,1,.509-.158c.407,0,.67.325.67.828v9.4a2.355,2.355,0,0,1-1.035,1.822l-9.866,5.88A1,1,0,0,1-1842.082,341.166Z" fill="#3993f3"/>
              <path id="Path_173" data-name="Path 173" d="M-1831.341,323.219c.313,0,.529.251.529.687v9.4a2.2,2.2,0,0,1-.966,1.7l-9.866,5.88a.865.865,0,0,1-.437.138c-.314,0-.529-.251-.529-.687v-9.4a2.2,2.2,0,0,1,.966-1.7l9.866-5.88a.865.865,0,0,1,.437-.138m0-.282a1.135,1.135,0,0,0-.581.178l-9.866,5.88a2.47,2.47,0,0,0-1.1,1.943v9.4c0,.669.407.969.81.969a1.137,1.137,0,0,0,.581-.178l9.866-5.88a2.473,2.473,0,0,0,1.1-1.943v-9.4c0-.669-.407-.969-.81-.969Z" fill="#fff"/>
            </g>
            <g id="Group_61" data-name="Group 61">
              <path id="Path_174" data-name="Path 174" d="M-1842.082,353.5c-.406,0-.669-.325-.669-.828v-9.4a2.351,2.351,0,0,1,1.035-1.821l9.866-5.881a.994.994,0,0,1,.509-.157c.407,0,.67.324.67.827v9.4a2.352,2.352,0,0,1-1.036,1.821l-9.865,5.88A1,1,0,0,1-1842.082,353.5Z" fill="#3993f3"/>
              <path id="Path_175" data-name="Path 175" d="M-1831.341,335.549c.313,0,.529.251.529.687v9.4a2.2,2.2,0,0,1-.966,1.7l-9.866,5.88a.874.874,0,0,1-.437.138c-.314,0-.529-.252-.529-.687v-9.4a2.2,2.2,0,0,1,.966-1.7l9.866-5.88a.864.864,0,0,1,.437-.138m0-.281a1.134,1.134,0,0,0-.581.178l-9.866,5.88a2.47,2.47,0,0,0-1.1,1.942v9.4c0,.669.407.968.81.968a1.137,1.137,0,0,0,.581-.178l9.866-5.88a2.473,2.473,0,0,0,1.1-1.942v-9.4c0-.669-.407-.968-.81-.968Z" fill="#fff"/>
            </g>
            <g id="Group_62" data-name="Group 62">
              <path id="Path_176" data-name="Path 176" d="M-1842.081,365.827c-.407,0-.67-.325-.67-.828v-9.4a2.351,2.351,0,0,1,1.035-1.822l9.866-5.88a1,1,0,0,1,.509-.158c.407,0,.67.324.67.827v9.4a2.357,2.357,0,0,1-1.035,1.822l-9.866,5.88A1,1,0,0,1-1842.081,365.827Z" fill="#3993f3"/>
              <path id="Path_177" data-name="Path 177" d="M-1831.341,347.88c.313,0,.529.251.529.687v9.4a2.2,2.2,0,0,1-.966,1.7l-9.866,5.88a.865.865,0,0,1-.437.138c-.314,0-.529-.251-.529-.687v-9.4a2.2,2.2,0,0,1,.966-1.7l9.866-5.88a.865.865,0,0,1,.437-.138m0-.282a1.134,1.134,0,0,0-.581.178l-9.866,5.88a2.47,2.47,0,0,0-1.1,1.943V365c0,.669.407.968.81.968a1.136,1.136,0,0,0,.581-.177l9.866-5.88a2.473,2.473,0,0,0,1.1-1.943v-9.4c0-.669-.407-.969-.81-.969Z" fill="#fff"/>
            </g>
            <g id="Group_63" data-name="Group 63">
              <path id="Path_178" data-name="Path 178" d="M-1842.082,378.157c-.406,0-.669-.324-.669-.827v-9.4a2.354,2.354,0,0,1,1.035-1.822l9.866-5.879a1,1,0,0,1,.509-.159c.407,0,.67.325.67.828v9.4a2.353,2.353,0,0,1-1.035,1.821l-9.866,5.88A1,1,0,0,1-1842.082,378.157Z" fill="#3993f3"/>
              <path id="Path_179" data-name="Path 179" d="M-1831.341,360.21c.313,0,.529.251.529.687v9.4a2.2,2.2,0,0,1-.966,1.7l-9.866,5.88a.875.875,0,0,1-.437.138c-.314,0-.529-.252-.529-.687v-9.4a2.2,2.2,0,0,1,.966-1.7l9.866-5.88a.865.865,0,0,1,.437-.138m0-.281a1.135,1.135,0,0,0-.581.178l-9.866,5.88a2.468,2.468,0,0,0-1.1,1.942v9.4c0,.669.407.968.81.968a1.137,1.137,0,0,0,.581-.178l9.866-5.88a2.473,2.473,0,0,0,1.1-1.942v-9.4c0-.669-.407-.968-.81-.968Z" fill="#fff"/>
            </g>
            <g id="Group_64" data-name="Group 64">
              <path id="Path_180" data-name="Path 180" d="M-1829.682,333.812c-.407,0-.67-.325-.67-.828v-9.4a2.352,2.352,0,0,1,1.036-1.822l9.865-5.88a1,1,0,0,1,.509-.158c.407,0,.67.325.67.828v9.4a2.352,2.352,0,0,1-1.036,1.822l-9.865,5.88A1,1,0,0,1-1829.682,333.812Z" fill="#3993f3"/>
              <path id="Path_181" data-name="Path 181" d="M-1818.942,315.865c.313,0,.529.251.529.687v9.4a2.2,2.2,0,0,1-.966,1.7l-9.866,5.88a.865.865,0,0,1-.437.138c-.313,0-.529-.251-.529-.687v-9.4a2.2,2.2,0,0,1,.966-1.7l9.866-5.88a.865.865,0,0,1,.437-.138m0-.282a1.137,1.137,0,0,0-.581.178l-9.866,5.88a2.47,2.47,0,0,0-1.1,1.943v9.4c0,.669.407.969.81.969a1.138,1.138,0,0,0,.581-.178l9.866-5.88a2.47,2.47,0,0,0,1.1-1.943v-9.4c0-.669-.407-.969-.81-.969Z" fill="#fff"/>
            </g>
            <g id="Group_65" data-name="Group 65">
              <path id="Path_182" data-name="Path 182" d="M-1829.682,346.143c-.407,0-.67-.325-.67-.828v-9.4a2.352,2.352,0,0,1,1.036-1.821l9.865-5.881a1,1,0,0,1,.509-.157c.407,0,.67.324.67.827v9.4a2.349,2.349,0,0,1-1.036,1.821l-9.865,5.88A1,1,0,0,1-1829.682,346.143Z" fill="#3993f3"/>
              <path id="Path_183" data-name="Path 183" d="M-1818.942,328.2c.313,0,.529.252.529.687v9.4a2.2,2.2,0,0,1-.966,1.7l-9.866,5.88a.875.875,0,0,1-.437.138c-.313,0-.529-.252-.529-.687v-9.4a2.2,2.2,0,0,1,.966-1.7l9.866-5.88a.875.875,0,0,1,.437-.138m0-.281a1.137,1.137,0,0,0-.581.178l-9.866,5.88a2.47,2.47,0,0,0-1.1,1.942v9.4c0,.669.407.968.81.968a1.138,1.138,0,0,0,.581-.178l9.866-5.88a2.47,2.47,0,0,0,1.1-1.942v-9.4c0-.669-.407-.968-.81-.968Z" fill="#fff"/>
            </g>
            <g id="Group_66" data-name="Group 66">
              <path id="Path_184" data-name="Path 184" d="M-1829.682,358.473c-.407,0-.67-.325-.67-.828v-9.4a2.352,2.352,0,0,1,1.036-1.822l9.865-5.88a1,1,0,0,1,.509-.158c.407,0,.67.325.67.828v9.4a2.352,2.352,0,0,1-1.036,1.822l-9.865,5.88a1,1,0,0,1-.509.158Z" fill="#3993f3"/>
              <path id="Path_185" data-name="Path 185" d="M-1818.942,340.526c.313,0,.529.251.529.687v9.4a2.2,2.2,0,0,1-.966,1.7l-9.866,5.88a.865.865,0,0,1-.437.138c-.313,0-.529-.251-.529-.687v-9.4a2.2,2.2,0,0,1,.966-1.7l9.866-5.88a.865.865,0,0,1,.437-.138m0-.282a1.137,1.137,0,0,0-.581.178l-9.866,5.88a2.47,2.47,0,0,0-1.1,1.943v9.4c0,.669.407.969.81.969a1.138,1.138,0,0,0,.581-.178l9.866-5.88a2.47,2.47,0,0,0,1.1-1.943v-9.4c0-.669-.407-.969-.81-.969Z" fill="#fff"/>
            </g>
            <g id="Group_67" data-name="Group 67">
              <path id="Path_186" data-name="Path 186" d="M-1829.682,370.8c-.407,0-.67-.324-.67-.827v-9.4a2.349,2.349,0,0,1,1.036-1.821l9.865-5.88a1,1,0,0,1,.509-.159c.407,0,.67.325.67.828v9.4a2.352,2.352,0,0,1-1.036,1.821l-9.865,5.881A1.007,1.007,0,0,1-1829.682,370.8Z" fill="#3993f3"/>
              <path id="Path_187" data-name="Path 187" d="M-1818.942,352.856c.313,0,.529.251.529.687v9.4a2.2,2.2,0,0,1-.966,1.7l-9.866,5.88a.875.875,0,0,1-.437.138c-.313,0-.529-.252-.529-.687v-9.4a2.2,2.2,0,0,1,.966-1.7l9.866-5.88a.865.865,0,0,1,.437-.138m0-.281a1.137,1.137,0,0,0-.581.178l-9.866,5.88a2.47,2.47,0,0,0-1.1,1.942v9.4c0,.669.407.968.81.968a1.138,1.138,0,0,0,.581-.178l9.866-5.88a2.47,2.47,0,0,0,1.1-1.942v-9.4c0-.669-.407-.968-.81-.968Z" fill="#fff"/>
            </g>
            <g id="Group_68" data-name="Group 68">
              <path id="Path_188" data-name="Path 188" d="M-1817.283,326.458c-.407,0-.67-.325-.67-.828v-9.4a2.357,2.357,0,0,1,1.035-1.822l9.866-5.88a1,1,0,0,1,.51-.158c.406,0,.669.325.669.828v9.4a2.353,2.353,0,0,1-1.035,1.822l-9.866,5.88A1,1,0,0,1-1817.283,326.458Z" fill="#3993f3"/>
              <path id="Path_189" data-name="Path 189" d="M-1806.543,308.511c.314,0,.529.251.529.687v9.4a2.2,2.2,0,0,1-.966,1.7l-9.866,5.88a.865.865,0,0,1-.437.138c-.313,0-.529-.251-.529-.687v-9.4a2.2,2.2,0,0,1,.966-1.7l9.866-5.88a.865.865,0,0,1,.437-.138m0-.282a1.138,1.138,0,0,0-.581.178l-9.866,5.88a2.473,2.473,0,0,0-1.1,1.943v9.4c0,.669.407.969.81.969a1.134,1.134,0,0,0,.581-.178l9.866-5.88a2.47,2.47,0,0,0,1.1-1.943v-9.4c0-.669-.407-.969-.81-.969Z" fill="#fff"/>
            </g>
            <g id="Group_69" data-name="Group 69">
              <path id="Path_190" data-name="Path 190" d="M-1817.283,338.789c-.407,0-.67-.325-.67-.828v-9.4a2.353,2.353,0,0,1,1.035-1.821l9.866-5.88a1,1,0,0,1,.51-.158c.406,0,.669.324.669.827v9.4a2.351,2.351,0,0,1-1.035,1.821l-9.866,5.88A1,1,0,0,1-1817.283,338.789Z" fill="#3993f3"/>
              <path id="Path_191" data-name="Path 191" d="M-1806.543,320.841c.314,0,.529.252.529.687v9.4a2.2,2.2,0,0,1-.966,1.7l-9.866,5.88a.865.865,0,0,1-.437.138c-.313,0-.529-.252-.529-.687v-9.4a2.2,2.2,0,0,1,.966-1.7l9.866-5.88a.875.875,0,0,1,.437-.138m0-.281a1.138,1.138,0,0,0-.581.178l-9.866,5.88a2.473,2.473,0,0,0-1.1,1.942v9.4c0,.669.407.968.81.968a1.135,1.135,0,0,0,.581-.178l9.866-5.88a2.47,2.47,0,0,0,1.1-1.942v-9.4c0-.669-.407-.968-.81-.968Z" fill="#fff"/>
            </g>
            <g id="Group_70" data-name="Group 70">
              <path id="Path_192" data-name="Path 192" d="M-1817.283,351.119c-.407,0-.67-.325-.67-.827v-9.4a2.357,2.357,0,0,1,1.035-1.822l9.866-5.88a1,1,0,0,1,.509-.158c.407,0,.67.325.67.828v9.4a2.351,2.351,0,0,1-1.035,1.822l-9.866,5.88A1,1,0,0,1-1817.283,351.119Z" fill="#3993f3"/>
              <path id="Path_193" data-name="Path 193" d="M-1806.543,333.172c.314,0,.529.251.529.687v9.4a2.2,2.2,0,0,1-.966,1.7l-9.866,5.88a.865.865,0,0,1-.437.138c-.313,0-.529-.251-.529-.687v-9.4a2.2,2.2,0,0,1,.966-1.7l9.866-5.88a.865.865,0,0,1,.437-.138m0-.282a1.138,1.138,0,0,0-.581.178l-9.866,5.88a2.473,2.473,0,0,0-1.1,1.943v9.4c0,.669.407.969.81.969a1.134,1.134,0,0,0,.581-.178l9.866-5.88a2.47,2.47,0,0,0,1.1-1.943v-9.4c0-.669-.407-.969-.81-.969Z" fill="#fff"/>
            </g>
            <g id="Group_71" data-name="Group 71">
              <path id="Path_194" data-name="Path 194" d="M-1817.283,363.449c-.407,0-.67-.324-.67-.827v-9.4a2.352,2.352,0,0,1,1.036-1.821l9.865-5.88a1,1,0,0,1,.51-.159c.406,0,.669.325.669.828v9.4a2.351,2.351,0,0,1-1.035,1.821l-9.866,5.881A1,1,0,0,1-1817.283,363.449Z" fill="#3993f3"/>
              <path id="Path_195" data-name="Path 195" d="M-1806.543,345.5c.314,0,.529.252.529.687v9.4a2.2,2.2,0,0,1-.966,1.7l-9.866,5.88a.875.875,0,0,1-.437.138c-.313,0-.529-.252-.529-.687v-9.4a2.2,2.2,0,0,1,.966-1.7l9.866-5.88a.865.865,0,0,1,.437-.138m0-.281a1.138,1.138,0,0,0-.581.178l-9.866,5.88a2.473,2.473,0,0,0-1.1,1.942v9.4c0,.669.407.968.81.968a1.134,1.134,0,0,0,.581-.178l9.866-5.88a2.47,2.47,0,0,0,1.1-1.942v-9.4c0-.669-.407-.968-.81-.968Z" fill="#fff"/>
            </g>
            <g id="Group_72" data-name="Group 72">
              <path id="Path_196" data-name="Path 196" d="M-1804.884,319.1c-.407,0-.669-.325-.669-.828v-9.4a2.351,2.351,0,0,1,1.035-1.822l9.865-5.88a1,1,0,0,1,.509-.158c.407,0,.67.325.67.828v9.4a2.352,2.352,0,0,1-1.035,1.822l-9.866,5.88A1,1,0,0,1-1804.884,319.1Z" fill="#3993f3"/>
              <path id="Path_197" data-name="Path 197" d="M-1794.144,301.157c.314,0,.529.251.529.687v9.4a2.2,2.2,0,0,1-.966,1.7l-9.866,5.88a.865.865,0,0,1-.437.138c-.313,0-.529-.251-.529-.687v-9.4a2.2,2.2,0,0,1,.966-1.7l9.866-5.88a.865.865,0,0,1,.437-.138m0-.281a1.135,1.135,0,0,0-.581.177l-9.866,5.88a2.473,2.473,0,0,0-1.1,1.943v9.4c0,.669.407.969.81.969a1.135,1.135,0,0,0,.581-.178l9.866-5.88a2.471,2.471,0,0,0,1.1-1.943v-9.4c0-.669-.407-.968-.811-.968Z" fill="#fff"/>
            </g>
            <g id="Group_73" data-name="Group 73">
              <path id="Path_198" data-name="Path 198" d="M-1804.884,331.435c-.407,0-.669-.325-.669-.828v-9.4a2.351,2.351,0,0,1,1.035-1.822l9.865-5.88a1,1,0,0,1,.509-.158c.407,0,.67.324.67.827v9.4a2.351,2.351,0,0,1-1.035,1.821l-9.866,5.88A1,1,0,0,1-1804.884,331.435Z" fill="#3993f3"/>
              <path id="Path_199" data-name="Path 199" d="M-1794.144,313.487c.314,0,.529.252.529.687v9.4a2.2,2.2,0,0,1-.966,1.7l-9.866,5.88a.865.865,0,0,1-.437.138c-.313,0-.529-.251-.529-.687v-9.4a2.2,2.2,0,0,1,.966-1.7l9.866-5.88a.875.875,0,0,1,.437-.138m0-.281a1.137,1.137,0,0,0-.581.178l-9.866,5.88a2.473,2.473,0,0,0-1.1,1.942v9.4c0,.669.407.968.81.968a1.135,1.135,0,0,0,.581-.178l9.866-5.88a2.471,2.471,0,0,0,1.1-1.942v-9.4c0-.669-.407-.968-.811-.968Z" fill="#fff"/>
            </g>
            <g id="Group_74" data-name="Group 74">
              <path id="Path_200" data-name="Path 200" d="M-1804.884,343.765c-.407,0-.669-.325-.669-.827v-9.4a2.352,2.352,0,0,1,1.035-1.822l9.865-5.88a1,1,0,0,1,.509-.158c.407,0,.67.325.67.828v9.4a2.351,2.351,0,0,1-1.035,1.822l-9.866,5.88A1,1,0,0,1-1804.884,343.765Z" fill="#3993f3"/>
              <path id="Path_201" data-name="Path 201" d="M-1794.144,325.818c.314,0,.529.251.529.687v9.4a2.2,2.2,0,0,1-.966,1.7l-9.866,5.88a.865.865,0,0,1-.437.138c-.313,0-.529-.251-.529-.687v-9.4a2.2,2.2,0,0,1,.966-1.7l9.866-5.88a.865.865,0,0,1,.437-.138m0-.282a1.137,1.137,0,0,0-.581.178l-9.866,5.88a2.473,2.473,0,0,0-1.1,1.943v9.4c0,.669.407.969.81.969a1.135,1.135,0,0,0,.581-.178l9.866-5.88a2.471,2.471,0,0,0,1.1-1.943v-9.4c0-.669-.407-.969-.811-.969Z" fill="#fff"/>
            </g>
            <g id="Group_75" data-name="Group 75">
              <path id="Path_202" data-name="Path 202" d="M-1804.884,356.1c-.407,0-.669-.325-.669-.828v-9.4a2.351,2.351,0,0,1,1.035-1.821l9.865-5.88a1,1,0,0,1,.509-.158c.407,0,.67.325.67.827v9.4a2.351,2.351,0,0,1-1.035,1.821l-9.866,5.881a1.006,1.006,0,0,1-.509.158Z" fill="#3993f3"/>
              <path id="Path_203" data-name="Path 203" d="M-1794.144,338.148c.314,0,.529.252.529.687v9.4a2.2,2.2,0,0,1-.966,1.7l-9.866,5.88a.875.875,0,0,1-.437.138c-.313,0-.529-.252-.529-.687v-9.4a2.2,2.2,0,0,1,.966-1.7l9.866-5.88a.875.875,0,0,1,.437-.138m0-.281a1.137,1.137,0,0,0-.581.178l-9.866,5.88a2.473,2.473,0,0,0-1.1,1.942v9.4c0,.669.407.968.81.968a1.135,1.135,0,0,0,.581-.178l9.866-5.88a2.471,2.471,0,0,0,1.1-1.942v-9.4c0-.669-.407-.968-.811-.968Z" fill="#fff"/>
            </g>
            <g id="Group_76" data-name="Group 76">
              <path id="Path_204" data-name="Path 204" d="M-1792.485,311.75c-.407,0-.669-.325-.669-.828v-9.4a2.351,2.351,0,0,1,1.035-1.822l9.865-5.88a1,1,0,0,1,.509-.158c.407,0,.67.325.67.828v9.4a2.354,2.354,0,0,1-1.035,1.821l-9.866,5.88A1,1,0,0,1-1792.485,311.75Z" fill="#3993f3"/>
              <path id="Path_205" data-name="Path 205" d="M-1781.745,293.8c.314,0,.529.251.529.687v9.4a2.2,2.2,0,0,1-.966,1.7l-9.865,5.88a.87.87,0,0,1-.438.139c-.313,0-.529-.252-.529-.688v-9.4a2.2,2.2,0,0,1,.967-1.7l9.865-5.88a.865.865,0,0,1,.437-.138m0-.281a1.138,1.138,0,0,0-.581.177l-9.865,5.88a2.473,2.473,0,0,0-1.1,1.943v9.4c0,.669.407.969.81.969a1.141,1.141,0,0,0,.582-.178l9.865-5.88a2.471,2.471,0,0,0,1.1-1.943v-9.4c0-.669-.407-.968-.811-.968Z" fill="#fff"/>
            </g>
            <g id="Group_77" data-name="Group 77">
              <path id="Path_206" data-name="Path 206" d="M-1792.485,324.081c-.407,0-.669-.325-.669-.828v-9.4a2.351,2.351,0,0,1,1.035-1.822l9.865-5.88a1,1,0,0,1,.509-.158c.407,0,.67.324.67.827v9.4a2.352,2.352,0,0,1-1.035,1.821l-9.866,5.88A1,1,0,0,1-1792.485,324.081Z" fill="#3993f3"/>
              <path id="Path_207" data-name="Path 207" d="M-1781.745,306.133c.314,0,.529.252.529.687v9.4a2.2,2.2,0,0,1-.966,1.7l-9.865,5.88a.868.868,0,0,1-.438.138c-.313,0-.529-.251-.529-.687v-9.4a2.2,2.2,0,0,1,.967-1.7l9.865-5.881a.875.875,0,0,1,.437-.138m0-.281a1.14,1.14,0,0,0-.581.178l-9.865,5.88a2.471,2.471,0,0,0-1.1,1.942v9.4c0,.669.407.968.81.968a1.141,1.141,0,0,0,.582-.178l9.865-5.88a2.469,2.469,0,0,0,1.1-1.942v-9.4c0-.669-.407-.968-.811-.968Z" fill="#fff"/>
            </g>
            <g id="Group_78" data-name="Group 78">
              <path id="Path_208" data-name="Path 208" d="M-1792.485,336.411c-.407,0-.669-.325-.669-.828v-9.4a2.353,2.353,0,0,1,1.035-1.822l9.865-5.88a1,1,0,0,1,.509-.158c.407,0,.67.325.67.828v9.4a2.354,2.354,0,0,1-1.035,1.822l-9.866,5.88A1,1,0,0,1-1792.485,336.411Z" fill="#3993f3"/>
              <path id="Path_209" data-name="Path 209" d="M-1781.745,318.464c.314,0,.529.251.529.687v9.4a2.2,2.2,0,0,1-.966,1.7l-9.865,5.88a.868.868,0,0,1-.438.138c-.313,0-.529-.251-.529-.687v-9.4a2.2,2.2,0,0,1,.967-1.7l9.865-5.88a.865.865,0,0,1,.437-.138m0-.281a1.139,1.139,0,0,0-.581.177l-9.865,5.88a2.471,2.471,0,0,0-1.1,1.943v9.4c0,.669.407.969.81.969a1.141,1.141,0,0,0,.582-.178l9.865-5.88a2.471,2.471,0,0,0,1.1-1.943v-9.4c0-.669-.407-.968-.811-.968Z" fill="#fff"/>
            </g>
            <g id="Group_79" data-name="Group 79">
              <path id="Path_210" data-name="Path 210" d="M-1792.485,348.742c-.407,0-.669-.325-.669-.828v-9.4a2.351,2.351,0,0,1,1.035-1.821l9.865-5.88a1,1,0,0,1,.509-.158c.407,0,.67.325.67.827v9.4a2.35,2.35,0,0,1-1.035,1.821l-9.866,5.88A1,1,0,0,1-1792.485,348.742Z" fill="#3993f3"/>
              <path id="Path_211" data-name="Path 211" d="M-1781.745,330.794c.314,0,.529.252.529.687v9.4a2.2,2.2,0,0,1-.966,1.7l-9.865,5.88a.868.868,0,0,1-.438.138c-.313,0-.529-.251-.529-.687v-9.4a2.2,2.2,0,0,1,.967-1.7l9.865-5.88a.875.875,0,0,1,.437-.138m0-.281a1.14,1.14,0,0,0-.581.178l-9.865,5.88a2.471,2.471,0,0,0-1.1,1.942v9.4c0,.669.407.968.81.968a1.141,1.141,0,0,0,.582-.178l9.865-5.88a2.471,2.471,0,0,0,1.1-1.942v-9.4c0-.669-.407-.968-.811-.968Z" fill="#fff"/>
            </g>
          </g>
        </g>
        <path id="Path_212" data-name="Path 212" d="M-1926.072,298.194l57.761,30.6,92.93-51.007-57.647-33.283Z" fill="#209934"/>
        <path id="Path_213" data-name="Path 213" d="M-1926.072,298.194v95.834l57.761,33.348V325.139Z" fill="#7f7f7f"/>
        <g id="Group_82" data-name="Group 82">
          <path id="Path_214" data-name="Path 214" d="M-1846.322,316.454a3.125,3.125,0,0,1,.354,1.6c-.063,1.807-.114,3.608-.192,5.407l87.143-51.706a8.453,8.453,0,0,0,4.141-7.271v-5.948l-3.685,5.565Z" fill="#eff0f2"/>
          <path id="Path_215" data-name="Path 215" d="M-1948.581,288.531l51.871,29.948a46.951,46.951,0,0,0,47.4-.263l90.605-53.657a7.884,7.884,0,0,0-.075-13.61l-63.826-36.849Z" fill="#9da2aa"/>
          <path id="Path_216" data-name="Path 216" d="M-1948.581,288.531v7.1l53.845,30.947v-7.1Z" fill="#9da2aa"/>
        </g>
        <g id="Group_83" data-name="Group 83">
          <path id="Path_217" data-name="Path 217" d="M-1866.252,313.919l92.93-53.725v-29.93l-92.93,53.725Z" fill="#bcbfc5"/>
          <path id="Path_218" data-name="Path 218" d="M-1924.012,250.641l57.761,33.348,92.93-53.752-57.648-33.283Z" fill="#9da2aa"/>
          <path id="Path_219" data-name="Path 219" d="M-1924.012,250.641v29.93l57.761,33.348v-29.93Z" fill="#7f7f7f"/>
        </g>
        <g id="Group_84" data-name="Group 84">
          <path id="Path_220" data-name="Path 220" d="M-1796.092,280.658a7.739,7.739,0,0,1-1.538-.888c-.111-.086-.21-.175-.31-.264v.02l-.005,0-.088-.042a.145.145,0,0,0-.02-.013l-.088-.042c-.007,0-.012-.011-.02-.014l-.088-.042a.218.218,0,0,0-.019-.013l-.089-.043c-.007,0-.012-.01-.019-.013l-.089-.042c-.007,0-.012-.011-.019-.014l-.089-.042a.2.2,0,0,0-.019-.013l-.089-.042c-.007,0-.012-.011-.019-.014l-.089-.042c-.007,0-.012-.01-.019-.013l-.089-.043c-.007,0-.012-.01-.019-.013l-.089-.042c-.007,0-.011-.01-.019-.014l-.088-.042c-.008,0-.012-.01-.02-.013l-.089-.042c-.007,0-.011-.011-.019-.014l-.088-.042a.134.134,0,0,0-.02-.013l-.088-.043c-.007,0-.012-.01-.02-.013l-.088-.042c-.007,0-.012-.01-.02-.014l-.088-.042a.138.138,0,0,0-.02-.013l-.088-.042c-.007,0-.012-.011-.019-.014l-.089-.042a.212.212,0,0,0-.019-.013l-.089-.043c-.007,0-.012-.01-.019-.013l-.089-.042c-.007,0-.012-.011-.019-.014l-.089-.042a.2.2,0,0,0-.019-.013l-.089-.042c-.007,0-.011-.011-.019-.014l-.088-.042c-.008,0-.012-.01-.02-.013l-.088-.042c-.007,0-.012-.011-.02-.014l-.088-.042a.137.137,0,0,0-.02-.013l-.088-.043c-.007,0-.012-.01-.02-.013l-.088-.042c-.007,0-.012-.011-.02-.014l-3.141-1.5c-.244-.138-.767.169-1.049.576a18.175,18.175,0,0,1-5.4,5.106,9.541,9.541,0,0,1-2.672,1.105,6.771,6.771,0,0,1-.3-2.065c0-4.51,3.344-10.263,7.9-12.938a7.158,7.158,0,0,1,5.438-1.14c.282.116.724-.144,1.009-.592l.284-.463a13.589,13.589,0,0,1,3.141-5.544c-1.269-.918-2.939-1.383-4.286-2.175a3.453,3.453,0,0,1-.347-.253.436.436,0,0,0-.1-.052.441.441,0,0,0-.108-.056.408.408,0,0,0-.108-.055.44.44,0,0,0-.108-.056.416.416,0,0,0-.1-.054.41.41,0,0,0-.125-.064c-2.785-.9-5.821-.366-9.95,2.1a29.6,29.6,0,0,0-6.392,5.277,1.765,1.765,0,0,0-.568-.42c-.036-.019-.071-.038-.108-.055s-.071-.039-.108-.056-.071-.038-.108-.055-.071-.039-.108-.056-.071-.038-.108-.056-.071-.038-.108-.055-.071-.039-.108-.056-.071-.038-.108-.055a1.216,1.216,0,0,0-.108-.056c-.035-.019-.07-.038-.107-.055s-.071-.039-.108-.056-.071-.039-.108-.056-.071-.038-.108-.055-.071-.039-.108-.056-.071-.038-.108-.055-.071-.039-.108-.056-.071-.038-.108-.056-.071-.038-.108-.055-.071-.039-.108-.056-.071-.038-.108-.056-.071-.038-.108-.055-.07-.038-.107-.056-.071-.038-.109-.055-.07-.039-.107-.056-.071-.038-.108-.055-.071-.039-.108-.056-.071-.039-.108-.055-.071-.039-.108-.056-.071-.039-.108-.056-.071-.038-.108-.056-.071-.038-.108-.055-.071-.038-.108-.056-.071-.038-.108-.055-.071-.039-.108-.056-.07-.038-.107-.055-.071-.039-.108-.056-.071-.038-.108-.056-.071-.038-.108-.055-.071-.039-.108-.056-.071-.038-.108-.055-.071-.039-.108-.056-.071-.038-.108-.056-.071-.038-.108-.055-.071-.038-.108-.056-.071-.038-.108-.055a2.558,2.558,0,0,0-1.739-.192,6.57,6.57,0,0,0-3.636,2.577,9.675,9.675,0,0,0-1.852,3.769,7.724,7.724,0,0,0-2.266,1.657,1.129,1.129,0,0,0-.406,1.223.383.383,0,0,0,.224.186.359.359,0,0,0,.107.054.371.371,0,0,0,.108.056.35.35,0,0,0,.107.055.358.358,0,0,0,.108.056.383.383,0,0,0,.108.056.366.366,0,0,0,.108.055.368.368,0,0,0,.108.056.369.369,0,0,0,.108.056.366.366,0,0,0,.108.055.369.369,0,0,0,.108.056.367.367,0,0,0,.108.055.37.37,0,0,0,.108.056.369.369,0,0,0,.108.056.367.367,0,0,0,.108.055.368.368,0,0,0,.108.056.374.374,0,0,0,.107.055.381.381,0,0,0,.108.056.344.344,0,0,0,.108.055.347.347,0,0,0,.108.056.369.369,0,0,0,.108.056.367.367,0,0,0,.108.055.37.37,0,0,0,.108.056.37.37,0,0,0,.108.055.346.346,0,0,0,.108.056.368.368,0,0,0,.108.056.367.367,0,0,0,.108.055.37.37,0,0,0,.108.056.373.373,0,0,0,.107.055.387.387,0,0,0,.109.056.363.363,0,0,0,.107.056.379.379,0,0,0,.108.055.369.369,0,0,0,.108.056.368.368,0,0,0,.108.055.37.37,0,0,0,.108.056.368.368,0,0,0,.108.056.366.366,0,0,0,.108.055.369.369,0,0,0,.108.056.366.366,0,0,0,.108.055.376.376,0,0,0,.107.056.4.4,0,0,0,.108.056.381.381,0,0,0,.108.055.382.382,0,0,0,.108.056.379.379,0,0,0,.108.055.369.369,0,0,0,.108.056.366.366,0,0,0,.108.055c.194.146.532.107.932-.286a3.987,3.987,0,0,1,2.013-1.168,1.36,1.36,0,0,0,.7-.526,1.522,1.522,0,0,0,.359-.832,5.03,5.03,0,0,1,.877-2.6.25.25,0,0,0,.026.005.283.283,0,0,0,.109.056.289.289,0,0,0,.107.056.3.3,0,0,0,.108.055.3.3,0,0,0,.108.056.3.3,0,0,0,.108.056.315.315,0,0,0,.108.055.3.3,0,0,0,.108.056.277.277,0,0,0,.108.055.293.293,0,0,0,.108.056.277.277,0,0,0,.108.055.292.292,0,0,0,.108.056.293.293,0,0,0,.108.056.294.294,0,0,0,.107.055.309.309,0,0,0,.108.056.284.284,0,0,0,.108.055.309.309,0,0,0,.108.056.3.3,0,0,0,.108.056.256.256,0,0,0,.063.039,27.931,27.931,0,0,0-3.842,8.4c-.057.225-.109.447-.158.667l-2.7-.156c-.837-.414-.978-1.569-.358-3.032.227-.539.1-.862-.159-.942a.386.386,0,0,0-.107-.054.381.381,0,0,0-.108-.056.344.344,0,0,0-.108-.055.368.368,0,0,0-.108-.056.376.376,0,0,0-.107-.056.367.367,0,0,0-.108-.055.4.4,0,0,0-.108-.056.367.367,0,0,0-.108-.055.4.4,0,0,0-.108-.056.367.367,0,0,0-.108-.055.338.338,0,0,0-.108-.056.394.394,0,0,0-.108-.056.344.344,0,0,0-.108-.055.372.372,0,0,0-.108-.056.344.344,0,0,0-.108-.055.326.326,0,0,0-.108-.056.377.377,0,0,0-.107-.056.368.368,0,0,0-.108-.055.4.4,0,0,0-.108-.056.4.4,0,0,0-.108-.056.4.4,0,0,0-.108-.055.4.4,0,0,0-.108-.056.355.355,0,0,0-.108-.055.4.4,0,0,0-.108-.056.345.345,0,0,0-.108-.055.382.382,0,0,0-.108-.056.344.344,0,0,0-.108-.055.327.327,0,0,0-.108-.056.376.376,0,0,0-.107-.056.36.36,0,0,0-.109-.055.376.376,0,0,0-.107-.056.4.4,0,0,0-.108-.056.367.367,0,0,0-.108-.055.4.4,0,0,0-.108-.056.356.356,0,0,0-.108-.055.383.383,0,0,0-.108-.056.382.382,0,0,0-.108-.056.356.356,0,0,0-.108-.055.372.372,0,0,0-.108-.056.344.344,0,0,0-.108-.055.368.368,0,0,0-.108-.056.345.345,0,0,0-.108-.055.333.333,0,0,0-.107-.056.4.4,0,0,0-.108-.056.366.366,0,0,0-.106-.054.4.4,0,0,0-.243-.079,1.263,1.263,0,0,0-1,.874c-.852,2.007-.849,3.693-.044,4.543a8.577,8.577,0,0,0-1.487,3.5c-.22,1.451.188,2.566,1.118,3.057.021.011.043.016.064.026s.028.021.044.03.043.016.063.026.029.021.045.029.043.016.063.026.029.021.045.03.043.016.063.026.029.021.045.029.042.017.063.026.029.021.045.03.042.016.063.026.029.021.045.03.042.016.063.026.029.021.045.029.042.016.063.026.028.021.045.03.042.016.063.026.029.021.045.029a.681.681,0,0,0,.063.026c.015.009.028.021.044.03s.043.016.063.026.029.021.045.03.043.016.063.026.029.021.045.029.043.016.063.026.029.021.045.03.043.016.063.026.029.021.045.029.043.016.063.026.029.021.045.03.043.016.063.026.029.021.045.029.042.017.063.027.029.021.045.029.042.016.063.026.029.021.045.03.042.016.063.026.029.021.045.029a.679.679,0,0,0,.063.026c.015.009.028.021.045.03s.042.016.063.026.029.021.045.029.042.017.063.027.028.021.044.029.043.016.063.026.029.021.045.03.043.016.063.026.029.021.045.029.043.016.063.026.029.021.045.03.043.016.063.026.029.021.045.03.043.016.063.026.029.021.045.029.043.016.063.026.029.021.045.03.042.016.063.026.029.021.045.029.042.016.063.026.029.021.045.03.042.016.063.026.029.021.045.029.042.017.063.027.028.02.044.029.043.016.064.026.029.021.045.03.042.016.063.026.028.021.044.029.043.016.063.026.029.021.045.03.043.016.063.026.029.021.045.029.043.017.063.027.029.021.045.029.043.016.063.026.029.021.045.03.043.016.063.026.029.021.045.029.043.016.063.026.029.021.045.03.042.016.063.026.029.021.045.029.042.017.063.026.029.021.045.03.042.016.063.026.029.021.045.03.042.016.063.026.028.021.044.029.043.016.064.026.028.021.045.03.042.016.063.026.028.021.044.029a3.038,3.038,0,0,0,3.14-.572,7.647,7.647,0,0,0,1.247-1.105,7.11,7.11,0,0,0,3.515,5.574c.035.019.072.036.108.055s.072.037.107.056.073.037.108.056.073.036.108.055.072.037.108.056.072.036.108.055.072.037.108.056.072.036.108.055.072.037.108.056.072.037.108.056.072.036.108.055.072.037.108.056.072.036.107.055.073.037.108.056.073.037.108.056.073.036.108.055.072.037.108.056.072.037.108.055.072.037.108.056.072.037.108.056.072.036.108.055.072.037.108.056.072.036.108.055.072.037.107.056.073.037.108.056l.109.055c.035.02.072.037.107.056s.073.036.108.055.072.037.108.056.073.037.108.056.072.036.108.055.072.037.108.056.072.036.108.055.072.037.108.056.072.037.108.055.072.037.108.056.072.037.107.056l.109.055c.035.02.072.037.107.056s.073.037.108.056.073.036.108.055.072.037.108.056.072.036.108.055.072.037.108.056.072.036.108.056c2.663,1.487,6.6,1.09,11-1.5a29.861,29.861,0,0,0,9.74-9.585A7.022,7.022,0,0,1-1796.092,280.658Z" fill="#7f7f7f"/>
        </g>
        <path id="Path_221" data-name="Path 221" d="M-1895.5,326.155v-7.066c14.364,8.292,38.146,5.68,52.014-4.333l-2.677,8.7C-1859.428,331.206-1881.133,334.447-1895.5,326.155Z" fill="#eff0f2"/>
        <g id="Group_95" data-name="Group 95">
          <g id="Group_92" data-name="Group 92">
            <g id="Group_91" data-name="Group 91">
              <g id="Group_87" data-name="Group 87">
                <g id="Group_86" data-name="Group 86">
                  <g id="Group_85" data-name="Group 85">
                    <path id="Path_222" data-name="Path 222" d="M-1893.47,347.908l.735-.443-16.259-8.877-.735.443Z" fill="#3f4244"/>
                  </g>
                </g>
              </g>
              <g id="Group_88" data-name="Group 88" opacity="0.7">
                <path id="Path_223" data-name="Path 223" d="M-1892.817,378.952l.735-.443-.653-31.044-.735.443Z" fill="#3f4244"/>
              </g>
              <g id="Group_90" data-name="Group 90">
                <g id="Group_89" data-name="Group 89">
                  <path id="Path_224" data-name="Path 224" d="M-1893.47,347.908l-16.259-8.877.653,31.044,16.259,8.877Z" fill="#3f4244"/>
                </g>
              </g>
            </g>
          </g>
          <g id="Group_93" data-name="Group 93">
            <path id="Path_225" data-name="Path 225" d="M-1894.52,348.17l-14.131-7.716.618,29.374,14.131,7.716Z" fill="#333"/>
          </g>
          <g id="Group_94" data-name="Group 94" opacity="0.22">
            <path id="Path_226" data-name="Path 226" d="M-1895.172,348.48l-12.726-6.948,13.3,34.085Z" fill="#eff0f2" opacity="0.7"/>
          </g>
        </g>
        <g id="Group_96" data-name="Group 96">
          <path id="Path_227" data-name="Path 227" d="M-1826.146,273.686a3.979,3.979,0,0,1,2.013-1.168,1.361,1.361,0,0,0,.7-.527,1.509,1.509,0,0,0,.359-.831,5.206,5.206,0,0,1,1.106-2.925,4.792,4.792,0,0,1,2.364-1.779,1.133,1.133,0,0,1,1.532.633,3.111,3.111,0,0,1-.405,2.436,1.147,1.147,0,0,0-.148.712.328.328,0,0,0,.317.3l1.172.058a.963.963,0,0,0,.646-.285,2.225,2.225,0,0,0,.538-.733c.187-.415.194-.843-.209-.862l-.551-.027a4.255,4.255,0,0,0,.3-2.753,2.051,2.051,0,0,0-2.623-1.314,6.572,6.572,0,0,0-3.637,2.577,9.667,9.667,0,0,0-1.851,3.769,7.713,7.713,0,0,0-2.267,1.657,1.129,1.129,0,0,0-.405,1.223C-1827.045,274.122-1826.641,274.171-1826.146,273.686Z" fill="#fff"/>
          <path id="Path_228" data-name="Path 228" d="M-1805.076,268.3a7.159,7.159,0,0,1,5.438-1.14c.282.116.725-.144,1.009-.593l3.142-5.108c.322-.511.322-1-.04-1.106-2.785-.9-5.821-.366-9.95,2.1-6.247,3.734-11.9,11.024-13.675,18.057q-.084.337-.157.667l-3.79-.219a.878.878,0,0,0-.579.242,1.894,1.894,0,0,0-.479.658,5.771,5.771,0,0,1-1.781,2.336,2.124,2.124,0,0,1-1.977.454c-.58-.221-.842-.826-.738-1.7a6.049,6.049,0,0,1,1.475-3.046,1.823,1.823,0,0,0,.423-.893c.035-.264-.033-.455-.185-.524-.871-.4-1.022-1.568-.392-3.054.262-.625.047-.962-.292-.962a1.262,1.262,0,0,0-1,.874c-.852,2.007-.849,3.693-.045,4.543a8.588,8.588,0,0,0-1.486,3.5c-.221,1.451.187,2.566,1.118,3.057a3.038,3.038,0,0,0,3.14-.572,8.979,8.979,0,0,0,2.6-2.986l3.64.21c-1.332,9.857,5.589,13.413,14.379,8.249a29.9,29.9,0,0,0,9.79-9.659c.281-.447.322-1,.04-1.113l-3.142-1.5c-.244-.138-.767.169-1.049.576a18.175,18.175,0,0,1-5.4,5.106c-4.553,2.675-7.936.955-7.936-3.518C-1812.972,276.726-1809.629,270.974-1805.076,268.3Z" fill="#eff0f2"/>
        </g>
      </g>
      <g id="Group_98" data-name="Group 98">
        <path id="Path_229" data-name="Path 229" d="M-1824.71,375.6a1.874,1.874,0,0,1,.944-.548.633.633,0,0,0,.328-.247.7.7,0,0,0,.169-.39,2.442,2.442,0,0,1,.519-1.372,2.244,2.244,0,0,1,1.109-.835.531.531,0,0,1,.719.3,1.462,1.462,0,0,1-.19,1.143.537.537,0,0,0-.07.334.155.155,0,0,0,.149.139l.55.027a.454.454,0,0,0,.3-.134,1.022,1.022,0,0,0,.252-.344c.088-.194.091-.395-.1-.4l-.258-.013a2,2,0,0,0,.142-1.291.963.963,0,0,0-1.231-.617,3.087,3.087,0,0,0-1.706,1.209,4.548,4.548,0,0,0-.869,1.769,3.627,3.627,0,0,0-1.063.777.53.53,0,0,0-.19.574C-1825.132,375.808-1824.942,375.831-1824.71,375.6Z" fill="#fff"/>
        <path id="Path_230" data-name="Path 230" d="M-1814.825,373.076a3.355,3.355,0,0,1,2.552-.535c.132.054.34-.068.473-.278l1.474-2.4c.151-.24.151-.467-.019-.519-1.306-.423-2.731-.171-4.668.986a14.923,14.923,0,0,0-6.415,8.472c-.027.105-.051.209-.074.312l-1.778-.1a.413.413,0,0,0-.272.114.891.891,0,0,0-.225.308,2.7,2.7,0,0,1-.835,1.1,1,1,0,0,1-.928.213c-.272-.1-.4-.388-.346-.8a2.839,2.839,0,0,1,.692-1.43.851.851,0,0,0,.2-.418c.017-.124-.015-.214-.087-.246-.408-.187-.479-.736-.183-1.433.123-.293.022-.452-.137-.451a.592.592,0,0,0-.47.41c-.4.941-.4,1.732-.02,2.131a4.021,4.021,0,0,0-.7,1.641,1.286,1.286,0,0,0,.525,1.434,1.427,1.427,0,0,0,1.473-.269,4.2,4.2,0,0,0,1.22-1.4l1.708.1c-.625,4.624,2.622,6.293,6.746,3.87a14.02,14.02,0,0,0,4.593-4.531c.132-.21.151-.468.019-.523l-1.474-.7c-.115-.065-.36.079-.492.27a8.522,8.522,0,0,1-2.533,2.4c-2.136,1.255-3.723.448-3.723-1.651A7.833,7.833,0,0,1-1814.825,373.076Z" fill="#fff"/>
        <path id="Path_231" data-name="Path 231" d="M-1804.365,369.747a8.048,8.048,0,0,0-1.757,1.467v-5.557c0-.2-.161-.264-.359-.148l-2.1,1.233a.757.757,0,0,0-.359.569v12.513c0,.2.162.264.359.148l2.042-1.2c.321-.189.415-.358.415-.6v-3.459a2.541,2.541,0,0,1,1.266-2.237c.832-.489,1.38-.15,1.38.682v3.459c0,.189.151.27.359.148l2-1.177a.755.755,0,0,0,.359-.57V371.6C-1800.755,369.5-1801.983,368.348-1804.365,369.747Z" fill="#fff"/>
        <path id="Path_232" data-name="Path 232" d="M-1792.292,362.843l-1.929,1.133a.691.691,0,0,0-.4.592v3.61a2.5,2.5,0,0,1-1.175,2.032c-.667.368-1.169.059-1.169-.608v-3.657c0-.208-.17-.259-.36-.147l-2.021,1.187a.757.757,0,0,0-.36.571v3.421c0,2.155,1.077,3.336,3.326,2.014a7.12,7.12,0,0,0,2.552-2.652l.284.533c.057.1.189.153.359.053l.889-.522a.756.756,0,0,0,.358-.569v-6.843C-1791.934,362.784-1792.1,362.732-1792.292,362.843Z" fill="#fff"/>
        <path id="Path_233" data-name="Path 233" d="M-1786.241,359.1a7.36,7.36,0,0,0-2.532,2.679l-.228-.491c-.075-.163-.208-.255-.4-.144l-.889.522a.757.757,0,0,0-.359.569v12.513c0,.2.162.264.359.148l2.1-1.232a.758.758,0,0,0,.36-.571v-5.481a4.133,4.133,0,0,0,1.57-.563,7.457,7.457,0,0,0,3.761-6.179C-1782.5,358.7-1784.106,357.845-1786.241,359.1Zm-.378,5.722c-.869.51-1.512.227-1.512-.624a3.127,3.127,0,0,1,1.533-2.45c.746-.428,1.4-.23,1.5.453A3.009,3.009,0,0,1-1786.619,364.821Z" fill="#fff"/>
        <path id="Path_234" data-name="Path 234" d="M-1776.095,360.225l-.417-1.323c-.057-.175-.227-.15-.415,0a7.025,7.025,0,0,1-.737.565c-.228.134-.511.263-.511-.153V356.95l1.4-.822a.756.756,0,0,0,.36-.571v-1.681c0-.2-.162-.265-.36-.148l-1.4.821v-2.117c0-.188-.152-.251-.34-.14l-2.023,1.188a.756.756,0,0,0-.358.57v2.1l-.92.54a.713.713,0,0,0-.34.559v1.7c0,.187.152.25.34.14l.92-.541v2.722c0,1.719.832,2.138,2.268,1.294a18.749,18.749,0,0,0,2.287-1.759A.687.687,0,0,0-1776.095,360.225Z" fill="#fff"/>
      </g>
    </g>
    <g id="Group_112" data-name="Group 112">
      <g id="Group_102" data-name="Group 102" opacity="0.2">
        <g id="Group_101" data-name="Group 101">
          <g id="Group_100" data-name="Group 100">
            <ellipse id="Ellipse_8" data-name="Ellipse 8" cx="24.691" cy="15.09" rx="24.691" ry="15.09" transform="translate(-1756.314 394.231) rotate(-0.362)" fill="#b3b3b3"/>
          </g>
        </g>
      </g>
      <path id="Path_235" data-name="Path 235" d="M-1720.97,411.052c.055,1.952-.8,1.958-1.558,2.048s-4.981-1.243-7.154-2.55c-1.806-1.082-2.646-2.138-2.354-2.857a.984.984,0,0,1,.332-.4c.935-.685,3.576.7,4.3.865a1.608,1.608,0,0,0,1.355-.561l1.816.143,2.735.21A9.52,9.52,0,0,1-1720.97,411.052Z" fill="#697f8b"/>
      <path id="Path_236" data-name="Path 236" d="M-1732.255,413.272a2.76,2.76,0,0,1-.287,1.557c-.316.49-.841.515-1.334.577-.8.089-5.183-1.294-7.447-2.655-1.8-1.076-2.677-2.137-2.475-2.882a.921.921,0,0,1,.373-.506c.967-.718,3.72.725,4.475.9a1.675,1.675,0,0,0,1.408-.587l1.072.083,3.255.25v.006l.409.029s.038.1.1.275A11.012,11.012,0,0,1-1732.255,413.272Z" fill="#697f8b"/>
      <g id="Group_103" data-name="Group 103">
        <path id="Path_237" data-name="Path 237" d="M-1724.685,370.965c1.306,12.5,2.576,25.094,3.675,37.636a8.346,8.346,0,0,1-1.062.224,12.941,12.941,0,0,1-1.613.139c-.412.012-.731.013-1.017.014a6.7,6.7,0,0,1-1.178-.079c-1.876-9.648-3.924-19.1-5.888-28.693-1.945,10.232,1.351,20.041-.97,30.16a3.005,3.005,0,0,1-.478.246,2.77,2.77,0,0,1-1.227.185,7.125,7.125,0,0,1-1.546-.282,11.858,11.858,0,0,1-1.7-.624c-.361-12.047-2.777-23.78-2.927-35.8.844-.244,1.327-.861,2.268-1.942q3.4-3.287,6.585-.169a47.936,47.936,0,0,0,5.982-1.528A8.083,8.083,0,0,0-1724.685,370.965Z" fill="#bcbfc5"/>
        <path id="Path_238" data-name="Path 238" d="M-1727.752,379.015c1.436,9.994,1.889,19.958,3.05,29.963a6.087,6.087,0,0,1-1.178-.079c-1.876-9.648-3.924-19.1-5.888-28.693,1.076-1.7,1.818-2.25,2.734-3.661C-1728.52,377.526-1728.227,378.018-1727.752,379.015Z" fill="#9da2aa"/>
      </g>
      <g id="Group_106" data-name="Group 106">
        <g id="Group_105" data-name="Group 105">
          <g id="Group_104" data-name="Group 104">
            <path id="Path_239" data-name="Path 239" d="M-1759.23,362.135a.154.154,0,0,1,.074-.04l.4-.216.613.736,7.805,4.777a.84.84,0,0,1,.377.7s-.081,3.146-.109,4.236l.3.357-.4.216c-.118.087-.309-.029-.309-.029s-8.175-5-8.563-5.242a.746.746,0,0,1-.262-.27h0a.9.9,0,0,1-.116-.424l.106-4.107.012-.456a.324.324,0,0,1,.075-.233h0Z" fill="#333"/>
            <path id="Path_240" data-name="Path 240" d="M-1758.92,362.609l-.106,4.106a.841.841,0,0,0,.378.694c.388.239,8.563,5.242,8.563,5.242s.389.239.4-.217.117-4.563.117-4.563a.84.84,0,0,0-.377-.7l-8.564-5.241s-.389-.239-.4.217Z" fill="#7f7f7f"/>
            <path id="Path_241" data-name="Path 241" d="M-1757.352,363.11l7.006,4.284-.117,4.563-7.006-4.294Z" fill="#28cc33"/>
            <path id="Path_242" data-name="Path 242" d="M-1757.986,363.512l.066.041a.32.32,0,0,1,.154.282l-.06,2.339a.124.124,0,0,1-.188.1l-.024-.015a.371.371,0,0,1-.177-.326l.059-2.331A.112.112,0,0,1-1757.986,363.512Z" fill="#333"/>
            <ellipse id="Ellipse_9" data-name="Ellipse 9" cx="0.083" cy="0.198" rx="0.083" ry="0.198" transform="translate(-1750.154 369.765) rotate(-28.525)" fill="#fff2ff"/>
          </g>
        </g>
      </g>
      <g id="Group_107" data-name="Group 107">
        <path id="Path_243" data-name="Path 243" d="M-1752.162,370.173l-.021.047-.021.048-.172.394-.5-.007-2.059-.04-.536-.008-.579-.012s-.783-.385-.3-.547,3.17-.665,3.17-.665l.706.038.113.275.129.312Z" fill="#eec3a1"/>
        <path id="Path_244" data-name="Path 244" d="M-1751.577,371.188l-.324.023-.743.052-1.305.093-.281.023-.1-.095h-.005l-.3-.3-.315-.306.01-.064,0-.064.03-.228,2.7-.054.042-.006h.18l.2.455Z" fill="#eec3a1"/>
        <path id="Path_245" data-name="Path 245" d="M-1750.874,370.653l-.43,1.727-.09-.01-1.737-.217h-.005l-.558-.071-.076-.2-.1-.259-.092-.243.016-.021h.005l.111-.128h.005l.343-.384,1.549-.116.154-.012Z" fill="#eec3a1"/>
        <path id="Path_246" data-name="Path 246" d="M-1748.42,367.142l-2.053.571-2.982-.529s-.538-.094-.343.376c.15.362,1.109.7,1.742.892l-1.126.931,1.876,2.995s1.805-1.294,1.938-1.339,3.352-1.348,3.352-1.348Z" fill="#eec3a1"/>
      </g>
      <path id="Path_247" data-name="Path 247" d="M-1755.86,369.521" fill="#eec3a1"/>
      <path id="Path_248" data-name="Path 248" d="M-1724.495,371.117s-.059,2.368-6.651,4.979c0,0-6.165,1.668-9.574-.673l.083-5.356.1-7.043.143-9.293s-.728-2.79.185-4.387a37.969,37.969,0,0,1,7.183-5.351s2.771-1.609,4.238-1.284,3,3.3,3.1,8.137c.038,1.879.166,5.407.311,9.015.1,2.52.207,5.083.3,7.152A17.614,17.614,0,0,0-1724.495,371.117Z" fill="#7f7f7f"/>
      <path id="Path_249" data-name="Path 249" d="M-1738.242,347.678s4.395,2.659,4.918,6.669l.6-4.217a11,11,0,0,0-3.872-3.889A2.6,2.6,0,0,0-1738.242,347.678Z" fill="#999"/>
      <path id="Path_250" data-name="Path 250" d="M-1731.139,343.089a15.1,15.1,0,0,1,3.238,3.362l1.629.488s-1.546-3.208-3.046-4.326A2.105,2.105,0,0,0-1731.139,343.089Z" fill="#999"/>
      <g id="Group_110" data-name="Group 110">
        <path id="Path_251" data-name="Path 251" d="M-1730.165,345.106s-3.508,1.216-3.473,6.722.471,11.606.471,11.606.282,2.652,1.877,3.04a13.357,13.357,0,0,0,8.679-1.78s1.187-1.069.7-4.515-1.918-9.541-3.663-12.847A3.865,3.865,0,0,0-1730.165,345.106Z" fill="#333"/>
        <g id="Group_109" data-name="Group 109">
          <g id="Group_108" data-name="Group 108">
            <path id="Path_252" data-name="Path 252" d="M-1726.781,346.319c-1.169-.494-3.331-.774-4.249,2.775s-.422,13.307.312,15.11,3.914,1.422,5,.981,3.53-2.047,3.74-3.133S-1722.884,347.968-1726.781,346.319Z" fill="#7f7f7f"/>
          </g>
        </g>
      </g>
      <path id="Path_253" data-name="Path 253" d="M-1730.924,344.272a4.841,4.841,0,0,1-4.145,1.618l-.58-1.047-.585-1.068-.1-.164-.349-.587s1.294-.937,2.25-1.665c.217-.166.412-.321.576-.449a2.366,2.366,0,0,0,.433-.385c0-.133,1.5.123,1.5.123Z" fill="#eec3a1"/>
      <path id="Path_254" data-name="Path 254" d="M-1740.751,335.576a35.459,35.459,0,0,0,1.342,5.718,2.987,2.987,0,0,0,4.64,1.4,11.39,11.39,0,0,0,2.1-1.954l-.71-7.337-7.842-.917Z" fill="#eec3a1"/>
      <path id="Path_255" data-name="Path 255" d="M-1735.591,340.209a3.73,3.73,0,0,0,1.239.125l-.361-1.148Z" fill="#7f7f7f"/>
      <path id="Path_256" data-name="Path 256" d="M-1739.117,335.893a13.472,13.472,0,0,0,2.273,1.586,2.258,2.258,0,0,1,.728.632,9.907,9.907,0,0,0,1.14,1.409,3.472,3.472,0,0,1,.417.942,2.2,2.2,0,0,0,2.191,1.452l.062,0a2.211,2.211,0,0,0,2.033-2.138l.147-4.5a2.218,2.218,0,0,0-.5-1.472l-.3-.375a2.214,2.214,0,0,0-2.1-.785c-2.363.411-7.172,1.248-7.072,1.247.072,0,.186.43.275.823A2.207,2.207,0,0,0-1739.117,335.893Z" fill="#555b5e"/>
      <g id="Group_111" data-name="Group 111">
        <path id="Path_257" data-name="Path 257" d="M-1741.495,333.136s.923,2.232,5.772,2.653a20.828,20.828,0,0,0,2.687.075c2.607-.126,3.309-.863,3.309-.863s1.138-6.6-3.844-7.833a5.915,5.915,0,0,0-1.124-.172C-1738.9,326.692-1740.9,331.027-1741.495,333.136Z" fill="#bcbfc5"/>
      </g>
      <path id="Path_258" data-name="Path 258" d="M-1736.574,338.734s-.1-2.167,1-2.262,1.293,1.672,1.166,2.425-.389,1.462-1.8,1.294Z" fill="#eec3a1"/>
      <path id="Path_259" data-name="Path 259" d="M-1736.2,337.957s.281-1.019.745-.977,1.049,1.5.456,2.12c0,0,.169-1.151-.3-1.5S-1736.2,337.957-1736.2,337.957Z" fill="#7f7f7f"/>
      <path id="Path_260" data-name="Path 260" d="M-1738.614,348.687c-.648-.516-1.559.651-1.591.657-.648.823,2.324,2.377,2.629,6.036.353,4.318-.982,8.986-3,10.5l-.033,2.362a15.341,15.341,0,0,0,3.758-2.547c1.454-1.743,1.5-4.163,1.466-9.912S-1738.614,348.687-1738.614,348.687Z" fill="#333"/>
      <path id="Path_261" data-name="Path 261" d="M-1736.45,355.657c.034,5.509-.015,7.828-1.469,9.5-1.127,1.3-5.72,3.449-7.678,4.327l-.006.005c-.545.242-.884.388-.884.388l-2.4-2.554,6.5-4.573a1.623,1.623,0,0,0,.675-1.552c-.4-2.851-1.241-11.06,2.007-12.083a.515.515,0,0,1,.1-.006S-1736.485,350.149-1736.45,355.657Z" fill="#7f7f7f"/>
      <path id="Path_262" data-name="Path 262" d="M-1725.273,335.826l-4.352-2.466c-.368,1.269-1.923,2.122-4.883,2.482l4.348,2.468C-1727.2,338.532-1725.8,337.2-1725.273,335.826Z" fill="#bcbfc5"/>
    </g>
  </g>
</svg>
