<svg xmlns="http://www.w3.org/2000/svg" width="183.241" height="183.241" viewBox="0 0 183.241 183.241">
  <g id="scale" transform="translate(-8092.881 -210.553)">
    <circle id="Ellipse_15" data-name="Ellipse 15" cx="89.623" cy="89.623" r="89.623" transform="translate(8094.878 212.551)" fill="none" stroke="#7f7f7f" stroke-miterlimit="10" stroke-width="3.995"/>
    <g id="Group_133" data-name="Group 133" transform="translate(8133.65 256.254)">
      <g id="Group_130" data-name="Group 130" transform="translate(24.723 9.455)">
        <circle id="Ellipse_19" data-name="Ellipse 19" cx="5.599" cy="5.599" r="5.599" transform="translate(1.866 9.332)" fill="none" stroke="#7f7f7f" stroke-miterlimit="10" stroke-width="3.995"/>
        <circle id="Ellipse_20" data-name="Ellipse 20" cx="5.599" cy="5.599" r="5.599" transform="translate(39.194 9.332)" fill="none" stroke="#7f7f7f" stroke-miterlimit="10" stroke-width="3.995"/>
        <circle id="Ellipse_21" data-name="Ellipse 21" cx="5.599" cy="5.599" r="5.599" transform="translate(20.53)" fill="none" stroke="#27cc33" stroke-miterlimit="10" stroke-width="3.995"/>
        <line id="Line_58" data-name="Line 58" y2="76.522" transform="translate(26.129 11.199)" fill="none" stroke="#27cc33" stroke-miterlimit="10" stroke-width="3.995"/>
        <path id="Path_289" data-name="Path 289" d="M-5188.65,3602.1l-7.465,7.465v11.2" transform="translate(5229.71 -3583.431)" fill="none" stroke="#7f7f7f" stroke-miterlimit="10" stroke-width="3.995"/>
        <path id="Path_290" data-name="Path 290" d="M-5212.885,3602.1l7.465,7.465v11.2" transform="translate(5224.083 -3583.431)" fill="none" stroke="#7f7f7f" stroke-miterlimit="10" stroke-width="3.995"/>
        <circle id="Ellipse_22" data-name="Ellipse 22" cx="5.599" cy="5.599" r="5.599" transform="translate(0 27.996)" fill="none" stroke="#7f7f7f" stroke-miterlimit="10" stroke-width="3.995"/>
        <path id="Path_291" data-name="Path 291" d="M-5214.283,3616.07l9.332,9.332v29.862" transform="translate(5223.615 -3578.742)" fill="none" stroke="#7f7f7f" stroke-miterlimit="10" stroke-width="3.995"/>
        <circle id="Ellipse_23" data-name="Ellipse 23" cx="5.599" cy="5.599" r="5.599" transform="translate(41.06 27.996)" fill="none" stroke="#7f7f7f" stroke-miterlimit="10" stroke-width="3.995"/>
        <path id="Path_292" data-name="Path 292" d="M-5186.784,3616.07l-9.332,9.332v29.862" transform="translate(5229.71 -3578.742)" fill="none" stroke="#7f7f7f" stroke-miterlimit="10" stroke-width="3.995"/>
        <path id="Path_293" data-name="Path 293" d="M-5184.927,3620.262v7.465l-5.6,5.6v11.2" transform="translate(5231.585 -3577.335)" fill="none" stroke="#27cc33" stroke-miterlimit="10" stroke-width="3.995"/>
        <path id="Path_294" data-name="Path 294" d="M-5217.077,3620.262v7.465l5.6,5.6v11.2" transform="translate(5222.676 -3577.335)" fill="none" stroke="#27cc33" stroke-miterlimit="10" stroke-width="3.995"/>
      </g>
      <g id="Group_132" data-name="Group 132">
        <path id="Path_295" data-name="Path 295" d="M-5171.97,3654.481h11.139v-11.139" transform="translate(5262.535 -3560.136)" fill="none" stroke="#27cc33" stroke-miterlimit="10" stroke-width="3.995"/>
        <path id="Path_296" data-name="Path 296" d="M-5171.97,3581.041h11.139v11.14" transform="translate(5262.535 -3581.041)" fill="none" stroke="#27cc33" stroke-miterlimit="10" stroke-width="3.995"/>
        <g id="Group_131" data-name="Group 131">
          <line id="Line_59" data-name="Line 59" x2="18.839" y2="18.839" transform="translate(82.865 75.505)" fill="none" stroke="#27cc33" stroke-miterlimit="10" stroke-width="3.995"/>
          <line id="Line_60" data-name="Line 60" y1="18.839" x2="18.839" transform="translate(82.865)" fill="none" stroke="#27cc33" stroke-miterlimit="10" stroke-width="3.995"/>
          <path id="Path_297" data-name="Path 297" d="M-5228.642,3654.481h-11.139v-11.139" transform="translate(5239.781 -3560.136)" fill="none" stroke="#27cc33" stroke-miterlimit="10" stroke-width="3.995"/>
          <line id="Line_61" data-name="Line 61" x1="18.839" y2="18.839" transform="translate(0 75.505)" fill="none" stroke="#27cc33" stroke-miterlimit="10" stroke-width="3.995"/>
          <path id="Path_298" data-name="Path 298" d="M-5228.642,3581.041h-11.139v11.14" transform="translate(5239.781 -3581.041)" fill="none" stroke="#27cc33" stroke-miterlimit="10" stroke-width="3.995"/>
          <line id="Line_62" data-name="Line 62" x1="18.839" y1="18.839" fill="none" stroke="#27cc33" stroke-miterlimit="10" stroke-width="3.995"/>
        </g>
      </g>
    </g>
  </g>
</svg>
