<svg xmlns="http://www.w3.org/2000/svg" width="177.173" height="177.173" viewBox="0 0 177.173 177.173">
  <g id="speed" transform="translate(1.998 1.997)">
    <circle id="Ellipse_11" data-name="Ellipse 11" cx="86.589" cy="86.589" r="86.589" fill="none" stroke="#7f7f7f" stroke-miterlimit="10" stroke-width="3.995"/>
    <g id="Group_116" data-name="Group 116" transform="translate(12.969 12.168)">
      <g id="Group_115" data-name="Group 115" transform="translate(0)">
        <path id="Path_266" data-name="Path 266" d="M-5470.48,3485.213a74.831,74.831,0,0,0,22.541-53.638,74.742,74.742,0,0,0-74.575-74.908,74.742,74.742,0,0,0-74.575,74.908,74.831,74.831,0,0,0,22.541,53.638" transform="translate(5597.089 -3356.667)" fill="none" stroke="#7f7f7f" stroke-miterlimit="10" stroke-width="3.995"/>
      </g>
      <line id="Line_2" data-name="Line 2" y2="6.477" transform="translate(74.483 12.953)" fill="none" stroke="#27cc33" stroke-miterlimit="10" stroke-width="3.995"/>
      <line id="Line_3" data-name="Line 3" x2="2.215" y2="6.086" transform="translate(53.439 16.664)" fill="none" stroke="#27cc33" stroke-miterlimit="10" stroke-width="3.995"/>
      <line id="Line_4" data-name="Line 4" x2="4.163" y2="4.961" transform="translate(34.932 27.349)" fill="none" stroke="#27cc33" stroke-miterlimit="10" stroke-width="3.995"/>
      <line id="Line_5" data-name="Line 5" x2="5.609" y2="3.238" transform="translate(21.197 43.718)" fill="none" stroke="#27cc33" stroke-miterlimit="10" stroke-width="3.995"/>
      <line id="Line_6" data-name="Line 6" x2="6.378" y2="1.125" transform="translate(13.888 63.798)" fill="none" stroke="#27cc33" stroke-miterlimit="10" stroke-width="3.995"/>
      <line id="Line_7" data-name="Line 7" y1="1.125" x2="6.378" transform="translate(13.888 84.042)" fill="none" stroke="#27cc33" stroke-miterlimit="10" stroke-width="3.995"/>
      <line id="Line_8" data-name="Line 8" y1="3.238" x2="5.609" transform="translate(21.197 102.009)" fill="none" stroke="#27cc33" stroke-miterlimit="10" stroke-width="3.995"/>
      <line id="Line_9" data-name="Line 9" x1="5.609" y1="3.238" transform="translate(122.16 102.009)" fill="none" stroke="#27cc33" stroke-miterlimit="10" stroke-width="3.995"/>
      <line id="Line_10" data-name="Line 10" x1="6.378" y1="1.125" transform="translate(128.699 84.042)" fill="none" stroke="#27cc33" stroke-miterlimit="10" stroke-width="3.995"/>
      <line id="Line_11" data-name="Line 11" x1="5.609" y2="3.238" transform="translate(122.16 43.718)" fill="none" stroke="#27cc33" stroke-miterlimit="10" stroke-width="3.995"/>
      <line id="Line_12" data-name="Line 12" x1="4.163" y2="4.961" transform="translate(109.87 27.349)" fill="none" stroke="#27cc33" stroke-miterlimit="10" stroke-width="3.995"/>
      <line id="Line_13" data-name="Line 13" x1="2.215" y2="6.086" transform="translate(93.312 16.664)" fill="none" stroke="#27cc33" stroke-miterlimit="10" stroke-width="3.995"/>
      <line id="Line_14" data-name="Line 14" x1="12.951" y2="4.981" transform="translate(48.576 92.17)" fill="none" stroke="#27cc33" stroke-miterlimit="10" stroke-width="3.995"/>
      <line id="Line_15" data-name="Line 15" x1="45.336" y2="17.437" transform="translate(87.438 64.767)" fill="none" stroke="#27cc33" stroke-miterlimit="10" stroke-width="3.995"/>
      <rect id="Rectangle_8" data-name="Rectangle 8" width="51.814" height="16.192" rx="5.019" transform="translate(48.576 119.82)" fill="none" stroke="#27cc33" stroke-miterlimit="10" stroke-width="3.995"/>
      <circle id="Ellipse_13" data-name="Ellipse 13" cx="12.954" cy="12.954" r="12.954" transform="translate(61.529 74.483)" fill="none" stroke="#7f7f7f" stroke-miterlimit="10" stroke-width="3.995"/>
    </g>
  </g>
</svg>
