<svg xmlns="http://www.w3.org/2000/svg" width="278.507" height="334.662" viewBox="0 0 278.507 334.662">
  <g id="Group_134" data-name="Group 134" transform="translate(2346.11 -158.283)">
    <g id="Group_134-2" data-name="Group 134">
      <path id="Path_299" data-name="Path 299" d="M-2205.417,492.917c76.055-1.221,137.076-41.6,136.3-90.2l-.079-8.321-275.366,5.392.03,7.346C-2343.755,455.728-2281.471,494.135-2205.417,492.917Z" fill="#cdd0d5"/>
      <ellipse id="Ellipse_24" data-name="Ellipse 24" cx="137.726" cy="88.004" rx="137.726" ry="88.004" transform="translate(-2345.975 311.793) rotate(-0.919)" fill="#fcfcfc" stroke="#cdd0d5" stroke-miterlimit="10" stroke-width="0.265"/>
    </g>
    <g id="Group_138" data-name="Group 138">
      <g id="Group_135" data-name="Group 135" opacity="0.16">
        <path id="Path_300" data-name="Path 300" d="M-2173.534,344.021c6.633,3.419,6.668,8.991.078,12.409-6.613,3.431-17.366,3.419-24,0-6.657-3.431-6.692-8.978-.078-12.409C-2190.943,340.6-2180.191,340.59-2173.534,344.021Z" fill="#b3b3b3"/>
      </g>
      <g id="Group_136" data-name="Group 136">
        <path id="Path_301" data-name="Path 301" d="M-2180.309,346.884c2.716,1.4,2.731,3.682.032,5.082a12.006,12.006,0,0,1-9.829,0c-2.727-1.4-2.741-3.677-.032-5.082A12.006,12.006,0,0,1-2180.309,346.884Z" fill="#7f7f7f"/>
      </g>
      <g id="Group_137" data-name="Group 137">
        <path id="Path_302" data-name="Path 302" d="M-2185.211,350.925c1.793,0,3.244-.53,3.244-2.322V232.325a3.243,3.243,0,0,0-3.244-3.245,3.243,3.243,0,0,0-3.245,3.245V348.6C-2188.456,350.395-2187,350.925-2185.211,350.925Z" fill="#999"/>
      </g>
    </g>
    <g id="Group_148" data-name="Group 148">
      <path id="Path_303" data-name="Path 303" d="M-2218.992,394.354c-15.536-9.627-40.726-10.385-56.262-1.694s-15.537,23.541,0,33.169,40.726,10.385,56.262,1.694S-2203.456,403.981-2218.992,394.354Z" fill="#b3b3b3" fill-rule="evenodd" opacity="0.16"/>
      <path id="Path_304" data-name="Path 304" d="M-2239.1,412.488a.988.988,0,0,0-.248-.147c-1.134-.472-1.6.065-2.515.813a2.721,2.721,0,0,1-1.463.314,5.231,5.231,0,0,1-3.861-.725c-.134.214-1.392,1.3-1.528,1.777a7.457,7.457,0,0,0-.369,3.5c.281,1.2,1.94,1.477,2.946,1.666l11.508,2.158a4.11,4.11,0,0,0,2.176.009,2.227,2.227,0,0,0,1.039-2.906,5.88,5.88,0,0,0-2.6-2.493c-.909-.507-1.422-.6-2.313-1.136a5.922,5.922,0,0,1-1.708-1.218C-2239.2,412.894-2238.836,412.7-2239.1,412.488Z" fill="#7f7f7f"/>
      <path id="Path_305" data-name="Path 305" d="M-2263.775,399.307a.95.95,0,0,0-.219-.161c-1.021-.553-1.521-.115-2.468.468a2.688,2.688,0,0,1-1.417.127,5.125,5.125,0,0,1-3.573-1.079c-.151.18-1.459,1.034-1.64,1.452a6.617,6.617,0,0,0-.731,3.151c.134,1.122,1.673,1.556,2.6,1.837l10.65,3.214a4.05,4.05,0,0,0,2.057.244,2.019,2.019,0,0,0,1.3-2.534,5.47,5.47,0,0,0-2.183-2.552c-.8-.56-1.279-.7-2.063-1.286a5.6,5.6,0,0,1-1.482-1.294C-2263.917,399.665-2263.55,399.528-2263.775,399.307Z" fill="#7f7f7f"/>
      <path id="Path_306" data-name="Path 306" d="M-2244.2,356.551s.514,15.708-6.959,21.931c-3.205,2.669-12.907,21.621-12.907,21.621-2.238.9-6.351.734-8.745-.131a42.143,42.143,0,0,1,3.934-13.279c2.549-4.519,4.764-5.168,5.915-8.734,1.2-3.732.92-8.567,1.352-12.462.379-3.412-.921-7.049,1.147-9.9,1.164-1.6,3.845-.73,5.528-.263C-2251.311,356.338-2247.595,354.923-2244.2,356.551Z" fill="#9da2aa"/>
      <path id="Path_307" data-name="Path 307" d="M-2266.3,355.155c-1.591,3.646-1.21,9.123.858,12.306,2.082,3.2,4.949,5.823,7.2,8.91a45.089,45.089,0,0,1,4.078,7.549c1.269,2.7.783,6.056.964,8.941a48.215,48.215,0,0,0,1.727,9l1.8,6.954c.3,1.152.648,2.3.9,3.467.121.565.059,1.545.589,1.91.85.584,3.492-.15,4.439-.294a13.852,13.852,0,0,0,4.491-1.186s-2.092-22.017-2.964-26.4a173.28,173.28,0,0,0-5.727-19c-1.36-3.664.827-8.338.827-8.338-3.03-.443-7.565.12-10.594-.323l-5.7-.835C-2264.149,357.713-2266.207,355.245-2266.3,355.155Z" fill="#bcbfc5"/>
      <path id="Path_308" data-name="Path 308" d="M-2242.982,420.223c.14-.083.812-.887,1.548-1.714.507-.585,1.023-1.128,1.551-1.638a.791.791,0,0,1,.7-.188c.237.044.483.094.736.153.187.044.273.26.149.373-.274.249-.581.539-.919.865a13.015,13.015,0,0,0-2.2,2.48C-2241.492,420.52-2242.932,420.245-2242.982,420.223Z" fill="#bcbfc5"/>
      <path id="Path_309" data-name="Path 309" d="M-2268.731,405.634c.139-.083.812-.887,1.547-1.714.507-.585,1.023-1.128,1.551-1.638a.788.788,0,0,1,.7-.188c.238.043.483.093.736.153.187.043.273.259.149.373-.274.249-.581.539-.919.865a13.054,13.054,0,0,0-2.2,2.48C-2267.242,405.931-2268.682,405.656-2268.731,405.634Z" fill="#bcbfc5"/>
      <g id="Group_141" data-name="Group 141">
        <path id="Path_310" data-name="Path 310" d="M-2246.674,316.341s-12.212-1.99-20.4,6c-.235.23,5.64,8.875,2.851,21.858-.261,1.217-.786,2.62-.942,3.859-.358,2.833.961,5.559-.606,7.913a63.13,63.13,0,0,0,6.133,2.277c4.062.85,7.3,1.071,11.215-.2,3.719-1.2,2.319-2.475,3.25-2.868l.64-29.2S-2243.959,319.809-2246.674,316.341Z" fill="#7f7f7f"/>
        <g id="Group_140" data-name="Group 140">
          <g id="Group_139" data-name="Group 139">
            <path id="Path_311" data-name="Path 311" d="M-2232.437,349.853s6.014,1.55,4.514,5.856c-1.164,3.359-5.4,1.144-7.693-4.315a98.373,98.373,0,0,1-9.153-7.969c.052-.546.131-1.091.234-1.624.405-2.087,1.752-4.111,2.637-6.091l-.029,2.086S-2234.977,346.737-2232.437,349.853Z" fill="#eac9b2"/>
            <path id="Path_312" data-name="Path 312" d="M-2241.082,332.147a7.313,7.313,0,0,1-.816,3.563l.034-2.178-8.4-.008s2.362,5.033,3.954,7.95a10.29,10.29,0,0,0,1.541,1.951c-.542,5.265.959,10.888.947,13.836,0,.741-3.429,1.847-4.234,2.085-2.921.882-8.268.39-11.492-.061-.5-.072-3.493-.464-5.713-1a7.5,7.5,0,0,0-1.386-4.53c.97-4.391,1.187-10.493,1.386-14.108a33.233,33.233,0,0,0-.542-7.356c1.946-3.244,4.32-8.379,1.358-10.322.428-.21.879-.384,1.324-.576.246-.113.508-.179.765-.274a6.583,6.583,0,0,1,1.1-.406c.588-.113,1.142-.33,1.724-.461.616-.141,1.249-.253,1.837-.447.137-.047.268-.089.4-.13.485,1.423,1.706,3.028,4.793,2.055,2.014-.641,2.168-2.4,1.98-3.693a11.557,11.557,0,0,1,1.45-.373c.9-.156,1.883-.947,2.761-.39.959.605,1.33,2.589,1.41,3.646C-2244.535,325.986-2241.3,329.425-2241.082,332.147Z" fill="#7f7f7f"/>
            <path id="Path_313" data-name="Path 313" d="M-2241.864,333.532l-.034,2.178c-.885,1.98-2.232,4-2.637,6.091-.1.533-.182,1.078-.234,1.624a10.29,10.29,0,0,1-1.541-1.951c-1.592-2.917-3.954-7.95-3.954-7.95Z" fill="#7f7f7f"/>
            <path id="Path_314" data-name="Path 314" d="M-2245.145,303.908a16.681,16.681,0,0,1,.222,3.491,13.977,13.977,0,0,1-2.009,6.5,7.785,7.785,0,0,1-1.791,2.119,4.812,4.812,0,0,1-2.049.937c-.08-.248-.143-.4-.143-.4l-.479-4.862-2.716.762c4.285-2.825,8.936-9.209,8.936-9.209a.344.344,0,0,0,.023-.045A3.556,3.556,0,0,0-2245.145,303.908Z" fill="#eac9b2"/>
            <path id="Path_315" data-name="Path 315" d="M-2245.151,303.2a5.355,5.355,0,0,0,.034-.535c0-.628-2.437.451-3.92.686-2.745.43-7.687,1.987-8.149,4.1,0,0-.217-4.107-2.608-2.73-1.438.823-.028,4.578.93,5.93a4.618,4.618,0,0,1,.525,1.476c.4.463.839,1.024,1.318,1.608a3.206,3.206,0,0,1-1.067,0c-4.65-.853-6.516-7.947-4.371-13.717a6.745,6.745,0,0,1,1.615-2.518c1.056,2.051,3.281-.58,3.281-.58l.274-1.252a13.386,13.386,0,0,1,9.273,1.717C-2243.679,299.988-2244.946,302.813-2245.151,303.2Z" fill="#7f7f7f"/>
            <path id="Path_316" data-name="Path 316" d="M-2245.117,302.666a5.355,5.355,0,0,1-.034.535.344.344,0,0,1-.023.045s-4.651,6.384-8.936,9.209l-2.357.665-.126.526a2.7,2.7,0,0,1-.428.09c-.479-.584-.918-1.145-1.318-1.608a4.618,4.618,0,0,0-.525-1.476c-.958-1.352-2.368-5.107-.93-5.93,2.391-1.377,2.608,2.73,2.608,2.73.462-2.113,5.4-3.67,8.149-4.1C-2247.554,303.117-2245.117,302.038-2245.117,302.666Z" fill="#eac9b2"/>
            <path id="Path_317" data-name="Path 317" d="M-2250.521,318.033c.188,1.288.034,3.052-1.98,3.693-3.087.973-4.308-.632-4.793-2.055a7.71,7.71,0,0,1,.77-.222c.382-.086.8-.067,1.187-.181.765-.217,1.563-.341,2.311-.587.69-.23,1.421-.322,2.111-.529C-2250.783,318.116-2250.652,318.074-2250.521,318.033Z" fill="#eac9b2"/>
            <path id="Path_318" data-name="Path 318" d="M-2250.521,318.033c-.131.041-.262.083-.394.119-.69.207-1.421.3-2.111.529-.748.246-1.546.37-2.311.587-.382.114-.805.1-1.187.181a7.71,7.71,0,0,0-.77.222,6.219,6.219,0,0,1-.32-1.795l.907-3.765a14.164,14.164,0,0,0,1.781,1.793,5.015,5.015,0,0,0,4.154,1.049A6.642,6.642,0,0,1-2250.521,318.033Z" fill="#eac9b2"/>
            <path id="Path_319" data-name="Path 319" d="M-2250.915,316.555s.063.15.143.4a5.015,5.015,0,0,1-4.154-1.049,14.164,14.164,0,0,1-1.781-1.793l.114-.465a8.36,8.36,0,0,0,2.483-1.191l2.716-.762Z" fill="#eac9b2"/>
            <path id="Path_320" data-name="Path 320" d="M-2256.467,313.12l2.357-.665a8.36,8.36,0,0,1-2.483,1.191Z" fill="#eac9b2"/>
            <path id="Path_321" data-name="Path 321" d="M-2256.593,313.646l-.114.465-.314-.375A2.7,2.7,0,0,0-2256.593,313.646Z" fill="#eac9b2"/>
            <path id="Path_322" data-name="Path 322" d="M-2257.289,295.666l-.274,1.252s-2.225,2.631-3.281.58A7.275,7.275,0,0,1-2257.289,295.666Z" fill="#7f7f7f"/>
            <path id="Path_323" data-name="Path 323" d="M-2260.81,291.87a7.5,7.5,0,0,1,3.521,3.8,7.275,7.275,0,0,0-3.555,1.832c-.57-1.112-1.735-.428-2.254.235-1.141,1.448-1.107,3.457-1.1,5.236a16.524,16.524,0,0,1-.713,4.758c-1.141,3.884-4.274,5.774-7.726,7.393a7.423,7.423,0,0,0,3.013-4.814c-1.062,1.49-4,1.63-4,1.63,4.2-1.4,5.467-12.223,6.072-16.647S-2263.32,290.734-2260.81,291.87Z" fill="#7f7f7f"/>
            <path id="Path_324" data-name="Path 324" d="M-2264.445,321.965c2.962,1.943.588,7.078-1.358,10.322-.348-2.155-.8-4.319-1.152-6.577-.04-.246-.023-.479-.069-.726-.057-.293-.051-1.787-.051-1.787a4.249,4.249,0,0,1,1.038-.641c.451-.2.976-.268,1.41-.5A1.8,1.8,0,0,1-2264.445,321.965Z" fill="#eac9b2"/>
            <path id="Path_325" data-name="Path 325" d="M-2264.445,321.965a1.8,1.8,0,0,0-.182.091c-.434.232-.959.3-1.41.5a4.249,4.249,0,0,0-1.038.641s-.006,1.494.051,1.787c.046.247.029.48.069.726.353,2.258.8,4.422,1.152,6.577-.987,1.658-1.866,2.823-1.866,2.823h-.011l-2.02,3.082s1.267,10.058,1.809,13.827a15.275,15.275,0,0,1,1.244,1.732,15.5,15.5,0,0,1-1.045,3.293c-.216.444.931.878,2.431,1.237a2.865,2.865,0,0,1-.787,1.636c-2.169,2.25-6.146-1.178-5.3-6.684,0,0-3.954-10.145-3.891-13.28.085-4.235,6.043-20.487,10.477-18.174C-2264.65,321.839-2264.542,321.9-2264.445,321.965Z" fill="#eac9b2"/>
            <path id="Path_326" data-name="Path 326" d="M-2266.647,353.751a7.5,7.5,0,0,1,1.386,4.53c-1.5-.359-2.647-.793-2.431-1.237A15.5,15.5,0,0,0-2266.647,353.751Z" fill="#eac9b2"/>
          </g>
        </g>
        <path id="Path_327" data-name="Path 327" d="M-2272.772,333.064" fill="#ecc2a0"/>
      </g>
      <g id="Group_142" data-name="Group 142" opacity="0.16">
        <ellipse id="Ellipse_25" data-name="Ellipse 25" cx="21.73" cy="35.627" rx="21.73" ry="35.627" transform="translate(-2200.559 443.553) rotate(-87.291)" fill="#b3b3b3"/>
      </g>
      <g id="Group_147" data-name="Group 147">
        <g id="Group_144" data-name="Group 144">
          <path id="Path_328" data-name="Path 328" d="M-2166,401.679c-1.654,1.141-2.435,2.87-3.871,4.038l-4.338,3.389a5.931,5.931,0,0,0-.267,2.946c.13,1.369.04,2.755.043,4.033l1.79,1.708-.737,1.368-2.705.428a3.993,3.993,0,0,1-2.161-2.661c-.393-1.8-.56-3.637-.776-5.469a8.218,8.218,0,0,1,.9-4.164,13.842,13.842,0,0,0,1.194-6.7,25.935,25.935,0,0,1-.017-3.881,6.3,6.3,0,0,1,1.55-4.28,35.472,35.472,0,0,0,2.37-3.021,11.465,11.465,0,0,1-5.924-4.75,7.39,7.39,0,0,1-1.292-4.979,5.694,5.694,0,0,1,.628-1.307c.463.771.766,1.227,1.018,1.7a10.34,10.34,0,0,0,4.625,4.449,27.247,27.247,0,0,0,9.8,2.508,26.579,26.579,0,0,1,6.612,1.5c3.275,1.133,6.391,2.6,9.756,3.4a3.1,3.1,0,0,0,3.064-.628c.006-.747,0-1.584.021-2.422a5.924,5.924,0,0,1,.7-2.78c.3.625.831.637,1.189,1.386,1.781-1.37,2.633-1.98,2.948-4.175-.394-.373-.4-.946-.741-1.266l2.308-1.283c.275.6.846.382,1.278.366a3.554,3.554,0,0,1,3.036,1.1c.144.162.475.175.72.257a15.5,15.5,0,0,0,1.172,1.614,5.468,5.468,0,0,1,1.415,2.49c-.445.093-1.041-.014-1.026.857l1.216.087.011-.851c.184.075.442.1.54.231a28.211,28.211,0,0,1,2.4,3.393c.49.922,1.446,1.666,1.367,2.839a3.855,3.855,0,0,0-3,1.451c.213,1.141,1.67.023,2.233.623.489-.535.588-.395,1-.84.384,2.234-2.678,4.011-4.735,3.389-1.442-.436-2.879-.9-4.4-1.381-.017,1.489-.123,2.885-.028,4.267a12.587,12.587,0,0,1-1.424,6.215c-.721.725-1.414,1.478-2.173,2.168a13.225,13.225,0,0,1-1.9,1.457,11.016,11.016,0,0,1-1.744.754c-.592.237-1.3.309-1.576.988l-.841.007a7.015,7.015,0,0,0-.443,1.026c-.893,3.519-1.877,7.021-2.6,10.559a10.75,10.75,0,0,0,.2,5.969l1.718,1.293-.541,1.458-1.9.9-2.409-1.515c-1.01-6.812-.829-13.864-2.72-20.547-1.716-1.168-3.442-2.282-5.1-3.487-1.813-1.32-3.562-2.727-5.35-4.105Z" fill="#bcbfc5"/>
          <path id="Path_329" data-name="Path 329" d="M-2136.553,406.873c-.721.725-1.414,1.478-2.173,2.168a13.225,13.225,0,0,1-1.9,1.457,11.016,11.016,0,0,1-1.744.754c-.592.237-1.3.309-1.576.988.212,1.771.427,3.54.633,5.306a5.539,5.539,0,0,1,.016.772,38.544,38.544,0,0,0,.579,7.433,9.228,9.228,0,0,1,0,1.5l2.225,1.576a3.13,3.13,0,0,0,2.722-1.508c.016-.953-.622-1.353-1.4-1.628-1.192-2.14-.894-4.4-.347-6.652.96-3.953,1.972-7.9,2.96-11.858A1.372,1.372,0,0,0-2136.553,406.873Z" fill="#999"/>
          <path id="Path_330" data-name="Path 330" d="M-2163.935,403.8l-2.063-2.123c-1.654,1.141-2.435,2.87-3.871,4.038.242,2.306.4,4.62.761,6.9a3.768,3.768,0,0,0,1.925,2.6,3.838,3.838,0,0,0,3.116-.7l.172-1.289a3.613,3.613,0,0,1-1.454-3.375c.033-1.484.01-2.97.011-4.52Z" fill="#999"/>
          <path id="Path_331" data-name="Path 331" d="M-2143.914,386.315l.364.761a.883.883,0,0,0,1.362.312,7.23,7.23,0,0,0,2.548-3.849.885.885,0,0,0-.272-.821l-.567-.536a.9.9,0,0,0-.327-.2c-.632-.214-1.595-1.013-2.267-1.241-.446-.151-.779-.248-.779.218a46.569,46.569,0,0,1-.139,4.911A.868.868,0,0,0-2143.914,386.315Z" fill="#999"/>
          <path id="Path_332" data-name="Path 332" d="M-2138.312,380.764c.275.6.846.382,1.278.366a3.554,3.554,0,0,1,3.036,1.1c.144.162.475.175.72.257-.067-1.278-.433-4.017-.641-5.508a.528.528,0,0,0-.88-.324A22.242,22.242,0,0,0-2138.312,380.764Z" fill="#999"/>
          <path id="Path_333" data-name="Path 333" d="M-2126.1,393.076c-.829-.236-3.4.615-3.4,1.48.226,1.212,1.936.324,2.435,1.139l1.2-1.309C-2125.512,394.042-2125.517,393.193-2126.1,393.076Z" fill="#353535"/>
          <path id="Path_334" data-name="Path 334" d="M-2130.691,386.593c-.445.093-1.041-.014-1.026.857.065.214.722.333,1.216.087.108-.5.113-.744.011-.851C-2130.571,386.6-2130.645,386.568-2130.691,386.593Z" fill="#353535"/>
          <g id="Group_143" data-name="Group 143">
            <path id="Path_335" data-name="Path 335" d="M-2129.295,397.257c.607,1.6,1.213,2.538,1.765,2.263s1.73-.264.673-2.974" fill="#e1786c"/>
            <path id="Path_336" data-name="Path 336" d="M-2127.972,397.1a3,3,0,0,1,.516,1.268l.1-.006a1.7,1.7,0,0,0-.587-1.292Z" fill="#a85852"/>
          </g>
          <path id="Path_337" data-name="Path 337" d="M-2136.76,389.8c1.184.444,1.777.368,1.877-.806C-2135.735,388.71-2136.2,389.01-2136.76,389.8Z" fill="#353535"/>
        </g>
        <g id="Group_145" data-name="Group 145">
          <path id="Path_338" data-name="Path 338" d="M-2136.935,399.287c4.08.133,2.845-2.574,1.833-2.844l-.043,1.65c-.182.017-.366-1.189-.347-1.224-.023.041-.811,1.266-4.323-.179-3.1-1.275-5.194-4.17-5.187-5.121,0,.02.269-.265.269-.265a.862.862,0,0,0-1.205-.355c-.363.161-.842.117-.848.888-.015,2.064,3.114,4.822,6.085,6.359A8.466,8.466,0,0,0-2136.935,399.287Z" fill="#333"/>
        </g>
        <g id="Group_146" data-name="Group 146">
          <path id="Path_339" data-name="Path 339" d="M-2135.3,399.458l.6-.24a.848.848,0,0,0,.547-.77l.011-1.014a.881.881,0,0,0-1.232-.779l-.6.239a.85.85,0,0,0-.549.772l-.011,1.015A.882.882,0,0,0-2135.3,399.458Z" fill="#108c16"/>
          <path id="Path_340" data-name="Path 340" d="M-2134.911,399.531l.6-.24a.85.85,0,0,0,.547-.77l.012-1.013a.882.882,0,0,0-1.232-.78l-.6.24a.847.847,0,0,0-.548.771l-.011,1.015A.88.88,0,0,0-2134.911,399.531Z" fill="#27cc33"/>
        </g>
      </g>
      <path id="Path_341" data-name="Path 341" d="M-2228.024,354.539c53.817,54.567,82.332,37.028,82.332,37.028" fill="none" stroke="#333f44" stroke-linecap="round" stroke-linejoin="round" stroke-width="1.354"/>
    </g>
    <ellipse id="Ellipse_26" data-name="Ellipse 26" cx="34.288" cy="46.718" rx="34.288" ry="46.718" transform="translate(-2219.482 158.283)" fill="#27cc33"/>
    <path id="Path_342" data-name="Path 342" d="M-2148.7,203.65c.072-.349.127-.7.217-1.046a26.964,26.964,0,0,0-2.019-19.965,22.709,22.709,0,0,0-8.235-8.991,22.185,22.185,0,0,1-2.839-1.452c-.778-.672-.631-1.216-1.219-1.955-1.171-1.475-3.809-2.54-5.468-3.349a45.486,45.486,0,0,0-25.683-3.749,22.565,22.565,0,0,0-6.168,1.529c-2.64,1.156-4.431,3.228-6.8,4.737-1.844,1.176-3.753,1.967-5.443,3.458a25.033,25.033,0,0,0-7.009,11.109,2.081,2.081,0,0,1-.957,1.247c-9.084,5.551-13.43,17.633-10.342,28.752a3.316,3.316,0,0,1,.012,1.886,27.031,27.031,0,0,0-.066,14.411c3.567,13.384,16.382,20.668,28.137,16.025a1.581,1.581,0,0,1,1.089-.063,23.512,23.512,0,0,0,6.684,1.5l1.144-.028,3.484-.389,1.163-.253,2.33-.687,1-.67,1.856.3a13.391,13.391,0,0,0,5.279-.469c.819-.275,1.592-.726,2.407-1.019a1.723,1.723,0,0,1,1.16-.07c2.059.866,4.095,1.8,6.136,2.717.052.023.083.105.123.16l3.059.4a3.679,3.679,0,0,0,.537.2,20.082,20.082,0,0,0,7.948.023c9.249-1.771,16.911-10.928,17.722-21.362C-2138.713,217.016-2141.816,209.355-2148.7,203.65Z" fill="#27cc33"/>
  </g>
</svg>
